<svg xmlns="http://www.w3.org/2000/svg" viewBox="0 0 1199 1339.8"><defs/><defs><style>.cls-1{fill:#0092d8}.cls-2{fill:#0192d8}.cls-3{fill:#0494d9}</style></defs><g id="Capa_2" data-name="Capa 2"><g id="svg2"><path d="M599.9 0a444.5 444.5 0 01444.3 445A444.6 444.6 0 11599.9 0zM236 444.6c1 200.7 162 362.9 363.2 363.3 98.7.2 184.3-35.3 254.8-104.7a351.4 351.4 0 00108.6-258.5c0-99.2-35.6-185.3-105.7-255.8-70.6-71-157-107.5-257-107.6a363.6 363.6 0 00-363.9 363.3z" class="cls-1"/><path d="M447.4 1116.5a87 87 0 01-84-57.6A88.6 88.6 0 01432 941.4c30.4-5 58.4 1.3 81.3 23a88.6 88.6 0 01-21.2 142 91.7 91.7 0 01-44.7 10zm-42.9-91c0 18.7 6 32.4 19.8 41.9a44.3 44.3 0 0061.7-11.8c14.2-21.1 8.8-52.7-11.6-66.3a43 43 0 00-46.3-2.7 42.7 42.7 0 00-23.6 39zM563 1028.8V967c0-15 9-24.4 24-24.4 18.4 0 36.7-.2 55 0 12.9.1 25.5 2.1 37 8.3 21.8 11.5 32.3 35.5 27.4 62a51.5 51.5 0 01-26 37.6c-2.3 1.3-2.8 2-.9 4.3 6.7 7.8 13.2 15.8 19.7 23.8 4.5 5.6 7.5 11.9 6 19.3-3.1 16-21.7 22.7-35.3 13a41.5 41.5 0 01-8.3-8.5l-29.3-37.2c-1.8-2.3-3.6-3.5-6.6-3.3-4.8.2-9.7.2-14.5 0-2.9-.2-3.6 1-3.6 3.7-.1 10 .7 20-.4 29.9-1.5 12.3-11.4 20.5-23.3 19.8S563 1105 563 1092.7c-.2-21.3 0-42.6 0-63.9zm63.7-7.3v-.4c6.3 0 12.7.5 19-.1 10.5-1.2 16.8-8.4 16.9-18.1 0-10.3-5.6-17-16.4-18.6-12-1.8-24.2-.4-36.3-.7-2.1 0-2.3 1.3-2.3 3v31.8c0 2.4.9 3.2 3.2 3.1h16z" class="cls-2"/><path d="M528.4 1253.1a86.5 86.5 0 01-48.3 77.2 85.4 85.4 0 01-46.1 9.3c-28-2-51.6-13-67.8-36.5a82.5 82.5 0 01-14-64.2 84.3 84.3 0 0135-55.7A88.3 88.3 0 01455 1168a86 86 0 0154.4 30.7 82.2 82.2 0 0116.5 34.6 90.1 90.1 0 012.5 19.8zm-46.1.5c-.3-3.7 0-7.5-.8-11-6.2-25.2-29.6-40.5-55.9-32.2s-35 38.2-25.9 60.6c6 14.5 16.6 23.9 32.8 26.5 12.4 2 23.7-.5 33.5-8.2a42 42 0 0016.3-35.8zM550 1253.4c0-20.6.2-41.3 0-62-.2-10 9.1-21.7 20.5-22 21.7-.6 43.3-1.3 65 .3 17.2 1.3 33.4 6.8 44.5 21.6 10.6 14 13.5 30 10.2 47a50.1 50.1 0 01-24.8 36.2c-3.3 2-1.6 3.8 0 5.6l18.2 22.4c6 7.4 7.3 16 3.1 25.1-3.2 7.2-16.5 13.5-26.2 9.4a46 46 0 01-17.4-15c-8.3-10.1-16.3-20.6-24.2-31-2.4-3.2-5.1-4.8-9.3-4.5a82.8 82.8 0 01-11.4 0c-3.3-.1-4.4 1.1-4.4 4.4.2 8.3-.2 16.7.2 25 .7 12.6-11 22.5-21.7 22.6-11.4 0-22.6-10-22.4-22.6.4-20.9.1-41.7.1-62.5zm63.6-43.2H598c-2.2 0-4 .2-4 3.1v30.4c0 2.3 1.2 3.2 3.5 3.1 11.4-.7 22.8.7 34.3-1.3 9-1.5 15.2-9.1 15.1-16.8-.1-10-6-16.7-15.6-18-6-.8-12.2-.3-17.6-.5z" class="cls-3"/><path d="M335.1 1028.5v65a21.6 21.6 0 01-15.5 20.8 22.3 22.3 0 01-24.8-8.4 22.9 22.9 0 01-4-13.6l.1-39.5c0-3.2-.8-4.4-4.1-4.3q-24.8.2-49.5 0c-3 0-4 1-4 4 .2 13 .2 26 0 39 0 14-9 23.7-22 23.8s-22.3-9.7-22.3-23.6V965c0-14 9.3-23.7 22.2-23.7s22.2 9.8 22.2 23.6v38.5c0 3 .7 4 3.8 4 16.5-.2 33-.2 49.4 0 3.8 0 4.3-1.4 4.3-4.7-.2-12.6-.1-25.3 0-38 0-14 9.1-23.5 22.3-23.4 12.8.1 22 9.7 22 23.4v63.9z" class="cls-1"/><path d="M328.6 1253.3c0 20.8-.4 41.6.1 62.4.3 13.4-11.4 23-22 22.7a22.7 22.7 0 01-21.8-23.1c.2-12.2 0-24.3.1-36.5 0-4.2-1.3-5.8-5.8-5.7q-21.7.3-43.4 0c-4.7-.1-5.5 1.9-5.5 6-.1 14.2 1.8 28.6-1.4 42.7-2.4 10.9-11.6 16.2-20.9 16.6-8 .2-19.5-5.6-21.3-17.4a73.3 73.3 0 01-1-11.3v-115.8c0-9.8 2.5-18.7 12.1-23.3 12-5.7 26.6-1 30.6 12.6 4 14.2 1.8 28.8 1.8 43.2 0 4.9 1 6.4 6 6.3 14.6-.3 29.3-.3 43.9 0 3.8 0 5-1.3 4.9-5-.2-11.8.3-23.6-.2-35.4-.6-11.2 7-23.4 21.2-24 11.3-.5 22.4 6.8 22.5 21.6.2 21.1 0 42.2 0 63.3zM1105.4 1338.6a67.2 67.2 0 01-40.8-10.1 44.1 44.1 0 01-22.4-31.8 47.8 47.8 0 015-31.6 38.5 38.5 0 0111.2-12.5c3-2 4-3.4.5-6.6-9.6-8.9-12.9-20.6-12-33.4 1.4-18.4 11.5-30.7 27.6-38.4a74.6 74.6 0 0148.3-5.3c17.4 3.5 31.1 11.4 39.7 27.3a42.8 42.8 0 01-7.3 49.2c-3.3 3.2-3.6 4.6.5 7.7 9.6 7.3 15 16.9 16.3 29.4a47.2 47.2 0 01-27.8 48.6 71.6 71.6 0 01-38.8 7.5zm1.7-37.4c4.5 1 8.6-.8 12.6-2.2 5.6-2 9.8-6.2 10.2-12.3.4-5.7-3-10-8.1-12.6-9-4.7-18.3-4.3-27.5-1.2-5.7 2-10.2 5.7-10.2 12.5 0 6.5 3.6 10.8 9 13.1 4.3 1.9 9 3.6 14 2.7zm18-83.1c-.2-3.1-2.3-7-6-9.6-6.4-4.7-14-4.1-21-2a12.6 12.6 0 00-9.3 11.8 13.5 13.5 0 007.7 13.4c5.9 3 12 3 18.4 1.2a15.4 15.4 0 0010.2-14.8z" class="cls-3"/><path d="M804.6 1077.3H775c-2.8 0-4.2.9-5.2 3.4-3 7.4-6 14.8-9.4 22a20.9 20.9 0 01-21 12.5 20.5 20.5 0 01-18.4-13.8 21 21 0 011.2-16.4l56.5-127.6c5-11.2 13.4-17.3 26-17.4s21 6.1 26 17.4l47.8 108 8.5 19.1c5 11.5 1 23.5-9.3 28.5a21.6 21.6 0 01-29.3-10c-3.6-7-6.7-14.4-9.6-21.8-1.2-3-2.8-4-6-3.9h-28.3zm-.3-78.4l-14.9 35.8c-.4 1-1.3 2.4.8 2.4h30.2l-16-38.2zM84.5 940c13.2 0 21.4 6.2 26.2 17l34.5 78 21.7 48.7c5.3 12 1.5 24.1-9.3 29.4-11.1 5.4-23.9.7-29.6-11.2-3.3-6.7-6.1-13.6-9-20.6-1-2.7-2.4-4-5.7-4q-29 .2-58 0c-3 0-4.4 1-5.4 3.7-3.1 7.5-6.2 15-9.7 22.3a21.4 21.4 0 01-21.4 12 20.7 20.7 0 01-18-15 22 22 0 011.6-15.6l51.5-116.1 5.3-11.8c5-11.4 13.8-17 25.3-16.8zm-.1 59l-15.2 36.2c-.7 1.6 0 2 1.5 2h29.7l-16-38.2z" class="cls-2"/><path d="M785.3 1166.5c12.7 0 22.4 7.8 27.8 20.7 6.8 16.2 14.1 32 21.2 48l20.5 47.2c4.4 10 9.4 19.7 12.8 30 2.8 8.4-2.6 19.9-10.8 23.7-13.2 6.2-25.8-1-31.4-15.1-2.2-5.7-4.8-11.2-7-17-.8-2-2-2.3-3.9-2.3h-58.4c-2.3 0-3.2.9-4.1 3.2a182.6 182.6 0 01-9.5 21.3c-7 13-23 17-34.5 5.2-4.8-5-6.4-15.6-3.5-22.3l31-70c8.7-19.5 17.5-39.1 26.5-58.6 4.7-10 13.8-13.2 23.3-14zm-.3 95h10c3.8.3 5-1.4 3.7-4.7-3.8-9.2-7.8-18.3-11.7-27.4-.8-2-2-3-3.2-.3-4 9.3-8 18.5-11.8 27.8-1.2 3 0 4.8 3.5 4.6h9.5zM3.3 1316.5c-1.4-7.6 3.7-14.5 6.9-21.8 10.8-25.2 22-50.3 33.1-75.3 5.7-12.7 11.1-25.6 17.3-38a25.7 25.7 0 0123.6-14.7c11-.3 19.9 4.7 24.7 14.5 6.9 14 12.9 28.4 19.2 42.6l23.3 52.6 15.2 34.4c2.6 5.8-.3 16.7-5.5 21.6a21.6 21.6 0 01-21.6 4.5c-8.9-3.1-12.5-10.3-15.9-18-2-4.5-3.7-9.1-5.6-13.7-1-2.6-3-3.6-5.9-3.6q-27.7.2-55.4 0c-3.7 0-5.2 1.6-6.4 4.8-3 7.5-5.8 15.2-10 22.1-7.6 12-26 14.3-35.3-.1-2.2-3.2-1.6-7-1.7-11.9zm80.8-54.9h11c3.1 0 4.5-.8 2.8-4.1-1.4-2.8-2.4-5.8-3.6-8.7l-7.6-18.3c-.5-1.2-1-2.5-2.6-2.6-1-.1-1.4.8-1.7 1.6-4 9.4-8 18.8-11.8 28.3-1 2.3-.4 3.9 2.6 3.8H84z" class="cls-3"/><path d="M1135.3 1074.3h43.4c14 0 23.1 12.3 19.5 25.5a19 19 0 01-18.7 14c-30.7.1-61.5 1.2-92.3-.5-17.3-1-25.3-18.2-16.6-33.4 3-5.1 7.4-8.5 11.8-12.1 16.9-14 34-27.8 50.7-41.9 5.3-4.4 10.2-9 14-15 5.3-8.6 5-20-.7-25.5s-17.5-5.9-25.7-1c-4.3 2.5-7.4 6.2-11 9.5-8.3 8-20.7 8.4-28.8 1a21 21 0 01-1.5-29.4c24.5-30 64.6-30.1 88.4-18.2 21.7 11 29.5 32 28 53-1.5 23.1-15.6 38.1-32.2 51.6-8.9 7.4-18 14.3-28.3 22.4zM1044.5 1028c0 21.6.2 43.3 0 64.9-.2 16.9-17 27.4-31.6 20-8.6-4.2-12.4-11.6-12.4-21v-99.4c0-6-.1-6.3-5.9-4.5-9 2.7-17.3 1.7-23.7-5.7a19.5 19.5 0 018.6-31.4 352 352 0 0134.5-9.8c17.6-4 31.5 7.1 30.8 25.5-1 20.4-.3 41-.3 61.4z" class="cls-2"/><path d="M1019.2 1252.8v63.9c-.2 11.9-7.4 19-18.5 21.4-9 2-20.6-5-23.7-14.3a20.4 20.4 0 01-.6-6.4v-98.9c0-5.7-.7-6.3-6-4-13.5 5.5-29.9-5.8-28-20.8 1.2-9 7-14.8 16.1-17.3 10.7-3 21.4-5.7 32-8.8 13.3-4 28.6 6.8 28.6 20.8q.1 32.1 0 64.4z" class="cls-3"/><path fill="#fefefe" d="M236.1 444.6c1-201 162.5-363.4 363.9-363.3 100 0 186.4 36.5 257 107.6a351 351 0 01105.8 255.8A351.3 351.3 0 01854 703.2 350.7 350.7 0 01599.3 808 363.7 363.7 0 01236 444.6zM430.3 400c0 7.2.1 14.3-.1 21.4-.2 6.2.2 12.4-1.3 18.4-1.2 4.5-3.8 7.5-8.6 7.7s-7.7-2.7-9-7.1a35.5 35.5 0 01-1.4-8.4c-.7-12.3.5-24.6 0-36.9-.5-18.3 2.5-36.5 3.6-54.7.5-7.6.7-15.3.5-23-.2-6.6-5.9-12.8-12.5-14.5-10-2.7-18 0-23.7 8-5.4 7.7-8 16.4-9.7 25.4-6.3 30.7-6.6 62-7.9 93.2a409.2 409.2 0 0013.9 120.8c11.4 44 29 85 61.7 118 24.3 24.7 50.6 46.2 82.7 59.9 30.4 13 62.3 17.5 95.2 17.5 21.5 0 42.8-1.2 63.9-5.7 37.5-8 66-28.9 87.7-60 13.2-19 24-39 27-62.5 1-8.7.3-17.2-3.4-25.3-4.5-9.6-12.3-14-22.7-14.1-10.3-.1-16.2 5.6-19.5 14.7l-5.1 13.5c-8.7 22-21.6 40.5-43.9 50.6A106.4 106.4 0 01640 664a78 78 0 01-45.6-20.4 102.5 102.5 0 01-27.6-50.5c-7.6-29-8.7-58.5-7.6-88.2.8-22.4 3.3-44.5 10.6-65.8 8.4-24.8 22.4-44.8 47.7-55a108 108 0 0149.6-6.2c28.1 2.1 50.5 14.4 65.2 39.2a139 139 0 019.6 20.7 21.4 21.4 0 0023 13.9c10.5-1.5 16-7.5 18-18.8 1.1-6 .4-12-.8-17.8a117 117 0 00-45-70.2 123.6 123.6 0 00-71.7-26.2c-15.5-.6-30.2 3.3-44.7 8.4-7.6 2.7-15.1 5.9-22.9 8.1-9.9 2.9-15.1-1.6-14.8-11.8a22.7 22.7 0 01.2-3 368.8 368.8 0 0139-118.9c3.8-7 7.7-14 10.1-21.6 5.6-17.7-4-34-22.2-38.2-14.7-3.4-25 3.5-34.3 13.3a165.4 165.4 0 00-28 44c-22.3 46.7-30 96.9-34.9 147.7-.8 8.2-1 16.6-3 24.7-.8 3.3-2.2 6.3-6 7.3-6.5 1.8-10.7-1.8-11-9.5-.5-16.7 1.8-33.2 2.6-49.8.4-8.3 1.5-16.6 2-24.9 1-14 4.6-27.8 6-41.8 1.2-13-4.1-24.3-14.2-28.9-11-5-22.4-1.9-31.6 8.7a64.3 64.3 0 00-10.7 17.9 201 201 0 00-13.3 65.4c-2 28-4.3 56-3.4 84.2zm265.5 126.2c-.1-18.4.2-31.7-1.1-45a156.4 156.4 0 00-6.6-36c-7.5-21.8-26.2-27.3-45-21.4-13.2 4.2-18 15.7-21.4 27.7-5 18.1-5.3 36.7-5.9 55.2a467 467 0 001.8 58.3c1.1 11.9 2.7 23.6 7.2 34.8 5 12.3 14 19.8 27.7 20.7 15.2 1.1 26.8-4.4 33.5-18.6a96.8 96.8 0 007.6-29.6 314.3 314.3 0 002.2-46z"/><path fill="#70418f" d="M430.3 400c-.9-28.1 1.5-56.1 3.3-84.2 1.5-22.5 4.5-44.5 13.3-65.4a64.3 64.3 0 0110.7-17.9c9.2-10.5 20.5-13.7 31.6-8.7 10 4.6 15.4 15.9 14.2 28.9-1.4 14-4.9 27.8-6 41.9-.5 8.2-1.6 16.5-2 24.8-.8 16.6-3 33.1-2.5 49.8.2 7.7 4.4 11.4 11 9.5 3.7-1 5-4 6-7.3 2-8.1 2.1-16.4 3-24.7 4.8-50.8 12.5-101 34.8-147.7 7.5-15.8 15.9-31.1 28-44 9.3-9.8 19.6-16.7 34.3-13.3 18.1 4.2 27.8 20.5 22.2 38.2-2.4 7.7-6.3 14.7-10 21.6a368.8 368.8 0 00-39 119 22.7 22.7 0 00-.3 3c-.3 10.2 5 14.6 14.8 11.7 7.8-2.2 15.3-5.4 23-8a119 119 0 0144.6-8.5c26.7 1 50.6 10.1 71.7 26.2a116.9 116.9 0 0145 70.2 46 46 0 01.8 17.8c-2 11.3-7.5 17.4-18 18.8a21.4 21.4 0 01-23-13.9 139 139 0 00-9.7-20.7c-14.6-24.8-37-37-65.1-39.2-16.9-1.3-33.7-.3-49.6 6.2-25.3 10.2-39.3 30.2-47.7 55A228.1 228.1 0 00559 505c-1.1 29.7 0 59.2 7.6 88.2 5 19 12.9 36.7 27.6 50.5A78 78 0 00640 664c19.8 2.4 39.2 1.3 57.7-7.1 22.3-10.1 35.2-28.6 43.8-50.6q2.7-6.7 5.1-13.5c3.3-9.2 9.3-14.8 19.5-14.7 10.4 0 18.3 4.5 22.7 14 3.8 8.2 4.5 16.7 3.4 25.4-3 23.4-13.7 43.4-27 62.4a139.4 139.4 0 01-87.7 60.1c-21 4.5-42.4 5.6-63.9 5.7-32.8 0-64.8-4.5-95.2-17.5-32-13.7-58.3-35.2-82.6-59.8-32.8-33.2-50.3-74-61.8-118a409.2 409.2 0 01-13.8-120.9c1.3-31.1 1.6-62.5 7.8-93.2 1.8-9 4.4-17.7 9.7-25.4 5.7-8 13.8-10.7 23.8-8 6.6 1.7 12.2 7.9 12.4 14.6.2 7.6 0 15.3-.4 23-1.2 18.2-4.2 36.3-3.6 54.6.4 12.3-.7 24.6 0 37a35.5 35.5 0 001.3 8.3c1.4 4.4 4.3 7.2 9 7s7.4-3.1 8.6-7.6c1.6-6 1.1-12.2 1.3-18.3.3-7.2.1-14.3.1-21.5z"/><path d="M695.8 526.2a314.3 314.3 0 01-2.2 46.2 96.8 96.8 0 01-7.6 29.5c-6.7 14.3-18.3 19.7-33.5 18.7-13.7-1-22.6-8.5-27.7-20.8a120.7 120.7 0 01-7.2-34.8 467 467 0 01-1.7-58.2c.6-18.6.9-37.2 5.9-55.2 3.3-12.1 8.1-23.6 21.3-27.8 18.8-5.9 37.5-.4 45 21.5 4 11.7 5.5 23.7 6.6 36 1.3 13.2 1 26.5 1 45z" class="cls-1"/></g></g></svg>