<svg xmlns="http://www.w3.org/2000/svg" viewBox="0 0 214.8 214.8"><path d="M163.4 59.5h-8V48a48.1 48.1 0 00-96 0v11.4h-8a23.4 23.4 0 00-23.3 23.3v108.7a23.4 23.4 0 0023.3 23.3h112a23.4 23.4 0 0023.3-23.3V82.8a23.4 23.4 0 00-23.3-23.3zM74.6 48a32.9 32.9 0 0165.6 0v11.4H74.6V48zm96.9 143.4c0 4.5-3.7 8.1-8.1 8.1h-112a8.1 8.1 0 01-8-8.1V82.8c0-4.5 3.6-8.1 8-8.1h8v10.7c-2.5 2-4 5.2-4 8.7a11.6 11.6 0 1019.2-8.7V74.7h65.6v10.7c-2.4 2-4 5.2-4 8.7a11.6 11.6 0 1019.3-8.7V74.7h7.9c4.4 0 8 3.6 8 8v108.8z"/></svg>