<svg xmlns="http://www.w3.org/2000/svg" viewBox="-32 0 512 512"><path d="M235.6 203.5v25.8c0 8.1 1.6 15 4.9 20.3a23 23 0 0020 11.6c8.1 0 16.2-4 24-11.7l85-85a48 48 0 000-67.7l-85-85C276.7 3.8 268.6 0 260.5 0c-12.4 0-24.9 9.9-24.9 32v23.4A252.6 252.6 0 00.1 276.4a15 15 0 0027 10.7 212.8 212.8 0 01208.5-83.6zM43.5 226.2A222.7 222.7 0 01250.6 84.9a15 15 0 0015-15V35.3l82.7 82.7c7 7 7 18.3 0 25.3l-82.7 82.6v-34.6c0-7-4.8-13-11.5-14.6a243 243 0 00-167.2 20.5c-15.4 8-30 17.8-43.4 29zm0 0"/><path d="M438.3 219.8a15 15 0 00-17.7 5.1 212.8 212.8 0 01-208.5 83.6v-25.8c0-22-12.5-32-24.8-32-8.2 0-16.2 4-24 11.8l-85 85a48 48 0 000 67.7l85 85c7.8 7.9 15.8 11.8 24 11.8 12.3 0 24.8-9.9 24.8-32v-23.4a252.5 252.5 0 00235.5-221 15 15 0 00-9.3-15.8zM197 427.1a15 15 0 00-15 15v34.6L99.5 394c-7-7-7-18.3 0-25.3l82.6-82.6v34.6c0 7 4.8 13 11.6 14.6a243.3 243.3 0 00167-20.5c15.5-8 30.1-17.8 43.6-29A222.7 222.7 0 01197 427.1zm0 0"/></svg>