<svg xmlns="http://www.w3.org/2000/svg" viewBox="0 0 512 512"><path d="M119.5 349.9a25.6 25.6 0 100 51.2 25.6 25.6 0 000-51.2zm0 34.1a8.5 8.5 0 110-17 8.5 8.5 0 010 17zM392.5 349.9a25.6 25.6 0 100 51.2 25.6 25.6 0 000-51.2zm0 34.1a8.5 8.5 0 110-17 8.5 8.5 0 010 17z"/><path d="M505.5 228.4l-58.8-66.2a25.6 25.6 0 00-19.2-8.6H350v-51.2a25.6 25.6 0 00-25.6-25.6H25.6A25.6 25.6 0 000 102.4v221.9a8.5 8.5 0 008.5 8.5h8.6v25.6A25.6 25.6 0 0042.7 384h17.7a59.7 59.7 0 00118.1 0h155a59.7 59.7 0 00118 0h34.9a25.6 25.6 0 0025.6-25.6v-113c0-6.3-2.3-12.3-6.5-17zM17.1 315.7V102.4c0-4.7 3.8-8.5 8.5-8.5h298.7c4.7 0 8.5 3.8 8.5 8.5v213.3H17.1zM60.4 367H42.7a8.5 8.5 0 01-8.6-8.5v-25.6h43.6a59.6 59.6 0 00-17.3 34.1zm59 51.2a42.7 42.7 0 110-85.3 42.7 42.7 0 010 85.3zm85.4-51.2h-26.3c-1.8-13-8-25-17.3-34.1h43.6v34.1zm76.8 0h-59.7v-34.1h59.7v34.1zm51.9 0h-34.8v-34.1h52.1a59.6 59.6 0 00-17.3 34.1zm59 51.2a42.7 42.7 0 110-85.3 42.7 42.7 0 010 85.3zM495 358.4c0 4.7-3.8 8.5-8.5 8.5h-34.8a59.8 59.8 0 00-59-51.2h-42.7v-145H384V256a25.6 25.6 0 0025.6 25.6h85.3v76.8zm0-93.9h-85.3a8.5 8.5 0 01-8.5-8.5v-85.3h26.4c2.5 0 4.8 1 6.4 2.8l58.8 66.2a8.6 8.6 0 012.2 5.7v19.1z"/></svg>