<svg xmlns="http://www.w3.org/2000/svg" viewBox="0 0 470.38 470.4"><defs><style>.cls-2{fill:#fff}</style></defs><g id="Capa_2" data-name="Capa 2"><g id="Capa_1-2" data-name="Capa 1"><path fill="#7300ff" d="M0 53v174.3a53.39 53.39 0 0015.53 37.46l190.14 190.13a53 53 0 0075 0l174.22-174.27a53.08 53.08 0 000-75L264.75 15.53A53.41 53.41 0 00227.28 0H53A53.08 53.08 0 000 53zm37.35 27A42.67 42.67 0 1180 122.67 42.72 42.72 0 0137.35 80z"/><path id="Shape" d="M29.26 226.34a3.7 3.7 0 00-.06-5.11 3.94 3.94 0 00-5.24-.34l-5.61 5.16a3.75 3.75 0 001.1 6.2 3.91 3.91 0 004.24-.71z" class="cls-2"/><path id="Shape-2" d="M79 170.07a3.5 3.5 0 001 6 3.94 3.94 0 004.21-.68l11.14-10.06a3.71 3.71 0 00.14-5.34 3.94 3.94 0 00-5.48-.14L79 170.07z" class="cls-2" data-name="Shape"/><path id="Shape-3" d="M73.42 180.28a3.93 3.93 0 00-5.44-.14L57 190.32a3.71 3.71 0 00-1.24 2.68 3.77 3.77 0 002.29 3.56 3.93 3.93 0 004.24-.72l11-10.21a3.7 3.7 0 00.13-5.31z" class="cls-2" data-name="Shape"/><path id="Shape-4" d="M101 149.56a3.75 3.75 0 001.1 6.2 3.91 3.91 0 004.24-.71l11-10.33a3.71 3.71 0 00-.41-4.69 3.93 3.93 0 00-4.78-.64L101 149.56z" class="cls-2" data-name="Shape"/><path id="Shape-5" d="M123 129.21a3.52 3.52 0 001.1 5.93 3.94 3.94 0 004.21-.68l11-10.17a3.74 3.74 0 001.1-3.63 3.85 3.85 0 00-2.67-2.74 4 4 0 00-3.77.88l-11 10.41z" class="cls-2" data-name="Shape"/><path id="Shape-6" d="M52.39 202.36a3.81 3.81 0 00-2.67-2.74 3.91 3.91 0 00-3.76.88L35 210.71a3.7 3.7 0 00.07 5.12 3.93 3.93 0 005.23.33l11-10.18a3.69 3.69 0 001.09-3.62z" class="cls-2" data-name="Shape"/><path id="Shape-7" d="M161.33 104.08a3.69 3.69 0 00-.07-5.11 3.92 3.92 0 00-5.23-.34l-11 10.18a3.7 3.7 0 00-1.09 3.62 3.83 3.83 0 002.66 2.75 4 4 0 003.77-.88l11-10.22z" class="cls-2" data-name="Shape"/><path id="Shape-8" d="M177.94 88.74a3.73 3.73 0 001.1-3.62 3.86 3.86 0 00-2.67-2.75 4 4 0 00-3.77.88l-5.6 5.2a3.7 3.7 0 00.07 5.12 3.93 3.93 0 005.23.33l5.62-5.16z" class="cls-2" data-name="Shape"/><path id="Shape-9" d="M227.85 32.23a3.5 3.5 0 001 6 3.94 3.94 0 004.21-.68l11.12-10.05a3.71 3.71 0 00.14-5.34 4 4 0 00-5.48-.15l-11 10.22z" class="cls-2" data-name="Shape"/><path id="Shape-10" d="M222.29 42.44a3.91 3.91 0 00-5.43-.14l-11 10.18a3.71 3.71 0 00-1.19 2.64 3.77 3.77 0 002.29 3.56 3.93 3.93 0 004.24-.72l11-10.22a3.69 3.69 0 00.13-5.3z" class="cls-2" data-name="Shape"/><path id="Shape-11" d="M201.26 64.52a3.83 3.83 0 00-2.67-2.75 4 4 0 00-3.76.88l-11 10.22a3.69 3.69 0 00.07 5.13 3.92 3.92 0 005.23.34l11-10.18a3.69 3.69 0 001.13-3.64z" class="cls-2" data-name="Shape"/><text fill="#fff" font-family="Couture-Bold,Couture" font-size="155.37" font-weight="700" transform="translate(87.91 289.34)">12<tspan x="134.24" y="0" font-size="77.69" letter-spacing=".03em">y</tspan><tspan x="188.62" y="0">18</tspan></text><text fill="#fff" font-family="Couture-Bold,Couture" font-size="48.37" font-weight="700" letter-spacing=".3em" transform="translate(107.03 336.84)">Cuotas</text></g></g></svg>