<svg xmlns="http://www.w3.org/2000/svg" viewBox="0 0 502.4 502.4"><defs/><defs><style>.cls-2{fill:#fff}</style></defs><g id="Capa_2" data-name="Capa 2"><g id="Capa_1-2" data-name="Capa 1"><path fill="#7300ff" d="M0 56.6v186.1a57 57 0 0016.6 40l203 203.1a56.6 56.6 0 0080 0l186.2-186.1a56.7 56.7 0 000-80l-203-203.1a57 57 0 00-40-16.6H56.5A56.7 56.7 0 000 56.6zm39.9 28.8A45.6 45.6 0 1185.5 131a45.6 45.6 0 01-45.6-45.6z"/><path d="M121.4 163v117.4H98.2v-93.8H80.4v-15zM134 257.5c4-6.4 17-16.5 27-24 21.3-15.4 29.7-21.2 29.7-34.6 0-8-5.1-16.8-16.2-16.8-16.5 0-17 13.5-17 22H135c0-38.4 28-41.6 38.5-41.6 22.6 0 40.5 13.5 40.5 37.2 0 20.7-13 30.4-24.6 38.3-15.6 11.2-23.5 16.3-26.3 21.8h51v20.6H134zM239.9 257.3L218 221h14.7l13.9 23.4 13.8-23.4h14.5l-22 36.5v22.8h-13zM322.8 163v117.4h-23.2v-93.8h-17.8v-15zM377 283.5c-30.6 0-40.9-19.7-40.9-35.8 0-5.8 0-21.6 18-29.9a23.7 23.7 0 01-14.3-23c0-20 16-32.3 36.6-32.3 24.4 0 37.4 14.3 37.4 30.7 0 10.2-4.2 18.6-13.6 23.8 11.3 5.8 17.6 13 17.6 28.3 0 15-9.7 38.2-40.9 38.2zm-.4-55.6c-8.5 0-16.6 5.7-16.6 18.3 0 11.3 6.5 18.7 17.1 18.7 12.1 0 16.8-10.4 16.8-18.6 0-8.3-4.5-18.4-17.3-18.4zm15-32.2c0-9.3-6.2-14.6-13.7-14.6-10.6 0-15.9 6-15.9 14.6 0 7 5.2 14.6 15.1 14.6 9.3 0 14.4-6.1 14.4-14.6zM116.2 331.2a18.7 18.7 0 1116.2-27.9c-3.2 1.7-3.4 1.9-7 3.6a10.8 10.8 0 00-9.3-5.4 11 11 0 000 22 10.8 10.8 0 009.7-5.8c3.5 1.8 3.6 2 6.9 3.5a18.5 18.5 0 01-16.5 10zM184.5 317.1c0 10-5.9 14.9-15.8 14.9S153 327.2 153 317v-22.9h8.1v23c0 4 1 8 7.6 8 5.8 0 7.7-2.5 7.7-8v-23h8zM223.3 331.6a19 19 0 1119.1-19.1 19 19 0 01-19.1 19zM212 312.4a11.2 11.2 0 1011.3-11.3 11.4 11.4 0 00-11.3 11.3zM272 301h-11.8v-6.8h31.5v6.9H280v30H272zM308.3 331l16.8-36.8h8.1l16.5 36.9h-7.8l-3.7-8.2h-18.6l-3.9 8.2zm21-29.8l-6.3 14.2h12.3l-6-14.2zM374.6 320.1c.8 4.9 5.1 5.6 8.1 5.6s7.2-.9 7.2-4.6c0-7.9-22-2.8-22-16.6 0-7.6 7.2-11.2 13.8-11.2 7.7 0 14.8 3.4 14.8 11.9l-7.8-1.1c-1-4.3-4.8-4.5-7.3-4.5s-5.6 1.1-5.6 4.2c0 2.7 1.7 3.4 11 5.6 2.7.7 11 2.4 11 10.7 0 6.8-5.3 11.9-15.4 11.9-8.3 0-15.7-4-15.7-13.2z" class="cls-2"/></g></g></svg>