<svg xmlns="http://www.w3.org/2000/svg" viewBox="0 0 512 512"><path d="M475 246h-74V10a10 10 0 00-17-7l-28.4 28.3-28.3-28.4A10 10 0 00313 3l-28.3 28.4-28.3-28.4a10 10 0 00-14.2 0L214 31.3 185.7 2.9a10 10 0 00-14.2 0l-28.3 28.4-28.3-28.4a10 10 0 00-14.2 0L72.4 31.3 44 2.9a10 10 0 00-17 7.4V460a52 52 0 0052 52H433a52 52 0 0052-52V256a10 10 0 00-10-10zM79 492a32 32 0 01-32-32V34.2l18.3 18.3a10 10 0 0014.2 0L107.8 24 136 52.5a10 10 0 0014.2 0L178.6 24l28.3 28.4a10 10 0 0014.2 0L249.4 24l28.3 28.4a10 10 0 0014.2 0L320.2 24l28.3 28.4a10 10 0 0014.2 0L381 34V460c0 12 4.1 23.2 11 32H79zm386-32a32 32 0 01-64 0V266h64v194z"/><path d="M214 158.9c-10 0-18-7-18-15.5s8-15.4 18-15.4 18 7 18 15.4a10 10 0 1020 0 36 36 0 00-28-34.1v-6.8a10 10 0 10-20 0v6.8a36 36 0 00-28 34.1c0 19.6 17 35.5 38 35.5 10 0 18 6.9 18 15.4s-8 15.4-18 15.4-18-7-18-15.4a10 10 0 10-20 0 36 36 0 0028 34.1v8.2a10 10 0 1020 0v-8.2a36 36 0 0028-34.1c0-19.6-17-35.4-38-35.4zM314.5 158.9H295a10 10 0 100 20h19.5a10 10 0 100-20zM133 158.9h-19.5a10 10 0 100 20H133a10 10 0 100-20zM319.5 270H161.1a10 10 0 100 20h158.4a10 10 0 100-20zM115.5 273a10 10 0 00-14.1 0 10 10 0 000 14 10 10 0 0014.1 0 10 10 0 000-14zM319.5 336H161.1a10 10 0 100 20h158.4a10 10 0 100-20zM115.5 339a10 10 0 00-14.1 0 10 10 0 000 14 10 10 0 0014.1 0 10 10 0 000-14zM319.5 402H161.1a10 10 0 100 20h158.4a10 10 0 100-20zM115.5 405a10 10 0 00-14.1 0 10 10 0 000 14 10 10 0 0014.1 0 10 10 0 000-14z"/></svg>