<svg xmlns="http://www.w3.org/2000/svg" data-name="Layer 1" viewBox="0 0 512 512"><path d="M312.9 250.1l17.5-17.5a6 6 0 000-8.5l-5.2-5.3 110-110L463 99a6 6 0 003.2-2.6l33-56.6a6 6 0 00-.9-7.2l-18.8-18.8a6 6 0 00-7.2-1l-56.6 33.1a6 6 0 00-2.6 3.2l-10 27.8-109.9 110-5.3-5.2a6 6 0 00-8.5 0L262 199l-34.4-34.3A115.7 115.7 0 0084 11a6 6 0 00-2.3 9.9L123.7 63l-10 50-52 9.3-40.7-41a6 6 0 00-10 2.3 115.7 115.7 0 00153.8 143.8l20.4 20.5-22.7 12.4a6 6 0 00-1.3 1L25.7 397a47 47 0 000 66.3l23 23.1a47 47 0 0066.4 0l135.5-135.5a6 6 0 001-1.3l12.4-22.7L431.3 494a44.4 44.4 0 1062.7-62.8zm-11.4 34a10.6 10.6 0 01-15 0l-58.7-58.6a10.6 10.6 0 0115-15l58.7 58.7a10.6 10.6 0 010 15zM412.6 84.5A6 6 0 00414 82l9.6-27 50.7-29.7 12.3 12.3-29.7 50.7-27 9.6a6 6 0 00-2.3 1.4l-111 111-15-15zm-129 109.9l34.1 34-20 20-34-34zm-113.2 21.9a6 6 0 00-6.7-1.3 104.1 104.1 0 01-116.3-21 103 103 0 01-27.7-96.8l35.7 36a6 6 0 005.3 1.6l59.1-10.4a6 6 0 004.9-4.8L136 62.3a6 6 0 00-1.6-5.4L97.3 19.6a103.7 103.7 0 01117.7 144 6 6 0 001.2 6.8l26 26a22.6 22.6 0 00-26.6 10.5l-10.7-10.6a6 6 0 10-8.4 8.5l16.5 16.5a22.5 22.5 0 003.7 9.5L196.2 242zM241.5 343L106.6 477.9a35 35 0 01-49.3 0L34 454.7a35 35 0 010-49.3l135-134.9 56-30.7 47.1 47zm244 142.5a32.4 32.4 0 01-45.8 0L270 315.8l11.3-20.5a22.6 22.6 0 009.5 3.8l.3.3L423 431.2a6 6 0 008.5-8.5L305 296.4a22.5 22.5 0 0010.4-26.7l170 170a32.4 32.4 0 010 45.8z"/><path d="M197.3 139.7a6 6 0 006-5.6 92.8 92.8 0 00-4.4-36.3 6 6 0 10-11.4 3.8 80.8 80.8 0 013.8 31.6 6 6 0 005.5 6.5h.5zM188.7 76.7a92.7 92.7 0 00-5.7-7.9 6 6 0 10-9.3 7.6 80.8 80.8 0 015 6.8 6 6 0 1010-6.5zM185.3 344L89.5 440a6 6 0 008.5 8.5l95.8-95.9a6 6 0 00-8.5-8.5zM168 318.2a6 6 0 00-8.5 0L63.6 414a6 6 0 008.5 8.5l95.9-95.8a6 6 0 000-8.5z"/></svg>