<svg version="1.1" id="OBJECTS" xmlns="http://www.w3.org/2000/svg" x="0" y="0" viewBox="0 0 500 500" xml:space="preserve"><style>.st2{fill:#999}</style><path d="M495.2 94.4H114.8l1-22.2H474c12 0 21.8 10.1 21.2 22.2z" fill="red"/><path d="M495.2 94.4l-14 321.2a22 22 0 01-22 21H98.6l16.2-342.2h380.4z"/><path d="M473.8 412.5l.6 7.3c.7 9.1-6.5 16.9-15.7 16.9h-360L9.8 412.5h464z" opacity=".5"/><path class="st2" d="M381 192.1a61.8 61.8 0 10-110 56.4A61.8 61.8 0 00381 192zM315 226a12.4 12.4 0 1122-11.2 12.4 12.4 0 01-22 11.2zm31-1c.6-2.3.7-4.5.5-6.7 12 1 23.6-4.4 30.5-14.3 3.2 10.1 3.4 21 .4 31.2a25 25 0 01-31.3-10.3zm-2.6-15.6a20.2 20.2 0 00-4.4-5 33.4 33.4 0 0011.5-31.6 53.2 53.2 0 0122.3 21.6 25 25 0 01-29.4 15zm-28.4-6.4a20.2 20.2 0 00-5 4.4 33.4 33.4 0 00-31.6-11.5 53.2 53.2 0 0121.6-22.3 25 25 0 0115 29.4zm-9.1 12.9c-.5 2.2-.6 4.4-.4 6.6a33.3 33.3 0 00-30.5 14.3 53.5 53.5 0 01-.5-31.2 25 25 0 0131.4 10.3zm2.7 15.5c1.2 2 2.7 3.6 4.4 5a33.4 33.4 0 00-11.5 31.6 53.2 53.2 0 01-22.4-21.6 25 25 0 0129.5-15zm28.4 6.4c1.9-1.2 3.6-2.7 5-4.4a33.4 33.4 0 0031.6 11.5A53.2 53.2 0 01352 267a25 25 0 01-15-29.4zm3.8-68.8c4.9 11.5.5 25-10.3 31.3-2.2-.5-4.4-.6-6.7-.4 1.2-12-4.3-23.6-14.2-30.5 10.1-3.2 21-3.4 31.2-.5zm-29.6 102.9a25 25 0 0110.3-31.4c2.1.5 4.4.6 6.6.4a33.3 33.3 0 0014.3 30.5 53.3 53.3 0 01-31.2.5zm0 0"/><path class="st2" d="M287 388.4L272 359l7.4-3.7 13.1 25.6c1 2 3.5 2.9 5.6 1.8l29.3-15c2-1 2.8-3.5 1.8-5.5l-5.6-11 7.3-3.8 5.6 11c1 2 3.5 2.8 5.6 1.8l58.6-30c2-1.1 2.9-3.6 1.8-5.6l-3.7-7.3a4.1 4.1 0 017.3-3.8l3.8 7.3c1 2 3.5 2.9 5.5 1.8l18.4-9.4a12.4 12.4 0 10-11.3-22l-3.8-7.3 11-5.6c1-.5 1.8-1.4 2-2.4l10.8-33.3c.4-1 .3-2.2-.2-3.1L387.8 133c-.5-1-1.4-1.7-2.4-2l-33.3-10.8c-1-.3-2.1-.2-3.1.3l-190.7 97.6c-2 1-2.8 3.6-1.8 5.6l15 29.3c1 2 3.5 2.9 5.6 1.8l11-5.6 18.8 36.7-7.4 3.7 3.8 7.3 7.3-3.7 3.8 7.3-11 5.6c-2 1-2.9 3.6-1.8 5.6l15 29.3c1 2 3.5 2.9 5.6 1.8l11-5.6 3.7 7.3-7.3 3.8 3.7 7.3 7.4-3.8 24.4 47.7c1 2 3.5 2.8 5.5 1.8l14.7-7.5c2-1 2.8-3.5 1.8-5.5zm-24.4-47.7l154-78.9 5.7 11-154 78.9-5.7-11zm-54.4-138.8l31.6 10.2c1 .4 2.2.3 3.2-.2l5.5-2.9a78.1 78.1 0 0041.4 80.7l-5.6 2.9c-1 .5-1.7 1.3-2 2.4L272 326.6l-13.1 6.7-63.8-124.6 13.1-6.8zm74.2 119.4l7.2-22.2 10-5.1a79 79 0 0027.2 4.6l-44.4 22.7zm-18.8-69a70.1 70.1 0 01124.7-64 70.1 70.1 0 01-124.7 64zM417 298.6c1 2 3.5 2.8 5.6 1.8l3.6-2a4.1 4.1 0 013.8 7.4l-14.7 7.5-1.9-3.6a12.4 12.4 0 10-22 11.2l2 3.7-7.4 3.8-7.5-14.7-7.3 3.8 7.5 14.6-7.4 3.8-7.5-14.7-7.3 3.8 7.5 14.6-7.3 3.8-7.5-14.7-7.4 3.8 7.5 14.7-7.3 3.7-5.6-11c-1-2-3.5-2.8-5.6-1.8l-14.6 7.5c-2 1-2.9 3.6-1.8 5.6l5.6 11-7.3 3.7-5.7-11-7.3 3.8 5.6 11-7.3 3.8-11.3-22 124.7-63.9 5.6 11zm10-34.8l-4.1-8 7.2-22.2 4 8-7.1 22.2zm-75.8-135.2l30 9.7 43.6 85-9.7 30-26.1 13.3A78.2 78.2 0 00325.2 142l26-13.3zm-100.4 70l-10 5-22.2-7 44.4-22.8a78.6 78.6 0 00-12.2 24.7zm-73.8 47l-11.3-22 7.3-3.8 11.3 22-7.3 3.8zm45 88l-11.2-22 7.3-3.8 11.3 22-7.4 3.8zm48.5 58.5l-90.1-176 7.3-3.8 90.1 176-7.3 3.8zm0 0"/><path transform="rotate(-27.1 241.6 263.5)" class="st2" d="M233.4 259.4h16.5v8.2h-16.5z"/></svg>