<svg xmlns="http://www.w3.org/2000/svg" viewBox="0 0 272.9 85"><defs><style>.cls-1{fill:#fff}.cls-2{fill:#0f0}</style></defs><g id="Capa_2" data-name="Capa 2"><g id="Capa_1-2" data-name="Capa 1"><path class="cls-1" d="M1 43.3V11.4h6.6v31.9zM29.6 43.3L16 21.9v21.4H9.8V11.4h7L29.5 32V11.4h6.2v31.9zM38 43.3V11.4h6.6v31.9zM74.8 32.4a17.9 17.9 0 01-1.7 4.9 13 13 0 01-2.9 3.8 12.4 12.4 0 01-4 2.4 14.3 14.3 0 01-5.1.9 16 16 0 01-5.8-1 12.4 12.4 0 01-4.7-3.2 14.9 14.9 0 01-3.1-5.2 21.2 21.2 0 01-1.2-7.3 24.1 24.1 0 011-7.2 15.5 15.5 0 013-5.5 12.8 12.8 0 014.7-3.4 15.3 15.3 0 016.2-1.2 15.6 15.6 0 015.4.9 13 13 0 014.1 2.4 11.8 11.8 0 012.8 3.7 13 13 0 011.3 4.5H68a7.5 7.5 0 00-2.5-4.3A7.4 7.4 0 0055 19.1q-2 3-2 8.3t2 8.2a6.5 6.5 0 005.8 3 6.9 6.9 0 004.8-1.6 8.4 8.4 0 002.4-4.6zM76 43.3V11.4h6.6v31.9zM106.9 43.3l-2-6.6H93l-2.3 6.6h-7l11.4-31.9h7.7L114 43.3zM99 18.6l-4.2 12.6h8.1zM145.3 20.8a5 5 0 00-1.8-3.6 7.4 7.4 0 00-4.6-1.2q-5.7 0-5.7 3.9a2.9 2.9 0 001.2 2.3 10 10 0 003.8 1.6l5.3 1.3a32 32 0 014.1 1.4 10.3 10.3 0 012 1.1 6 6 0 011.6 1.6 8.3 8.3 0 011 2.3 12 12 0 01.4 3.3 8.5 8.5 0 01-1 4 9.2 9.2 0 01-2.6 3 12 12 0 01-3.8 2 16.5 16.5 0 01-4.7.6q-7 0-10.5-2.7t-3.6-8h6.4a4.7 4.7 0 002 3.9 8 8 0 004.9 1.4 8.3 8.3 0 004.8-1.1 3.6 3.6 0 001.6-3.2 5 5 0 00-.2-1.4 2.6 2.6 0 00-.7-1.2 5 5 0 00-1.5-.9 14.4 14.4 0 00-2.5-.7c-2.4-.5-4.5-1-6.3-1.6a15.9 15.9 0 01-4.4-2 7.4 7.4 0 01-2.6-2.9 9.8 9.8 0 01-.8-4.2 9.5 9.5 0 01.8-3.7 7.8 7.8 0 012.2-3 11 11 0 013.6-2 16.2 16.2 0 015.2-.8 17 17 0 015.2.8 11.9 11.9 0 014 2 9.5 9.5 0 012.5 3.4 11 11 0 011 4.3zM154 43.3V11.4h23.4V17h-17v6.8H176v5.6h-15.6v8.2h17.7v5.7zM197.3 20.8a5 5 0 00-1.7-3.6A7.4 7.4 0 00191 16q-5.7 0-5.7 3.9a2.9 2.9 0 001.2 2.3 10 10 0 003.8 1.6l5.3 1.3a32.6 32.6 0 014.1 1.5 11 11 0 012 1 6 6 0 011.6 1.6 8.3 8.3 0 011 2.4 12.3 12.3 0 01.4 3.2 8.5 8.5 0 01-1 4.1 9.3 9.3 0 01-2.6 3 12 12 0 01-3.8 1.9 16.6 16.6 0 01-4.7.6q-7 0-10.4-2.7t-3.7-8h6.4a4.7 4.7 0 002 3.9 8 8 0 004.9 1.4 8.3 8.3 0 004.8-1.1 3.6 3.6 0 001.6-3.2 5 5 0 00-.2-1.4 2.7 2.7 0 00-.7-1.2 5 5 0 00-1.5-.9 14.3 14.3 0 00-2.5-.7 68 68 0 01-6.4-1.6 16 16 0 01-4.3-2 7.3 7.3 0 01-2.6-2.8 9.7 9.7 0 01-.8-4.3 9.5 9.5 0 01.7-3.7 7.9 7.9 0 012.2-3 11.2 11.2 0 013.7-2 16.3 16.3 0 015.1-.7 17 17 0 015.2.7 12 12 0 014 2.1 9.4 9.4 0 012.5 3.4 11 11 0 011 4.2zM206 43.3V11.4h6.8v31.9zM229.8 44.4q-7.4 0-11.3-4.3t-4-12.5a24 24 0 011-7.2 14.8 14.8 0 013-5.5 13 13 0 014.8-3.4 18.7 18.7 0 0113 0A12.4 12.4 0 01241 15a15.6 15.6 0 013 5.5 24.7 24.7 0 011 7.3q0 8.3-4 12.4t-11.3 4.2zm0-5.7a8.9 8.9 0 003.4-.7 7.5 7.5 0 002.8-2 9.5 9.5 0 001.8-3.4 16.2 16.2 0 00.7-4.9q0-5.7-2.2-8.6a7.6 7.6 0 00-6.5-2.9 7.7 7.7 0 00-6.4 3Q221 22 221 27.6t2.3 8.3a8.1 8.1 0 006.4 2.7zm-3.2-30.3l-1.5-2.6 10-5.8 2.2 4zM266.7 43.3l-13.6-21.4v21.4h-6.2V11.4h7L266.6 32V11.4h6.2v31.9z"/><path class="cls-2" d="M20.4 83.8v-9a4.8 4.8 0 00-1.2-3.6c-.8-.7-2.2-1-4.3-1H7v13.6H0V49h17.7a12 12 0 014.4.8 10.3 10.3 0 013.4 2 8.9 8.9 0 012.2 3.3 10.6 10.6 0 01.8 4 9.4 9.4 0 01-1.4 5 7.3 7.3 0 01-3.9 3 5.8 5.8 0 013.3 2.3 8.6 8.6 0 011 4.6v10zM7 55v9.3h9.2c2 0 3.3-.4 4.1-1.3a4.7 4.7 0 001.2-3.3 4.8 4.8 0 00-1.2-3.4 5 5 0 00-3.9-1.3zM30.1 83.8V49h25.7V55H37.2v7.5h17.1v6.1h-17v9h19.4v6.2zM83.9 83.8l-.2-3.4a8.3 8.3 0 01-4 3.4 15.8 15.8 0 01-6.4 1.3 13.7 13.7 0 01-6.5-1.6 15.8 15.8 0 01-5-4.2 18.7 18.7 0 01-3.2-6 22.4 22.4 0 01-1.1-7 23 23 0 011.1-7.2 17 17 0 013.3-6 15 15 0 015.3-4 18 18 0 017.5-1.4 18.3 18.3 0 015.8 1 15.4 15.4 0 014.7 2.4 12.5 12.5 0 013.3 3.8 11.5 11.5 0 011.4 4.8h-7.4a5.5 5.5 0 00-.8-2.3 7 7 0 00-1.7-1.9 8.7 8.7 0 00-2.4-1.2 9 9 0 00-3-.5 8.6 8.6 0 00-7 3.3Q65 60.4 65 66.6a17.6 17.6 0 00.5 4.4 12.5 12.5 0 001.7 4 9.5 9.5 0 003 2.8 8.4 8.4 0 004.4 1.1 8.8 8.8 0 003.3-.6 8.7 8.7 0 002.7-1.7 8.2 8.2 0 001.9-2.6 7.3 7.3 0 00.6-3h-7.7v-6H90v18.8zM96.5 83.8V49h7.3v35zM126 59.2a5.5 5.5 0 00-2-4 8 8 0 00-5-1.3q-6.2 0-6.2 4.3a3.1 3.1 0 001.3 2.5 11 11 0 004.1 1.7L124 64a34.2 34.2 0 014.6 1.6 11.2 11.2 0 012.2 1.2 6.8 6.8 0 011.7 1.7 9 9 0 011.1 2.6 13.2 13.2 0 01.4 3.6 9.3 9.3 0 01-1 4.4 10.3 10.3 0 01-2.8 3.3 13.4 13.4 0 01-4.2 2 18.2 18.2 0 01-5.1.7q-7.7 0-11.5-3t-4-8.7h7a5 5 0 002.2 4.2 8.8 8.8 0 005.3 1.6 9.1 9.1 0 005.3-1.3 4 4 0 001.8-3.4 5.5 5.5 0 00-.3-1.6 3 3 0 00-.8-1.3 5.5 5.5 0 00-1.6-1 16 16 0 00-2.8-.8c-2.6-.5-5-1.1-6.9-1.7a17.4 17.4 0 01-4.8-2.1 8.1 8.1 0 01-2.8-3.1 10.8 10.8 0 01-.9-4.7 10.4 10.4 0 01.8-4 8.6 8.6 0 012.4-3.3 12 12 0 014-2.2 17.4 17.4 0 015.7-.8 18.3 18.3 0 015.7.8A13 13 0 01129 51a10.4 10.4 0 012.8 3.6 12 12 0 011.1 4.7zM143.4 83.8V55H133v-6.1h28.4V55h-10.5v28.8zM183.2 83.8v-9a4.8 4.8 0 00-1.2-3.6c-.8-.7-2.2-1-4.3-1h-7.8v13.6h-7.1V49h17.7a12 12 0 014.4.8 10 10 0 013.4 2 9 9 0 012.2 3.3 10.6 10.6 0 01.8 4 9.4 9.4 0 01-1.4 5 7.2 7.2 0 01-3.9 3 5.8 5.8 0 013.3 2.3 8.6 8.6 0 011 4.6v10zM169.9 55v9.3h9.2c2 0 3.3-.4 4.1-1.3a4.7 4.7 0 001.2-3.3 4.8 4.8 0 00-1.2-3.4 5 5 0 00-3.9-1.3zM217.2 83.8l-2.2-7.2h-12.9l-2.5 7.2H192L204.4 49h8.4l12.3 35zm-8.7-27L204 70.5h8.9zM227 83.8V55h-10.5v-6.1h28.4V55h-10.6v28.8zM246.3 83.8V49H272V55h-18.6v7.5h17.1v6.1h-17v9h19.3v6.2z"/></g></g></svg>