<svg xmlns="http://www.w3.org/2000/svg" viewBox="0 0 388 388"><path d="M0 0v388h388V0zm364 364H24V24h340zm0 0"/><path d="M256.4 68H131.6C96.6 68 68 96.6 68 131.6v124.8c0 35.1 28.5 63.6 63.6 63.6h124.8c35 0 63.6-28.5 63.6-63.6V131.6c0-35-28.5-63.6-63.6-63.6zm36.2 188.4c0 20-16.2 36.2-36.2 36.2H131.6c-20 0-36.2-16.2-36.2-36.2V131.6c0-20 16.3-36.1 36.2-36.1h124.8c20 0 36.2 16.2 36.2 36.1zm0 0"/><path d="M261 142.5a15.4 15.4 0 110-30.7 15.4 15.4 0 010 30.7zm0 0M194 129.1a65 65 0 10.1 130 65 65 0 00-.1-130zm0 102.4a37.5 37.5 0 11.1-75 37.5 37.5 0 01-.1 75zm0 0"/></svg>