<svg xmlns="http://www.w3.org/2000/svg" viewBox="0 0 470 470"><path d="M408 63.5H62a7.5 7.5 0 00-7.4 7.5v47.7c0 4.1 3.4 7.5 7.5 7.5h345.8c4.2 0 7.5-3.4 7.5-7.5V71c0-4.1-3.3-7.5-7.5-7.5zm-7.6 47.7H69.6V78.5h330.8v32.7z"/><path d="M469.5 212.1L443 141.4V46.9c0-4-3.3-7.5-7.5-7.5h-401A7.5 7.5 0 0027 47v94.5L.5 212.1a7.5 7.5 0 007 10.2H27v193.3H16a7.5 7.5 0 100 15h438a7.5 7.5 0 100-15h-11V222.3h19.5a7.5 7.5 0 007-10.2zM42 54.4h386v80.9H42V54.4zm49.7 95.9l-14.2 57H55.6l17.8-57h18.3zm15.5 0h18.5l-10.7 57H93l14.2-57zm33.8 0h18.7l-7.1 57h-22.3l10.7-57zm33.8 0h18.8l-3.6 57h-22.3l7-57zm33.8 0h19v57H205l3.5-57zm34 0h18.8l3.5 57h-22.4v-57zm37.4 57l-3.6-57h18.8l7.1 57H280zm37.5 0l-7.2-57H329l10.7 57h-22.2zm37.5 0l-10.7-57h18.5l14.3 57H355zm37.5 0l-14.2-57h18.3l17.8 57h-21.9zm-352.8-57h18l-17.8 57H18.3l21.4-57zm283.1 175.2h53v52.6h-53v-52.6zm0 67.6h53v22.5h-53V393zm-15.7-103.7l8.4-26h67.7l8.3 26H307zm68.7 15v6.1h-53v-6h53zM428 415.6h-37.2V304.4h11a7.5 7.5 0 007-9.7l-13-41.1a7.5 7.5 0 00-7.2-5.2H310a7.5 7.5 0 00-7.2 5.2l-13 41a7.5 7.5 0 007 9.8h11v111.2H42V222.3h386v193.3zm2.1-208.3l-17.8-57h18l21.4 57H430z"/><path d="M66.6 304.4h9v79c0 4.1 3.4 7.5 7.6 7.5h163c4 0 7.4-3.4 7.4-7.5v-79h9a7.5 7.5 0 007.2-9.7l-13.1-41.1a7.5 7.5 0 00-7.2-5.2H79.8a7.5 7.5 0 00-7.2 5.2l-13.1 41a7.5 7.5 0 007.1 9.8zm172 71.5h-148v-71.5h148V376zM85.2 263.4h158.9l8.3 26H76.9l8.3-26z"/></svg>