<svg xmlns="http://www.w3.org/2000/svg" viewBox="0 0 3769.3 817.5"><defs><style>.cls-1{fill:#0df700}</style></defs><path d="M1197.6 628.1h9.3v5.8h-173.4v-5.2h8.6a24.3 24.3 0 0016.8-8.1 20 20 0 005.8-16.8L1042 394 911.5 645.4h-5.8L757 395.7l-22.5 208.1c-.7 6.2 1.1 11.9 5.7 17s10.3 8 16.8 8h8.7v5H645v-5.7h9.2a41 41 0 0042.2-36.4l48-370.5h5.2l179.2 294.7 172.3-294.7h5.2l49.1 370.5c2 11.2 6.9 20 14.8 26.6a41.8 41.8 0 0027.4 9.8zM1685.6 628.1h5.1v5.8h-184.4V628h5.2c8.5 0 14.7-2.6 18.8-7.8s6-10.1 6-14.7a36.5 36.5 0 00-2.8-13.9l-28.3-71.1h-135.3l-30 71.1a38.9 38.9 0 00-3 14.1c0 4.5 2.1 9.3 6.4 14.5s10.6 7.8 19 7.8h4.7v5.8h-123.6V628h5.1c8.8 0 17.7-2.7 26.6-8s16.2-13.6 22-24.4l133.6-302.3q27-57.2 28.8-75.7h5.3l171.6 376.9q8.8 16.7 22 25.2 13.3 8.3 27.2 8.3zm-305.9-131.8h115.7l-56.1-142.2zM1978.6 628.1q12.1 0 19.7-11.5a26 26 0 003.5-12.2 22.9 22.9 0 00-3.5-11.5l-81-126-85 125.4a22.3 22.3 0 000 23.7c5.4 8 12.1 12.2 20.2 12.2h7.5v5.7h-142.7v-5.7h8.1q32.3 0 57.2-32.4l113.9-161.3L1789.6 269a85.8 85.8 0 00-25.4-24.3 61.3 61.3 0 00-33-9.8h-8.1v-5.8h196.6v5.8h-7.6q-12.1 0-19.7 11.5a26.7 26.7 0 00-3.4 12.5 22.6 22.6 0 003 11.3l72.2 111.5 71.2-111a23 23 0 003.4-11.8 20.6 20.6 0 00-4-11.8c-5-8.1-11.5-12.2-19.7-12.2h-7.5v-5.8h142.2v5.8h-8a58.9 58.9 0 00-32.4 9.5 89.9 89.9 0 00-25.5 24l-98.4 146.3 116.3 179.8a80.6 80.6 0 0025.6 24 62.9 62.9 0 0032.7 9.6h8.1v5.7H1971v-5.7zM2241.6 628.1a34.9 34.9 0 0025.7-10.7 36.8 36.8 0 0011.3-25.7V270.8a37 37 0 00-37-35.8h-7.5v-5.8H2410l-.6 5.8h-7a36.6 36.6 0 00-26 10.4 34 34 0 00-11 25.5v320.8a34.5 34.5 0 0011 25.7 35.7 35.7 0 0026 10.7h7l.6 5.8H2234V628zM3018.9 628.1h9.3v5.8h-173.5v-5.2h8.6a24.3 24.3 0 0016.8-8.1c4.6-5 6.6-10.6 5.8-16.8L2863.3 394l-130.6 251.4h-5.8l-148.5-249.7-22.6 208.1a21.3 21.3 0 005.8 17 21.8 21.8 0 0016.8 8h8.6v5h-120.8v-5.7h9.3a42.5 42.5 0 0028-9.8 40.2 40.2 0 0014.1-26.6l48-370.5h5.3L2750 515.9l172.3-294.7h5.2l49.1 370.5a43 43 0 0014.8 26.6 41.8 41.8 0 0027.5 9.8zM3462.8 235h-9.8a29.8 29.8 0 00-20.7 7.8 26.6 26.6 0 00-9.3 19.3v225.5q0 71.2-44.5 112.8t-122 41.6q-91.5 0-140-40.8-48.5-40.7-48.6-113V264q-.4-17.3-15.5-25.4a32.4 32.4 0 00-15-3.5h-9.3v-5.8h166.5v5.8h-9.3c-8.5 0-15.6 2.6-21.3 7.8a27 27 0 00-9.3 20v220.8c0 40.8 10 73.2 30 97.1s47.6 35.9 82.7 35.9 62.8-11.3 83.2-33.8 30.8-53.2 31.2-91.7V262.8c-.8-11.2-6-19.3-15.5-24.3a32.7 32.7 0 00-15.1-3.5h-9.2v-5.8h120.8zM3494.8 580.1q0-41.6 18-71.1h5.2a72.2 72.2 0 00-.6 9.2q0 40 28.6 69.7t78.3 29.7q38.8 0 60.5-18.4t21.6-46.9a46.4 46.4 0 00-10.7-30q-10.7-13.3-35.5-29.5l-100.5-66.5q-56.2-37.5-56.2-92.5a55 55 0 011.2-11.5q3.4-45.7 35.5-73.4c21.4-18.5 50-27.7 86-27.7 21 0 47.3 1.9 78.5 5.7h36.4l-7.5 85h-5.8c0-20-7.4-36-22.2-48.2s-34.6-18.3-59.2-18.3q-45.1 0-65.4 27.8c-7 9-10.4 17.7-10.4 26.6s1.7 16.4 5.2 22.5q8.1 15.1 35.2 32.4l110.5 71.7q52 34 52 89 0 61.3-41.9 94T3620.3 642q-39.3 0-72.5-9.6t-48.8-25.7q-4.1-11-4.2-26.6zM525.2 195.4c-4.3 3.2-27.4 89.1-6.3-32.8 6.1-35-12.5-62.2-38.4-83.6-66.8-55-169.2-71-252.6-58.6C171 28.9 99.5 48.1 60 93.7a85.2 85.2 0 00-20.7 68.9c21.1 122-2 36-6.3 32.8 0 0-37.3 363.4-27.1 398.5 8.5 29.5 161.8 131.5 211.7 164.2l23.9 75.9-8.6-66a1.2 1.2 0 01.3.2s-22-193.6-20.3-341.9c0 0-126-101.4-132.8-112.5s0-13.4-6.8-23.3c0 0 167.4 86.7 167.4 92.8s10.5 153.4 12.8 160.8 25.6 27.2 25.6 27.2 23.4-19.9 25.6-27.2 12.8-154.6 12.8-160.8S485 290.5 485 290.5c-6.8 9.9 0 12.1-6.8 23.3S345.4 426.3 345.4 426.3c1 85.7-6 206.1-12 267.7l-18.2 140 23.5-74.6c47.7-31 205-135.6 213.7-165.4 10-35.3-27.2-398.6-27.2-398.6zM243 38.8c-33.3 14-68 28.6-96 52a122.2 122.2 0 00-38.4 55.6 148.6 148.6 0 00-7 48.9c.3 8.3 5 22.3 2.3 30.3-1.5 4.4-6 5.4-9 1.5C-15.6 78.6 235.3 42 257 32.9l-14 5.9z" class="cls-1" transform="translate(-4.2 -16.5)"/><text fill="#0df700" font-family="MyriadPro-Regular,Myriad Pro" font-size="100" transform="translate(1316.2 759.6)"><tspan x="0" y="0">G A M I N G </tspan><tspan x="791.3" y="0">H A R D W A R E</tspan></text></svg>