<svg version="1.1" id="Capa_1" xmlns="http://www.w3.org/2000/svg" x="0" y="0" viewBox="0 0 3546.4 943.8" xml:space="preserve"><style>.st0{display:none}.st1{display:inline}.st1,.st2{fill:#0df700}.st4{fill:#ef3d3c}.st5{fill:#d6e5ef}.st6{fill:#c7d6e0}</style><g class="st0"><path class="st1" d="M226.5 774.9h439.3v14.5H226.5zM3174.2 774.9h439.3v14.5h-439.3z"/></g><path class="st2" d="M1280.6 749.8h8.1v5h-151.6v-4.5h7.6c5.7-.4 10.6-2.7 14.6-7 4-4.4 5.8-9.4 5-14.8l-19.6-183.4-114.3 219.8h-5l-130-218.3-19.7 182c-.6 5.3 1 10.3 5 14.9a19 19 0 0014.7 6.8h7.6v4.5H797.4v-5h8a37 37 0 0024.6-8.6 35 35 0 0012.4-23.2l41.9-324h4.6l156.7 257.7 150.6-257.8h4.6l42.9 324c1.7 9.8 6 17.6 12.9 23.3 7 5.7 15 8.6 24 8.6zM1707.3 749.8h4.5v5h-161.3v-5h4.5c7.5 0 13-2.3 16.5-6.9 3.5-4.5 5.3-8.8 5.3-12.8s-.8-8.2-2.5-12.2l-24.8-62.1h-118.2L1405 718a34 34 0 00-2.5 12.3c0 3.9 1.8 8 5.6 12.6 3.6 4.6 9.2 7 16.6 7h4v5h-108.1v-5h4.5c7.7 0 15.5-2.5 23.3-7.2a54 54 0 0019.2-21.2L1484.4 457c15.7-33.4 24.2-55.4 25.2-66.2h4.6l150 329.6a55.9 55.9 0 0019.3 22 44.5 44.5 0 0023.8 7.3zm-267.5-115.3H1541l-49-124.3-52.2 124.3zM1963.5 749.8c7 0 12.8-3.4 17.2-10 2-3.8 3-7.4 3-10.7 0-3.4-1-6.8-3-10.2L1910 608.7l-74.3 109.7c-2 3.4-3 6.9-3 10.4s1 7 3 10.4c4.8 7 10.6 10.6 17.7 10.6h6.6v5H1735v-5h7.2c18.8 0 35.4-9.5 50-28.3l99.5-141-93.5-144.6a75 75 0 00-22.2-21.3 53.6 53.6 0 00-28.8-8.6h-7.1v-5H1912v5h-6.6c-7 0-12.8 3.4-17.2 10.1-2 3.8-3 7.4-3 11 0 3.5.8 6.7 2.5 9.8l63.2 97.5 62.2-97a18 18 0 00-.6-20.7c-4.3-7.1-10-10.6-17.1-10.6h-6.6V401h124.4v5h-7a51.5 51.5 0 00-28.4 8.4 78.6 78.6 0 00-22.2 21l-86 127.9 101.6 157.2a70.6 70.6 0 0022.5 21 55 55 0 0028.6 8.3h7v5H1957v-5h6.6zM2193.5 749.8c8.7 0 16.2-3.1 22.5-9.4a32.2 32.2 0 009.9-22.4V437.3a31.6 31.6 0 00-10-22.3c-6.2-6-13.7-9-22.4-9h-6.6V401h153.7l-.5 5h-6a32 32 0 00-32.4 31.4V718c0 8.7 3.2 16.2 9.6 22.4 6.4 6.3 14 9.4 22.7 9.4h6.1l.5 5H2187v-5h6.6zM2873.2 749.8h8v5h-151.6v-4.5h7.6c5.7-.4 10.6-2.7 14.7-7 4-4.4 5.7-9.4 5-14.8l-19.7-183.4L2623 764.9h-5l-130-218.3-19.7 182c-.7 5.3 1 10.3 5 14.9a19 19 0 0014.7 6.8h7.5v4.5H2390v-5h8.2c9.4 0 17.5-2.9 24.5-8.6a35 35 0 0012.3-23.2l42-324h4.5l156.7 257.7L2788.8 394h4.5l43 324a36.5 36.5 0 0037 31.8zM3261.4 406h-8.7a26 26 0 00-18 6.9 23.3 23.3 0 00-8.2 16.9V627c0 41.4-13 74.3-39 98.5-25.9 24.3-61.5 36.4-106.6 36.4-53.3 0-94-11.8-122.3-35.6-28.3-23.8-42.5-56.7-42.5-98.8V431.3a24.3 24.3 0 00-13.6-22.2c-4-2-8.5-3-13.1-3h-8.1V401h145.5v5h-8.1c-7.4 0-13.6 2.3-18.6 6.9a23.7 23.7 0 00-8.1 17.4v193.1c0 35.7 8.7 64 26.3 85 17.5 20.8 41.5 31.3 72.2 31.3 30.7 0 55-9.9 72.8-29.6 17.9-19.7 27-46.4 27.3-80.1V430.3a24.4 24.4 0 00-13.6-21.2c-4-2-8.4-3-13.2-3h-8V401h105.6v5zM3289.4 707.8c0-24.3 5.2-45 15.7-62.2h4.5a85.2 85.2 0 0024.5 69c16.7 17.4 39.5 26 68.5 26 22.6 0 40.3-5.3 52.9-16.1a51.6 51.6 0 0018.9-41c0-9.7-3-18.5-9.4-26.3a135.7 135.7 0 00-31-25.7l-88-58.1c-32.7-22-49-49-49-81 0-3.3.3-6.7 1-10 2-26.6 12.4-48 31-64.2 18.8-16.2 43.9-24.3 75.2-24.3a577 577 0 0168.7 5h31.8l-6.5 74.3h-5.1c0-17.4-6.4-31.5-19.4-42.1-13-10.7-30.3-16-51.8-16-26.3 0-45.4 8.1-57.1 24.3a37.8 37.8 0 00-4.6 43c4.7 8.8 15 18.2 30.8 28.3l96.6 62.7c30.3 19.8 45.5 45.8 45.5 77.8 0 35.7-12.3 63.1-36.7 82.2-24.4 19-56.9 28.5-97.3 28.5-22.9 0-44-2.8-63.4-8.4-19.4-5.5-33.6-13-42.7-22.4a66.7 66.7 0 01-3.6-23.3z"/><g><path class="st2" d="M692.6 371.4c-3.7 2.8-24 78-5.5-28.7 5.3-30.6-11-54.4-33.6-73-58.4-48.1-148-62.1-220.9-51.3-49.7 7.4-112.2 24.2-146.7 64a74.5 74.5 0 00-18 60.3c18.4 106.6-1.8 31.5-5.6 28.7 0 0-32.6 317.7-23.7 348.5 7.5 25.8 141.5 115 185.1 143.5l21 66.4L437 872l.3.2S418 703 419.6 573.3c0 0-110.2-88.7-116.2-98.4-5.9-9.7 0-11.7-5.9-20.3 0 0 146.4 75.7 146.4 81.1 0 5.4 9.3 134.1 11.2 140.6 2 6.4 22.4 23.8 22.4 23.8s20.4-17.4 22.4-23.8c2-6.5 11.2-135.2 11.2-140.6 0-5.4 146.4-81.1 146.4-81.1-6 8.6 0 10.6-6 20.3-5.9 9.8-116 98.4-116 98.4.8 75-5.3 180.2-10.6 234l-16 122.5 20.6-65.2c41.7-27.2 179.3-118.6 186.9-144.7 8.8-30.8-23.8-348.5-23.8-348.5zm-246.8-137c-29 12.4-59.4 25-84 45.6a107 107 0 00-33.4 48.6 129.8 129.8 0 00-6.1 42.7c.2 7.3 4.2 19.6 1.9 26.5-1.3 3.9-5.2 4.8-7.8 1.3C219.6 269.2 439 237.3 458.1 229.3l-12.3 5.2z"/></g><g class="st0"><path class="st1" d="M1334.8 1070.7v-4.6h24.4v29.4h-4.6v-9.7c-1 1.7-2.2 3.2-3.4 4.6a21.2 21.2 0 01-10.3 5.8c-2.3.6-4.8.9-7.6.9-3.6 0-7-.7-10-2-3-1.2-5.7-3.1-7.9-5.6-2.2-2.5-4-5.7-5.2-9.5a42.9 42.9 0 01-1.8-13.3c0-4.2.5-8 1.6-11.7 1-3.6 2.6-6.7 4.8-9.4 2.2-2.6 5-4.7 8.3-6.3a30.9 30.9 0 0120.1-1.2c2.6.8 5 2 7 3.4 2 1.5 3.8 3.4 5.3 5.6 1.4 2.3 2.4 5 3 8h-5.5a16.2 16.2 0 00-6.5-10 20 20 0 00-11.4-3.5c-3.7 0-7 .7-9.7 2-2.6 1.3-4.9 3.2-6.6 5.6-1.7 2.4-3 5.3-3.8 8.6a47 47 0 00-1.3 11c0 3.2.5 6.2 1.4 9.1 1 2.8 2.3 5.3 4 7.5a19.5 19.5 0 0020 6.5 18.2 18.2 0 0014.3-15c.4-2 .6-4 .6-6.2h-19.2zM1398.6 1095.5l22.4-57h6.1l21.8 57h-5.5l-6.6-17.9h-26l-6.7 18h-5.5zm14-22.4h22.4l-11.1-30-11.2 30zM1488 1095.5v-57h8.3l18.7 50.3h.1l18.4-50.3h8.2v57h-5.4v-50.8h-.2l-18.7 50.8h-5l-18.8-50.8h-.2v50.8h-5.4zM1587.8 1095.5v-57h5.4v57h-5.4zM1645 1045.8h-.2v49.7h-5.4v-57h6.1l33 49.8h.1v-49.7h5.4v57h-6.2l-32.8-49.8zM1752.6 1070.7v-4.6h24.4v29.4h-4.6v-9.7c-1 1.7-2.1 3.2-3.4 4.6a18.8 18.8 0 01-4.5 3.6c-1.7 1-3.6 1.7-5.8 2.3-2.2.5-4.7.8-7.6.8-3.5 0-6.9-.7-10-2-3-1.2-5.6-3.1-7.8-5.6-2.3-2.5-4-5.7-5.3-9.5a42.9 42.9 0 01-1.8-13.3c0-4.2.5-8 1.6-11.7a23.5 23.5 0 0113.1-15.7 30.7 30.7 0 0120.1-1.2c2.6.8 5 2 7 3.4 2.1 1.5 3.9 3.4 5.3 5.6a24 24 0 013 8h-5.5a16.7 16.7 0 00-11.8-12.5 21.8 21.8 0 00-15.7 1c-2.7 1.3-5 3.2-6.7 5.6-1.7 2.4-3 5.3-3.8 8.6a47 47 0 00-1.2 11c0 3.2.4 6.2 1.3 9.1 1 2.8 2.3 5.3 4 7.5a19.5 19.5 0 0020 6.5 19.3 19.3 0 009-4.7c1.4-1.3 2.5-2.9 3.5-4.7a21 21 0 001.9-5.6c.3-2 .5-4 .5-6.2h-19.2zM1875.3 1095.5v-57h5.4v24.5h33.7v-24.5h5.4v57h-5.4v-28h-33.7v28h-5.4zM1959 1095.5l22.4-57h6l21.9 57h-5.5l-6.6-17.9h-26l-6.7 18h-5.5zm14-22.4h22.4l-11.2-30-11.1 30zM2054 1069.7v25.9l-5.4-.1v-57h22.3c6.3 0 11 1.2 14.4 3.6 3.3 2.3 5 6.1 5 11.4a15 15 0 01-2.2 8.6c-1.4 2-3.8 3.9-7 5.4a9 9 0 013.9 2.5c1 1 1.7 2.4 2.1 3.8.5 1.4.8 3 1 4.5l.2 4.6a65.4 65.4 0 00.8 8.9c.2.9.4 1.6.7 2 .2.6.5 1 .9 1.2v.5h-6c-.5-.9-1-2.2-1.2-4a109.8 109.8 0 01-.8-10.6 33 33 0 00-.5-4.3 8.8 8.8 0 00-1.5-3.6 7 7 0 00-2.6-2.1c-1-.5-2.1-.8-3.4-1-1.2-.2-2.5-.2-3.8-.2h-17zm16.7-4.6c2 0 4-.2 5.6-.7 1.7-.4 3.2-1 4.5-2a10 10 0 004.1-8.7c0-2-.4-3.8-1.1-5.2a9.1 9.1 0 00-3.1-3.2c-1.3-.8-2.8-1.4-4.5-1.7a28 28 0 00-5.1-.5H2054v22h16.7zM2133.1 1095.5v-57h19.5a102 102 0 019.2.7 22.9 22.9 0 018.4 3.6c1.9 1.4 3.4 3 4.6 5a30.8 30.8 0 014.5 13 52.3 52.3 0 010 12 35.8 35.8 0 01-3.2 11 21 21 0 01-7.6 8.3 29.6 29.6 0 01-10.2 3.1 58 58 0 01-5.7.3H2133zm5.4-4.6h13a49 49 0 006.7-.4c2.2-.3 4.3-1 6.6-2.2 1.9-1 3.4-2.2 4.7-3.8a26.5 26.5 0 004.4-11.4 42 42 0 00-1.5-18.5c-.8-2-1.8-3.7-3-5.3a15.3 15.3 0 00-11-5.8 61 61 0 00-7-.4h-13v47.8zM2266.7 1088h.1l12.4-49.4h5.6l-15 57h-5.9l-13.2-50.4h-.2l-13.2 50.3h-6l-14.7-57h5.4l12.3 49.4h.2l13.2-49.4h6l13 49.5zM2318.8 1095.5l22.4-57h6l22 57h-5.6l-6.6-17.9h-26l-6.7 18h-5.5zm14-22.4h22.4l-11.2-30-11.1 30zM2413.8 1069.7v25.9l-5.4-.1v-57h22.3c6.3 0 11 1.2 14.4 3.6 3.4 2.3 5 6.1 5 11.4a15 15 0 01-2.1 8.6c-1.5 2-3.9 3.9-7.2 5.4a9 9 0 014 2.5c1 1 1.7 2.4 2.1 3.8.5 1.4.8 3 1 4.5l.2 4.6a65.4 65.4 0 00.8 8.9c.2.9.4 1.6.7 2 .2.6.6 1 1 1.2v.5h-6c-.6-.9-1-2.2-1.2-4a98.4 98.4 0 01-1-10.6c0-1.7-.2-3.2-.4-4.3a8.8 8.8 0 00-1.5-3.6c-.7-1-1.6-1.7-2.6-2.1-1-.5-2-.8-3.4-1-1.2-.2-2.5-.2-3.8-.2h-17zm16.8-4.6c2 0 3.8-.2 5.5-.7 1.8-.4 3.2-1 4.5-2a10 10 0 004.1-8.7c0-2-.4-3.8-1.1-5.2a9 9 0 00-3.1-3.2 13 13 0 00-4.5-1.7 28 28 0 00-5.1-.5h-17.1v22h16.8zM2493 1095.5v-57h37.9v4.6h-32.6v20.6h29.4v4.6h-29.4v22.6h33.3v4.6H2493z"/></g><path d="M534.8 158.3s-81.7-108.2-227-107c0 0-78.4-50-212.5 57 0 0-32.5 49-33 69 0 0-62 39.2-29.7 116.3 0 0-4.9 25.2 19.4 72.5l33.3 108.6 66 17.7-5-20s17.5-92.4 10.9-116.1c0 0 8.8-15.9 19.5 9.5l3.3 45 353.7-181.5 1.1-71z" fill="#ff4a4a"/><g><path class="st4" d="M100.3 283.1c-9.2-52-13-104.8-11-157.7A296.5 296.5 0 0066.2 170a689 689 0 0034.2 113.2zM195 121.2a16.7 16.7 0 00-9.1 8.7c3-3 6.1-5.8 9.2-8.7zM157.3 364.1c1-1.5 9.2-14 19.2 9.4 2.2-8.8 3.3-18.3 5.3-27.2 5.4-25 19-47.6 32.3-69.6 25.5-42.1 51.8-85.1 90-116.2-22 7.9-39.6 24.3-56.3 40.4-33 31.9-66.3 66.6-78.4 110.8-9.2-22.4-5.8-47.7-2.2-71.6l14.2-94.2c.8-5.4 2-11.4 4.5-16a139.1 139.1 0 00-34.7 46.3c-9.9 23.9-8.6 50.6-6.5 76.4 3 37.2 7.2 74.5 12.6 111.5z"/></g><g><path class="st5" d="M651.3 257.5c-6.2-14.6 1 2.2-1.4-4 7.4 16.2-31-74.5-49.1-78.2-14.3-6-36.3-32.7-39.4-17.6-9.3-2.9-10.6 7.6-18.7-.9-4.7-.4-11.4-8.3-10.5 2.7-4-1-3.7 9.3-9.5 8.6-1.7 8.9-9.5 7.1-15.5 16.4 2.7 6.6-6.5-6.6-8.3 2.4-2.2 8-10.6 6-18.7 4.7-9.3-4-17.5-5-20 3.5-2 6.1-6.9 9.5-15.6 5.4-8.3-3-14 1.6-17.3 10.3-2.5 10.9-7.7 13.8-14 10.1-1.6 7.6-7.3.8-5.8 4.5.1.3.9 6.4-4.3 1.7-3.4-.4-5.4 5.8-11.6 4.5-1.9 9-11 3.2-16.7 7-9-3.7-17.8-6-19.8 9-9.2-2.2-15.7 2.5-20.6 10.7-8 .7-14.4 5.3-19.4 11.8-7.2 1.2-8.8 14.6-16 12.4-7.6-3-14.2-5.7-10.6 12.7-1.5-3.5.3 5.5-4.2 3-2.2 3.1-8 1.3-11.1 8.4-5.4 1.7-10.4 7-16.2 12.3-9.7-4.4-12 10.7-19 15.3-6 7-9.8 19.6-20 16.8-10.7-4.2-13.6 10-18.8 17.2-1.4 16.4-12.3 8.8-15.7 16.5-4.5 5.2-10.1 5.3-10.5 14.4 0 .2 1 11.3.8 12-.4 2 3.4 14 2 13.6.5 13.2 19.5 65.5 35 82.8 0 0-.6-4 3.9 1.9 2.2.4 3.2-4.5 10.4 3 5.5 3.4 8.7-1.2 15.5.2 9 6.7 13.5.2 19-6.8 5.4-7 12.2-13.4 21-17.6-3.7-9-.6-3 1.4-1.2 3 4.3.7-5.6 4-3.4-2.8-12.4 5-.6 6.4-5.4 1.7-4.4 6.4-2.5 9-7.2 7.8 7.8 6.5-7.1 11.3-8.7 1.8-8.7 4.6-16.2 13.6-10 5.8-1.3 6.7-15.3 15.8-11 3.6-8.8 15.3 1 18-11.9 8 0 11.6-11.4 19.9-12.5 6.2-6 15.8-4.8 21.9-12.9 8.3-2.8 17.2-4.7 23.8-13 8-4.6 14.4-14.2 25.6-13 7.4-7.5 17.8-8.6 27.3-12.6 8-7.3 18.5-9.2 28.9-12 15.3-11.6 31.7-14.6 45.5-18.8 13.8-4 24-11.5 33.7-15.7a72.3 72.3 0 0123.6-12.6c10.2 5.2 10.8-8.6 15.5-9.9 3.8-3 4-11.8 8.9-7.3 2.4-1.3 1.2-8.9 4.2-5 .5-1.7 2.1.4 1.2-2.7 2 3.8 4.2 9.2 0-1 5 12 4.5 1.4 5.8-6.2 4.3-.9 11.3 3.6 5.4-16.7zM50.5 509.6c-5.6 33.6 24 68.8 57.5 74.5a61.7 61.7 0 0020.5-121.7c-33.5-5.6-72.3 13.6-78 47.2z"/></g><g><path class="st6" d="M78.5 570.7a66 66 0 0029.6 13.3 61.6 61.6 0 1020.4-121.5c-1.6-.2-3-.5-4.7-.5a61.4 61.4 0 0121.5 57.6 61.3 61.3 0 01-66.8 51zM121.7 464.2a4 4 0 01-.8-2.3h.3l.5 2.3z"/></g></svg>