<svg xmlns="http://www.w3.org/2000/svg" viewBox="0 0 4096 4096"><path d="M1916.3 2550.7a40.5 40.5 0 01-9.2-18c-1.2-4-2.9-8.8-3.9-10.7-1-2-2.4-6-3.3-9-.8-3.1-2.4-8-3.4-10.9a240.2 240.2 0 01-8.7-27c-1-3.8-3.2-11.4-5-16.8a95.3 95.3 0 01-3.3-11.3c0-.8-1.7-6.4-3.8-12.4-2.1-6-5-15.2-6.4-20.4a182.5 182.5 0 00-8.1-26c-2.9-7.3-3.8-8.8-7.8-12.8-4.6-4.5-10.8-8.9-14-10a57 57 0 01-11-7.2c-.8-.7-4.3-2.7-7.7-4.4a42 42 0 01-6.7-3.9c-.2-.4-1.8-1.4-3.5-2.3-1.8-.8-5.1-3.2-7.5-5.3-2.3-2-5.3-4-6.7-4.5a35 35 0 01-6-3.2l-6.8-4.2c-1.7-1-5.3-3.6-7.8-5.7a55.5 55.5 0 00-9-6 43.7 43.7 0 01-7.5-4.6c-1.7-1.5-3.9-3-4.8-3.5-.8-.4-3.4-2.4-5.7-4.4-2.3-2-5.4-4.2-7-5-3.4-1.8-13.1-8.2-19.4-12.9-2.7-2-7.2-4.9-10-6.4a63.3 63.3 0 01-7.7-4.8 200.4 200.4 0 00-16.2-11.6c-.3 0-3.3-2-6.6-4.6a49.1 49.1 0 00-6.7-4.5c-.4 0-3.3-2-6.4-4.3-5-3.9-12.5-8.8-19.4-12.9-1.2-.7-3.2-2.2-4.5-3.2l-6.1-4.6c-2.1-1.4-6-4.3-8.6-6.5-2.6-2.2-6-4.5-7.3-5a8.5 8.5 0 01-3.1-2.1c-1-1.6-12.4-9.6-21.7-15.3-1.4-.9-4.3-3-6.5-4.8a51 51 0 00-6.5-4.5 61 61 0 01-6.8-4.7c-2.5-2-5.5-4-6.6-4.8a45 45 0 01-5.3-4.4 26.4 26.4 0 00-5.9-4.2c-1.4-.6-4.5-2.8-6.8-4.7-2.3-2-5.2-4.2-6.4-5-1.2-.7-3.8-2.8-5.7-4.5-3.1-2.9-13.6-10-18.1-12.4-1-.6-3.3-2.3-5-3.9a54.8 54.8 0 00-6.5-4.9 80 80 0 01-8-6.1c-2.4-2.2-4.8-4-5.2-4-.4 0-2.8-2-5.4-4.6a23.2 23.2 0 00-5.8-4.5c-1 0-4-2.3-16.7-12.8-8-6.6-15-12-17.8-14-1.4-.9-4-3-5.9-4.8a57.2 57.2 0 00-8.3-6.3c-2.8-1.7-6-3.9-7.3-4.9a369.9 369.9 0 01-23-19.8 207 207 0 01-8-7.2c-1.3-1.3-5-4.3-8.3-6.8a76.2 76.2 0 01-11.7-10.5c-6.7-6-33.4-33.3-37.1-37.9-19.7-24-22.9-31.2-25.4-57.7-2.4-25.4-2.2-57.3.8-112.5 3.6-64 4.7-85.1 6-115.1a1493.7 1493.7 0 015-73.2c.8-8.3 2-25 2.6-37a947.1 947.1 0 013.8-51c.8-13.3 2-24.5 3.4-34.7a552 552 0 003.4-48l1.5-20.3 2-22 1.9-22.2a982 982 0 003.3-45.6c.5-8.4 1.5-19.8 2.3-25.4a992 992 0 004.8-45.3l5-58.6c.8-9.6 2.2-22 3-27.5a345 345 0 002.3-26c.4-8.7 1.3-20.2 1.9-25.6l2.3-21.6a886 886 0 012.6-23c.8-6.2 2-18.8 2.6-28 .7-9 1.7-19.9 2.3-24a321 321 0 003.8-57c0-22.6.3-27.5 1.3-30.5 2-5.8 3.3-7.3 6.2-7.3 4.4 0 6.3 1.2 10.2 6.6a41 41 0 017.6 18c2.3 12 6.3 23.9 9.3 28 5.4 7.3 4.5 6.7 7.8 5.4 3.3-1.4 4.6-4.3 3.9-9a241.8 241.8 0 00-5.6-29c-1.4-4-3.7-16.9-4.8-26.8a181 181 0 00-2.7-16c-1-4.5-2.1-11.2-2.6-14.8-.4-3.6-1.5-10-2.3-14.1l-3.3-18.5-3-17.7c-2.8-16.4-3.2-49-.8-66.1 1.2-8.3 4.3-22 6-26a196 196 0 004.2-13c1.8-6.4 4-12 5.5-14.6 1.4-2.3 3.7-6.7 5-9.8 1.4-3.2 3.1-6.8 4-8 .7-1.3 1.8-3.8 2.4-5.5.6-1.6 2.4-4.8 4-7l6-9c1.8-2.7 4-5.9 5-7 1-1.3 3.7-5 6-8.4 12-16.8 44.2-47.3 68.3-64.8l13.6-9.9c3.3-2.4 8.4-5.6 11.4-7 2.9-1.5 7.1-4.1 9.4-5.9 9.8-7.4 36.6-21.7 57.5-30.7 4.8-2.1 9.4-4.2 10.2-4.8a1195.3 1195.3 0 0019.4-8.8 106 106 0 0112.9-4.9c2.6-.6 7.9-2.7 11.7-4.5 3.9-1.8 9.4-4 12.2-4.8 3-.8 6-1.8 7-2.3.8-.5 3.2-1.3 5.1-2l8-2.4c2.6-.9 7.5-2.2 11-3 3.6-.8 10.1-2.9 14.6-4.5a85.3 85.3 0 0114-4c3.2-.5 7.4-1.5 9.3-2.3 4-1.8 16.7-5.2 19.2-5.2 2.3 0 14.8-3.1 23.1-5.7a81 81 0 0122.4-4.9c4.8-.4 10.7-1.5 13-2.3 2.4-.8 8-2 12.6-2.6a327 327 0 0014-2.2c3.1-.6 9.2-1.4 13.6-2 9.5-1 11.7-1.3 31.8-4.8 11.6-2 20.3-3 34.8-3.8a810 810 0 0029.4-2.3 688 688 0 0174.5-2.3c26 .5 28.5.6 44.6 2.3l23.1 2c14.5.8 28 2.2 42.3 4.4 5.7.9 15 2.3 20.8 3a568.8 568.8 0 0176.6 14.8c2.7.6 6.4 1.8 8.4 2.6 2 .7 6.3 1.8 9.6 2.3 6 .9 10.3 2 27.6 7.1 12.5 3.8 12.3 3.7 19.6 6.8 3.6 1.6 7.8 3.1 9.5 3.5 11.7 2.8 31.2 9.8 40.8 14.7a76 76 0 008.8 4c9.2 2.7 28.4 11.3 32.5 14.5a29 29 0 007.1 3.7 80 80 0 019.7 4.4c3 1.6 7.4 3.7 9.8 4.7 2.4 1 6 3 8 4.6 1.9 1.6 5.7 3.8 8.4 4.8s6.6 3.1 8.7 4.6c2 1.5 5 3.2 6.4 3.8 1.4.6 4.3 2.7 6.4 4.8 2.2 2 5.6 4.3 7.6 5.2 2 1 5.5 3 7.6 4.5 2 1.6 5.2 3.5 7 4.3 1.7.7 4.6 2.9 6.3 4.7a24 24 0 006.3 4.7 36 36 0 016.8 4.6 44 44 0 006 4.3c1.3.6 4.2 3 6.5 5.3 8.5 8.3 11 10.6 13.6 12.3 1.5 1 4.3 3.3 6.2 5.2 6 6 13.8 12.6 17 14.4 1.9 1 3.5 2.4 3.7 3.1.7 2.3 7.1 10.5 13 16.9 3.2 3.3 6.5 7.3 7.5 8.9 1 1.5 3.2 4 4.9 5.6a28 28 0 014.9 6.4c1 2 2.6 4.1 3.6 4.8 1 .6 2.3 2.4 3 4 5 11.9 7.1 16.2 12.2 25.8 6.6 12.6 9.7 22 13.2 40 2 10 4.8 30.4 4.7 34-.4 14.2-2.6 37.7-3.9 40a349 349 0 00-6.4 43.4c-1.8 17-2.5 21-5.3 28.7a64.3 64.3 0 00-3.4 14.9 118.7 118.7 0 01-5.8 26.2 54.5 54.5 0 00-2.3 20c-.2 7.6 0 14.9.3 16.3.6 2.3 1 2.6 3.3 2.8 3.8.4 5.1-1 6.9-7.5 1-3.7 2.9-8 5.2-11.7 2-3.2 4.3-7.4 5-9.3.6-1.9 3-7.2 5.3-11.8 2.2-4.6 4.6-10 5.2-12 .6-2.1 1.9-5.1 2.8-6.8 1.7-2.9 2-3 5.5-3h3.7l1 3.4c1.1 3.6 2 18 3.2 50.2.3 10.8 1.2 23.2 1.8 27.6 1.9 12.6 2.7 21.2 3.5 37 .8 14.4 2 28.7 2.7 32.4.2 1 .9 9.8 1.5 19.5s1.6 21 2.3 25.2c.6 4 1.6 13 2.2 19.7.6 6.7 1.8 15.8 2.6 20.2 2 10.6 4.3 34.7 8 85.3 2.6 35.7 2.6 35.5 3.4 52 .7 13 4 47.5 6 63.5a11367.7 11367.7 0 005 47.6c.6 6 1.6 21 2.3 33.2.6 12.2 1.6 27 2.3 32.8.6 5.8 1.6 21.3 2.2 34.4.6 13 1.8 29.2 2.6 35.8.9 6.7 2 17.7 2.3 24.5a333 333 0 001.8 21c.7 4.5 1.5 13 2 18.8.4 5.7 1 14.7 1.5 19.9 5.4 70.6 8.6 159 8.6 239v53.5l-1.7 4.6-2.9 7.9c-1.3 4-1.2 3.9-5.7 10-1.9 2.8-4 6.1-4.7 7.5-.6 1.4-2.7 4.2-4.5 6.3-1.8 2-3.5 4.5-3.8 5.4-.3.9-2.1 2.9-4 4.5-2 1.6-4 3.4-4.3 4-.4.6-2.5 2.8-4.7 4.8a22 22 0 00-4.5 5.2c-.2.7-2.3 2.8-4.5 4.4-2.3 1.7-4.6 4-5.2 5.1a8.5 8.5 0 01-2.9 3c-1 .6-3 2.8-4.7 4.8-1.7 2.1-4 4.3-5.2 5-2 1-5.5 4-15.5 13.1-2.2 2-4.3 3.7-4.7 3.7-.4 0-3 2-5.6 4.3-2.6 2.4-6.7 5.7-9 7.4a86.3 86.3 0 00-8 6.4c-2 1.9-6.7 6-10.6 9l-16.5 13.7a470.2 470.2 0 01-26.3 20.6 134.3 134.3 0 01-24.5 18.4c-6.7 4.3-10.4 7.1-14.4 11a159.8 159.8 0 01-17.7 13.7c-1.3.8-3.9 2.7-5.8 4.2-1.8 1.5-4.7 3.7-6.4 4.8l-6.4 4.6-9 6.6a163 163 0 00-7.9 5.7 8.2 8.2 0 01-3 1.7c-1 0-7 4.1-15.3 10.6-3.7 3-9.5 7.2-12.8 9.5-9 6.1-10.8 7.5-15 11.1a77.4 77.4 0 01-9.2 6.4 101.9 101.9 0 00-22.8 16l-6 4.6a234 234 0 01-11 7.7 114 114 0 00-12.6 9 10.3 10.3 0 01-3.2 2.1c-.8 0-5 2.8-13 8.3a95.7 95.7 0 01-7.2 4.5c-1.6.9-4.9 3.1-7.4 5l-9 6.5a96.7 96.7 0 00-6.1 4.4c-.9.8-2.7 2-4.2 2.7-1.4.7-3.1 1.8-3.8 2.3a108 108 0 01-12 8.3c-3.2 2-6.7 4.4-7.9 5.3-1.1 1-2.6 1.8-3.1 1.8-.6 0-2.4 1.1-4 2.5a295.7 295.7 0 01-33.3 23c-6.3 5-12.8 9.4-16.4 11.1-4.6 2.3-9.3 5.2-19 12a87.8 87.8 0 01-9.3 5.9c-1 .3-3 1.6-4.3 2.7l-8 6.2a91.4 91.4 0 00-17 17.2c-1 1.5-2 4.6-2.2 7a25 25 0 01-1.8 6.8c-.8 1.5-1.6 3.8-2 5.2a45 45 0 01-2.7 7.1 22.5 22.5 0 00-2.1 7.1c0 1.4-.9 4.5-1.9 6.8-1 2.4-2.4 6.6-3 9.3-.8 2.6-1.8 6-2.4 7.5-.7 1.5-1.5 5.3-1.8 8.5-.8 6.8-4.6 21-7.2 27-1 2.3-2.2 6.8-2.6 10.1-.5 3.3-1.5 7-2.2 8.3-.8 1.3-2 4.7-2.8 7.6-.7 3-1.6 6-2 6.7-.4.8-1.5 4.2-2.5 7.6-.9 3.4-2.4 7.5-3.3 9.1-.9 1.7-1.6 3.6-1.6 4.3 0 .8-1 2.5-2.2 3.8-1.2 1.4-2.9 4-3.8 5.7-2 3.9-4.2 5.4-5.2 3.4-.4-.7-1-4.8-1.2-9.1-.3-6.1-.1-8.6.8-11.3.7-2 1.2-5.3 1-7.5 0-2.2.5-5.1 1.2-6.8.8-2 1-4 .7-6.4-.2-2-.1-5 .3-6.5s1.3-7.5 2-13.4c.6-5.8 1.5-12.2 2-14.3 1-5 2.7-17.6 3.7-27.6.9-9.5 2-16.3 3.3-21.8.6-2.3 1.4-7.4 1.9-11.3l1.1-7.6c.2-.3 2-13.9 4.2-30.3 4.2-32.7 5.6-42 7.2-48.3.6-2.3 1.5-9.1 1.9-15 .4-6 1.1-14 1.5-17.7l2-19c.6-6.6 1.9-15.4 2.9-19.6 1.2-5 2-11 2.3-18.1a272 272 0 012-21.1c.8-5.8 2.1-18 3-27.2.7-9.1 1.7-18.3 2-20.4 1-5 2.2-20.5 3.2-41.1.4-9.4 1.3-22 1.9-28 .6-6 1.6-19.4 2.2-29.8.7-10.4 1.7-24.1 2.3-30.6.6-6.4 1.6-23.6 2.3-38.1 1.5-34.6 4-73.6 5.3-86.8 1.6-15.2 2.5-29.7 3-52.1l1.6-49c2.3-62.5 3.4-119.3 4-196.7.5-79.3.5-80.5 2-83.8 1-2 2.6-4.3 3.8-5.5 4.8-4.4 8.4-7.2 11.9-9.2 2-1.1 6.2-4.3 9.4-7.2 3.2-2.8 8.1-6.7 10.9-8.8 2.8-2 8.5-6.7 12.7-10.4l11.8-9.8c3.8-3 21.1-17.2 34.3-28.2l13.3-10.7c3.7-2.9 8.8-7 11.3-9.3 2.5-2.2 6.1-5 8-6.2 1.9-1.2 6.4-5 10.2-8.3a190 190 0 0111-9.2c2.2-1.7 7.5-6.1 11.7-9.8 4.1-3.8 9.7-8.4 12.3-10.4a25 25 0 004.7-4.1c0-.4 1.8-2 4-3.6 5.8-4.4 22.2-18.1 27-22.6a70 70 0 016.8-5.7c4-2.7 11.7-9.3 14.4-12.4 1.4-1.5 3.7-3.4 5.2-4.2a125 125 0 0016.3-13.2c.4-.5 2.4-2.2 4.4-3.7 4.4-3.2 13.5-11.1 17.1-14.9a479.7 479.7 0 0043.5-39.5c5-4.9 11.7-11.1 15-13.8 8.4-7 8.7-7.7 14.5-35 3.1-14.4 3.2-15 1.2-16.9-1.2-1-2.5-1.2-7.7-1-7.8.4-9 1-27.2 13a5739 5739 0 01-8.2 5.5c-2.7 1.8-7 4-9.5 5a900.8 900.8 0 01-42 20.3 99.4 99.4 0 00-11.3 6.4c-7 4.6-16.8 10-18.3 10a65.3 65.3 0 00-18 9.3l-8.9 5c-3 1.7-7.3 3.8-9.6 4.7-2.3.9-5.8 2.7-7.8 4a108 108 0 01-9.3 5.3c-3 1.6-6.7 3.7-8 4.7-1.4 1-3.9 2.3-5.6 3-1.7.5-4 1.7-5.2 2.6a9.1 9.1 0 01-2.8 1.5c-.4 0-2 1-3.7 2.1a24.9 24.9 0 01-5.7 3c-1.4.5-5.7 2.8-9.4 5a38.6 38.6 0 01-8 4.2c-.8 0-2.5 1-3.9 2.1-5 4.3-8 6-14.5 8.4a46 46 0 00-9.7 4.7 34.3 34.3 0 01-6.3 3.7c-2 .9-5.3 2.8-7.4 4.4a70 70 0 01-15.8 8.4 46.4 46.4 0 00-11.5 6.1c-.8.7-2.6 1.9-4 2.5-1.3.7-3.2 2.1-4.3 3.1-1 1-2.4 2-3.1 2-.7 0-4.5 1.7-8.5 4-4 2.2-8.5 4.4-10 5-1.4.4-4.7 2.3-7.2 4.1-2.5 1.9-7 4.8-10.2 6.5l-8 4.9c-1.2.9-3.3 2-4.6 2.6-1.4.5-2.5 1.2-2.5 1.6 0 .3-1.4 1.4-3.2 2.3-1.8.9-4 2.2-5 3-1 .8-3.1 1.7-4.7 2.2-3.2.8-7 3-10.8 6.1a27.6 27.6 0 01-6.6 3.6c-2.3.9-5.5 2.8-7.3 4.4-1.7 1.6-6.1 5.3-9.9 8.4a27.7 27.7 0 00-9.6 11c-2.8 5.5-2.9 5.8-3 15.3-.2 5.3-.8 15.8-1.5 23.3a666 666 0 00-1.5 33.2c-.6 24.1-1.7 42.6-3 50.6-.7 3.3-1.5 12.4-2 20.3-.4 8-1 15.6-1.4 17a536 536 0 00-3.8 38.9l-1.9 23.8c-.6 7.3-1.3 18.1-1.5 24.1-.3 6-1.1 18.1-2 26.8-.8 8.8-1.8 25.4-2.2 37-1.6 43.4-4.1 68.6-8 79.3-.5 1.7-1.4 5.8-1.8 9.2a39.4 39.4 0 01-7.2 18c-1 1.2-2.1 3.3-2.6 4.7a17 17 0 01-3.8 5c-1.6 1.4-6 6.1-10 10.4-6.5 7.2-15.9 17-26.9 28-5.4 5.3-9.6 7.4-15.8 8-4.5.3-5 .2-7-1.6-1-1-3.8-3-6-4.3a24 24 0 01-6.2-5.7 314 314 0 00-18-19c-8.9-8.9-17-17.7-18.6-20.2-1.6-2.5-4.2-6.3-5.8-8.3a58.9 58.9 0 01-7.5-28.1c0-4.7-1.2-14-2.6-20.6-.6-2.7-1.5-10.9-2-18.1-.9-15.8-2.6-38-4.1-54.8-2.9-32.2-5-59-5.7-74.3-1.2-26-3.5-56-8-105.4-.6-7.4-1.5-24.3-1.8-37.4-.4-14.1-1-27.3-1.8-32.4-.6-4.8-1.3-15-1.5-22.6-.3-11-.6-15-1.8-19-2.4-8-7.3-13.8-13.2-15.7a10 10 0 01-3.7-2c-.5-.7-2-1.7-3.3-2.4-2.7-1.4-14.7-8.6-19-11.5a51.2 51.2 0 00-5.7-3.4c-1.5-.7-3.4-2-4.1-2.7-.7-.8-1.7-1.5-2.2-1.5-.4 0-2-.8-3.4-1.7-1.5-1-4-2.3-5.7-2.8-1.7-.5-5.3-2.6-8.2-4.7-2.8-2-6.8-4.2-8.7-4.8-2-.6-5.8-2.6-8.7-4.4-2.8-2-6.7-4.1-8.5-5-2-.8-5.8-3-8.6-4.9a67.7 67.7 0 00-6.5-4c-1.7-.6-7.8-4.1-11.7-6.6-1.4-1-3.5-2-4.5-2.2-1-.4-2.7-1.3-3.8-2a34.2 34.2 0 00-11.6-6.4c-2-.5-5-1.8-6.6-2.9a55.8 55.8 0 00-12-7c-1.9-.6-5.4-2.7-7.8-4.5a38.8 38.8 0 00-6.5-4.1l-6.5-3a27 27 0 00-5.3-2.2c-.6 0-1.4-.6-2-1.2-.6-.7-2.4-2-4-2.7-4.9-2.4-9.7-5-11.8-6.6-1-.7-3.1-1.8-4.7-2.3-1.5-.5-3.5-1.5-4.5-2.2-2.7-2.1-12-6.9-13.5-6.9-.7 0-3.6-1.8-6.5-4a35.1 35.1 0 00-8.2-4.9c-1.7-.5-5.4-2.5-8.3-4.4-3-2-7.7-4.5-10.6-5.6-2.9-1.2-7-3.4-9.1-4.8a40.2 40.2 0 00-8-4.1c-2.2-.8-5.8-2.5-7.9-3.8-2-1.3-7.3-4-11.5-6a71 71 0 01-10.1-5.8c-1.3-1-2.7-1.9-3.3-1.9-.5 0-1.8-.6-2.8-1.4-1.5-1.2-10.4-6-16.2-8.8a644 644 0 01-23.4-11.8c-1.6-.9-4-2.4-5.1-3.4a8 8 0 00-3-1.8c-2 0-29.5-14.6-35.7-19-2.1-1.4-6.2-3.7-9.1-5-6-2.8-8-2.6-12 1.2-2.3 2.3-2.4 3.9-.9 10a108 108 0 012 9.7c.7 5.2 3.5 12.2 5.3 13.4.5.2 2.2 3.2 3.8 6.6 3.4 7 5.8 11 8 13.5.8 1 2.4 3 3.5 4.7 1.1 1.7 3 3.7 4.2 4.6 1.2.8 6.1 4.9 11 9 4.9 4.2 10.5 8.8 12.6 10.2 2 1.5 4.6 3.9 5.6 5.4 1 1.5 2.8 3.1 4 3.5 1.3.5 3.4 2.3 4.7 4 1.2 1.8 3.4 4 4.8 5 1.3.8 3.4 2.8 4.5 4.3 1.2 1.5 3.4 3.4 5 4.2 1.5.8 3.7 2.5 5 3.8 1.2 1.4 4.1 3.8 6.4 5.5 6.7 5 14.6 11.8 16.5 14.2 1 1.2 3.4 3.3 5.3 4.6 4 2.7 10.8 8.4 15.5 13 1.7 1.7 4.5 4.1 6.2 5.4 7.4 5.3 11.5 8.7 19.5 16.4 4.7 4.5 10.2 9.3 12.3 10.7 2 1.4 4.2 3.3 4.7 4.1a20 20 0 004.9 4.2c2.2 1.4 5 3.6 6.2 5 1.3 1.3 3.7 3 5.3 3.9 1.7.8 4.8 3.2 7 5.4a94.8 94.8 0 0016.2 13.5c2 1.2 4.3 3 5.1 4.3a22 22 0 005.3 4.5c2.1 1.2 5 3.4 6.6 4.8 1.6 1.4 4.4 3.5 6.1 4.6 1.8 1 3.7 3 4.4 4.3.6 1.2 2.9 3.3 5 4.6 2 1.3 4 3 4.5 3.8.4.8 2.6 2.6 4.8 4 2.1 1.4 5 3.7 6.2 5.1 1.2 1.4 3.8 3.6 5.7 5 1.8 1.2 3.8 2.8 4.4 3.6.6.7 3 2.5 5.4 4 2.4 1.6 7.7 6 12 10 4.2 3.8 9.1 7.9 11 9 1.8 1 5 3.4 7 5.2 5 4.6 13 10.8 16.5 13a33 33 0 015.6 4.9c1.5 1.6 4.8 4.6 7.4 6.7l8 6.4c3.7 3 8.2 8.1 10.1 11.6 1.6 3 1.6 11.6 0 16-1 2.6-1.1 8.9-1 41.9a3936 3936 0 003 139.2c1.1 22.4 2.1 51.3 3.5 99.7.4 15 1.2 34.8 1.8 44.1.7 9.4 1.5 27.2 2 39.7a762.5 762.5 0 003.3 51.3c.7 8.7 2 22 2.8 29.7a617 617 0 012.3 26c.3 6.7 1.4 18.7 2.2 26.6.8 7.9 2 24.2 2.6 36.2.6 12 1.6 28.4 2.2 36.3l1.6 24.9a721.8 721.8 0 004.5 60.7c.7 7.7 2 19.5 3 26.1 1 6.7 2.6 20 3.4 29.8l2.3 25.3 1.9 23.4a512 512 0 001.9 20.9c.4 2.7 1 11.6 1.5 19.6.8 15.2 1.7 23.5 3.5 31.2.5 2.5 1.5 9.4 2.1 15.3.6 6 1.3 11.1 1.6 11.5.2.4 1 7 1.9 14.8.8 7.7 1.6 14.3 1.8 14.6.2.3 1.2 6.5 2.3 13.7 1 7.2 2.4 14.9 3 17 .6 2 1.5 7.3 2 11.6a85 85 0 001.1 8.4c.7 1.1 2.8 16.6 3.8 28.6 1.5 17.4 2.2 22.8 3.2 24.7 1.7 3 .8 7.8-1.4 7.8-.3 0-2.1-1.7-4-3.9zm-350.6-1520.9c3.1-1.6 5.3-5.6 7.2-13.3 1.6-6.3 1-15.9-1.3-22.7-.8-2.5-1.8-8.1-2.2-12.5-.3-4.4-1.6-13.4-2.7-20-2-11.4-2.1-13.3-2-32.9 0-16.7.3-22.7 1.6-31 .9-5.5 2-14.3 2.4-19.5 1.1-11.6 3.3-22.1 6-29.1 1.1-3 2.7-8.2 3.4-11.7 2.2-10 3.1-13.5 5.7-20.4 1.4-3.5 3.2-8.8 4.2-11.8s2.4-6.4 3.2-7.6a90 90 0 008-16.6c.8-2.2 2-4.7 2.7-5.7a58 58 0 004.3-8.3 53 53 0 015-9.5c1.3-1.5 4.6-6 7.3-10 2.8-3.9 7-9.5 9.3-12.4a66 66 0 005.6-8c.7-1.4 5-6.4 9.5-11 4.6-4.6 8.2-8.7 8.2-9.2 0-.4 1.3-1.9 2.8-3.3a552 552 0 0010.9-10.6 66 66 0 0113.4-11.4c3.7-3.4 9.6-8 16.7-12.8 2.4-1.6 6-4.6 8.1-6.5 2.1-2 5.2-4.4 7-5.2a14 14 0 003.5-2.4c.3-.4 3.3-2.6 6.7-4.9l11-7.3c8.8-6.1 15.6-10.3 19-11.8a90 90 0 009.9-5.6c8.4-5.5 19.4-11.6 24-13.3 2.2-.8 6.5-3 9.7-4.9 3.3-1.8 6.8-3.6 7.8-3.9 1-.3 4.6-2 7.9-4a60 60 0 0112.8-5.2c3.8-1 8.4-2.8 10.3-4 2-1.2 6.2-3.5 9.5-5s8.2-4 11-5.7a45 45 0 019.8-4c2.7-.8 7-2.5 9.7-4 2.6-1.3 8.2-3.9 12.4-5.5 5.5-2.2 8.4-3.8 10.6-6 1.6-1.7 3.3-3 3.7-3 .3 0 .6-.6.6-1.2s-.6-1.1-1.3-1.1c-3.4 0-20.7 4-24.3 5.7-2.3 1-7 2.4-10.6 3a129.1 129.1 0 00-24.4 5.9c-2.8 1-7.5 2.3-10.6 2.7-8.6 1.2-15.7 3-20.4 5.4-2.4 1.2-8.7 3.4-14.1 4.8-5.4 1.5-12 3.5-14.8 4.6a131 131 0 01-12.8 3.7c-4.2 1-10.2 2.9-13.4 4.2a216 216 0 01-13.2 4.9 194 194 0 00-13.2 4.9l-9.9 3.9c-2.3.8-7.5 3.1-11.7 5.2-4.2 2-8.2 3.8-9 3.8-.8 0-2.6.7-4 1.5-1.4 1-4.5 2.2-6.9 3a115 115 0 00-22 9.8c-3 2.2-11.2 6.8-15.2 8.3-4.4 1.8-17.6 9.2-19.6 11a120 120 0 01-20.1 12 96.3 96.3 0 00-21.6 14.3c-1.6 1.5-6.2 5.1-15.4 12l-6.5 5a209 209 0 01-7.1 5.7 380.5 380.5 0 00-28.4 28.5c0 .4-2 2.8-4.4 5.4a94 94 0 00-14.6 19.5c-.9 1.8-2 3.5-2.6 3.8-2 1.2-5.5 7.1-6.7 11.3-.7 2.4-1.9 5-2.7 6a59.8 59.8 0 00-6.4 14.2c-.7 2.3-1.8 4.7-2.3 5.3-2 2.3-5.6 11.6-6.1 15.4-.3 2.1-1.3 7-2.3 10.8-1 4-1.9 9-1.9 11.7 0 2.6-.3 7.8-.8 11.6-2.2 18 3.1 51.7 10.4 66 1 2 2.1 5.7 2.6 8.4.5 2.6 1.6 6.9 2.4 9.4l3 10c.8 3 2.6 7.4 4 9.9 1.5 2.5 2.7 4.8 2.7 5.2 0 .3 1.2 2 2.6 3.7 1.5 1.7 3.7 5.4 5 8.1 1.2 2.7 3.2 6.4 4.4 8.2 1.2 1.7 2.7 4.9 3.4 7a20 20 0 003.4 6c2.2 2.3 6.2 8.9 9.2 14.7 1 1.9 2.5 4.4 3.4 5.7 1 1.2 2.6 4.5 3.6 7.3a43.8 43.8 0 009.4 14.4c2 1.8 8.6 4.2 12 4.2 1.6 0 4.1-.5 5.6-1.2zM681.7 4013.5c-34.6-18.8-39.2-89.2-7.5-115.9 24.7-20.8 74.4-13.4 86.4 13 8.3 18.3 1 18.7-15.3.9-12-13-18.4-16.3-32.1-16.3-33.7 0-56.6 40-45 78.8 7.1 24 20.6 35 42.8 35a45.7 45.7 0 0044-35.9c3.2-12.7 3-12.8-20.6-12.8-13 0-23.7-2-23.7-4.6 0-2.6 12.4-4.7 27.9-4.7h27.9v32.6c0 18.6-2 32.5-4.7 32.5-2.5 0-4.8-4.7-5-10.4-.2-5.8-1.4-7.8-2.7-4.6-7.1 17.6-49.4 24.9-72.4 12.4zm951.6 2.6c-21.3-8.6-35.9-45.8-31-79 4.6-31.1 26.2-51.2 55-51.2 26 0 45.4 9.1 52.5 24.7 8.3 18.3 1 18.7-15.3.9-19.4-21.2-41.7-22.4-62.8-3.5-28.8 25.8-21.1 86.3 12.7 99.1 25 9.6 52.6-6.3 59.1-34 3-12.7 2.8-12.8-20.3-12.8-12.9 0-23.4-2-23.4-4.6 0-2.6 12.4-4.7 28-4.7h27.9v32.6c0 18.6-2 32.5-4.7 32.5-2.6 0-4.8-4.7-5-10.4-.2-5.8-1.4-7.8-2.8-4.6-6.3 15.9-46.4 24.5-69.9 15zm-773.6-3.4c.1-2 11.1-30.8 24.5-64 15.5-38.9 26.6-60.5 31-60.5 4.2 0 12.6 15 22.2 39.4 32.6 83.7 34 88.5 27.5 88.5-3.4 0-9.5-8.3-13.5-18.6L944 3979h-60.9l-5.6 18.6c-3 10.3-8.4 18.6-11.8 18.6-3.4 0-6.2-1.5-6-3.5zm76.6-55.9a842 842 0 01-10.2-27.9c-3.8-10.9-8.6-20.8-10.6-22-3-1.9-23.4 46-23.4 55 0 1.7 10.7 3 23.8 3 20.8 0 23.3-1 20.4-8zm123.3-6.1c0-64 .2-65.5 9.9-64 8 1.2 13.6 11.7 29.2 53.5a597.6 597.6 0 0022 54.9c1.6 1.5 9.7-16.7 18.1-40.5 19.7-55.4 26.5-68.7 35-68.7 5.7 0 6.8 10.8 6.8 65.1 0 40.3-1.8 65.1-4.7 65.1-2.8 0-4.6-21.3-4.7-54.6 0-35.7-1.6-52.3-4.4-47.8-2.4 3.7-12 28.4-21.4 54.9-12.6 35.3-19 47.6-24.3 46.6-4.4-.9-14.8-21.8-27-54.9l-20-53.5-.3 54.7c-.2 45.3-1.4 54.6-7.2 54.6-5.9 0-7-10.3-7-65.4zm228 0c0-50.4 1.4-65.2 5.8-63.7 4.2 1.4 6.2 19.8 7.1 65.6 1.1 54.5.3 63.6-5.8 63.6-6 0-7-9.9-7-65.6zm116.3 0c0-56 1-65.3 7-64 4 .8 23.8 26.6 44.3 57.3l37.1 55.9v-57c0-47.6 1.2-57 7-57 5.9 0 7 10.3 7 65.1 0 84.3-3.1 85-52.3 10.4l-36-54.6v54.7c0 45.5-1.3 54.7-7 54.7-6 0-7-10.4-7-65.5zm535 .3c0-54.8 1.2-65.1 7-65.1 5.5 0 7 6.2 7 27.9v28h74l1.4-26.5c.9-15.9 3.7-27.1 7.2-28.3 4.5-1.5 5.9 13.3 5.9 63.6 0 55.2-1.2 65.6-7 65.6-5.5 0-7-6.5-7-30.3v-30.2h-74.5v30.2c0 23.8-1.4 30.3-7 30.3-5.8 0-7-10.4-7-65.2zm200.7 40.7c5.4-13.4 16.7-42.2 25.2-64 8.4-21.7 18.5-40.1 22.2-40.9 4.8-1 10.9 9.2 19.7 32.6 7 18.7 17.7 46.3 23.7 61.5 12.4 31 13.1 35.3 6 35.3-2.8 0-8.3-8.4-12.3-18.7l-7.4-18.6h-59.1l-7.5 18.6c-4 10.3-10.3 18.7-13.8 18.7-5 0-4.3-5.3 3.3-24.5zm69.3-30.8c0-5-22.8-64.6-23-60.5a462 462 0 01-11.9 33.8l-11.6 30.8h23.2c12.8 0 23.3-1.9 23.3-4.1zm125.6-10.5v-65.7l37.1 2.1c27.2 1.6 39.7 4.5 46.6 10.7 12.4 11.2 12.5 37 .2 47.5-7.9 6.7-8.3 9-3 15 8.9 10.2 12.7 56.2 4.8 56.2-3.7 0-7.2-8.7-9-22.1-4.6-34.6-3.7-33.8-37-33.8h-30.4v28c0 15.4-2 27.9-4.7 27.9-2.8 0-4.6-25-4.6-65.8zm73.5-9.6c3-3 5.6-11 5.6-17.7 0-18.5-8.3-23.3-40.5-23.3h-29.3v46.6h29.3c16.6 0 31.7-2.5 34.9-5.6zm117.2 10.2V3886h24.5c52.1 0 74.7 15.2 80.5 54 4.2 27.9-7.8 60-26 69.3-8.1 4.2-26.3 7-46.2 7h-32.8zm79.8 43.3a56.2 56.2 0 0012-30.9c5.2-45.4-9.3-63.6-50.8-63.6h-27V4008l28.1-2c20.3-1.4 30.8-4.7 37.7-11.6zm141.3 16c-7.6-21.7-30.2-121.4-28.1-123.5 5.6-5.6 11 8 23.4 58.6 7 28.9 13.4 52 14.1 51.2.8-.8 4.8-15 9-31.6 15.9-62 21.9-79.1 27.9-79.1 5.6 0 20 43.9 28.6 87.3 1.7 8.4 4.6 16.2 6.5 17.4 2 1.2 9.3-20.8 16.3-49 11.5-46.6 17.6-60.6 23.7-54.5 2.3 2.4-28.8 124-32.7 127.9-7.6 7.7-15.9-8.5-27.8-54.2-7.4-28.5-14.2-51-15.2-50.1-1.6 1.6-11 34.3-24.6 85.7-5 19.2-16.7 26.8-21.1 14zm202.3 3.6c0-5.4 47.7-121.5 51.6-125.5 2.7-2.8 6-2.6 9 .3 3.7 3.7 51.1 120.7 51.1 126.2 0 .7-3 1.3-6.8 1.3-3.9 0-9.2-8-12.4-18.7l-5.5-18.6h-62.2l-6.2 18.6c-3.3 10.3-8.9 18.7-12.3 18.7-3.5 0-6.3-1-6.3-2.3zm77.9-54.7a2451 2451 0 01-10.9-30.3c-4.8-13.4-9.8-24.4-11.3-24.4s-6.5 11-11.3 24.4l-10.7 30.3c-1.5 4.1 4.8 5.8 22.2 5.8 17.5 0 23.6-1.6 22-5.8zm123.2-7l1.3-64 18.6-1.5c61.2-5 94.2 22.3 67.7 56-6.1 7.9-7.5 13-4.3 16.3 2.6 2.6 6.4 16.6 8.3 31.1 3.1 22.8 2.6 26.3-3.8 25-5.1-1-7.8-7.6-8.9-22.2-2-28.7-6.6-32.6-38.6-32.6h-27.3v28c0 21.9-1.6 27.9-7.1 27.9-6.1 0-7-9.2-5.9-64zm75.4-13.1c8.7-8.7 9.6-25.8 1.8-33.7-3.2-3.1-18.3-5.6-35-5.6h-29.2v46.6h27.6c18.8 0 29.8-2.3 34.8-7.3zm119 12v-65.2h41.9c34.1 0 41.9 1.3 41.9 7 0 5.6-7.3 7-37.5 7h-37.5l1.4 22 1.5 22.1 33.7 1.4c44.5 1.8 43.6 10.3-1.2 10.3h-34.9v51.1h39.6c23.2 0 39.5 2 39.5 4.7 0 2.8-17.8 4.7-44.2 4.7h-44.2zm-708.3-366.5c-49.8-83.8-93.4-157.6-96.8-164l-6.1-11.6-3.4 14c-1.9 7.6-9.2 69.9-16.2 138.3-14.2 137.5-13.8 142.7 12.6 151.1 12.4 4-1.2 5-65.8 5-76.5.1-80-.3-58.5-6.1a92.2 92.2 0 0034.2-17.7c13.5-13.5 12.7-8.5 69-451 4.8-37.3 10.3-63.9 13.2-63.8 2.7.1 23.7 31.7 46.7 70.2 103.5 173.5 187.4 308.8 191 308.2 2.2-.3 53.3-85 113.6-188 60.3-103.2 111.8-188.2 114.4-189 4.6-1.6 11.3 44.3 53.7 370.7a1978 1978 0 0018.2 121.4c6 21.6 17.4 31.5 45 39 20.3 5.6 11 6.2-93.8 6.2-80 0-111.6-1.3-101.2-4.3 30.2-8.8 30.3-9.5 14-163.5-8.1-76.1-15.9-138.4-17.3-138.3-3.3 0-127.6 214.8-150.2 259.5-9.6 19-17.5 40.4-17.5 47.7 0 7.2-1.8 14.3-4.1 15.7-2.3 1.4-44.9-66-94.7-149.7zM240 3572c-52.1-88.1-95.8-160.3-97-160.5-1.4-.1-9.1 62-17.3 138.2-16.6 154-16.6 154.7 13.8 163.5 10.8 3.1-8 4.3-66.4 4.3-75.4 0-79.8-.4-59.1-6a107 107 0 0029.3-12c16.3-13.6 13.6 1.6 53-306.8 27.2-213.8 27.3-214 32.2-214 2.1 0 56 85.8 119.6 190.7 63.7 104.9 117 190.7 118.2 190.7 1.3 0 52.4-85.8 113.6-190.7 61.1-104.9 112.7-190.7 114.7-190.7 5.2 0 6.2 6.3 34.4 223.3 34.7 265.8 36.7 277.7 49.4 291.2 5.7 6.1 20 14 31.8 17.7 19.7 6 12.5 6.5-92.7 6.8-107.5.2-113-.2-96.5-7 11.7-5 18.5-11.2 20.4-19 3-11.7-18.9-242-25.5-268.7-3.1-12.8-8.4-5.2-73.6 107-82.2 141.7-87.8 152.3-95 180.8-3 11.8-7 21.5-9 21.5S292 3660.2 240 3572zm3136.6 155c-97.8-8-161.7-49.3-191.5-123.6-10.4-26.1-10.8-32.4-13.1-207.6l-2.5-180.8-11-8.8c-6-5-17-9-24.4-9-7.4 0-13.4-2-13.4-4.6 0-3 39.6-4.6 109.6-4.6 71.9 0 108.6 1.6 106.7 4.6-1.5 2.6-8.6 4.7-15.7 4.7-7.5 0-17.2 4.5-23.2 11l-10.4 11 1.4 183.3c1.4 178.1 1.7 183.8 11.8 205.6 16.5 35.9 36.3 57.2 67.3 72.7 24.3 12.1 33.7 14.2 64.1 14.2 44.6 0 72.6-9.3 99.6-33 26.4-23.3 43.7-59.4 49.4-103 6.3-48.7 6-319.6-.5-338-5.7-16.4-16.3-23.8-33.8-23.8-6.4 0-13-2.1-14.6-4.7-1.8-3 24.8-4.6 76.5-4.6 49.9 0 79.4 1.7 79.4 4.6 0 2.6-6 4.7-13.4 4.7s-18.4 4-24.5 8.9l-11 8.8-2.3 185.7-2.3 185.6-17.5 35.5c-40.9 82.6-116 115.5-240.7 105.2zm483.9 0c-55.2-4.5-99.5-19.6-116.9-39.5-11-12.8-14-36.4-8.6-69.8 4.6-29.2 17-62.2 23.4-62.2 1.8 0 4.2 11 5.3 24.4a126.4 126.4 0 0072 104.2c22 10.7 32.3 12.8 63.9 12.9 64.6.1 104-27.3 108.7-75.8 4-42.3-6.3-52.8-134.8-137.5-88-58-101-70-119-109.1-10-21.8-11.3-29.5-9-59 4.4-58.4 29.5-98.4 76.1-121.2 30.5-15 80.4-18.5 173.8-12.5l58.2 3.7-.6 14c-1.7 44.4-7.8 95.4-11.5 95.4-2.3 0-4.2-4.3-4.2-9.5 0-14.9-17.1-44.7-31.3-54.6-20.4-14.2-42-19.7-77.3-19.7-41 0-68.5 12.1-85.4 37.8-10 15-11.5 21.7-9.5 40.1 3.3 29.2 19.4 43.5 125.8 112 91.6 59.2 118.7 84.2 131 121.5 16.8 50.4 2 114-35.5 152.3-40 40.9-108.9 59.3-194.6 52.2zm-3080.1-10.8c0-1.2 8.4-4.4 18.8-7.2 36.2-9.8 40-16.3 137.5-237.2 109-246.7 122.6-279 122.7-289.7 0-4.4 2.7-8 6-8 3.1.2 57 113.4 119.6 251.7 98 216.3 116.3 253.7 131.5 267.4 9.6 8.7 22.3 15.9 28 16a38 38 0 0117.4 4.5c4.6 3-35 4.4-116.3 4.2-98-.2-120.8-1.4-111.1-5.7 33.6-15.1 34.6-28.5 7.2-93.9l-19.5-46.5-88.6-1.3-88.6-1.2-22.6 55.8c-19.8 48.7-22 57.3-17.3 67.7 3 6.5 9.1 13 13.6 14.4 28.4 9 20.4 10.6-55.8 10.8-45.4.2-82.5-.6-82.5-1.8zm325.6-182.5c0-3-49-130-63.5-164.3l-7-16.3-11.6 28c-6.5 15.3-23 54.7-37 87.5a790.6 790.6 0 00-25 64c0 2.4 31 4.3 72 4.3 39.7 0 72.1-1.4 72.1-3.2zm293.2 182.7c0-1 10.9-4.3 24.2-7.1 13.3-2.9 31-10.4 39.2-16.7 15.5-11.8 169.2-225.7 169.2-235.4 0-8-130-208.2-148.8-229.3-18.1-20-39-30.6-60.4-30.6-7.8 0-14.1-2.1-14.1-4.7 0-3 45.7-4.7 128-4.7 82.1 0 127.9 1.7 127.9 4.7 0 2.6-5 4.7-11 4.7-13.8 0-26.2 13.5-26.2 28.6 0 11 90.3 157.5 97 157.4 3.4 0 10.3-10.4 62-92.5 20-31.7 36.4-61.1 36.4-65.4 0-11.9-17.6-28.1-30.4-28.1-6.4 0-11.5-2.1-11.5-4.7 0-3 34.1-4.7 93-4.7 51.2 0 93.1 1.9 93.1 4.1 0 2.2-9.6 5.1-21.3 6.4a75.7 75.7 0 00-38.4 16c-20.4 16.2-155.3 214.7-150.9 222 37.2 61.8 150.8 233 163 245.6 16.1 16.9 24.7 21.5 57 30.8 11.8 3.4-19 4.7-114 4.8-121.2.2-129.1-.2-113.2-6.8 11.3-4.7 18.7-11.6 21.8-20.5 4.1-12 2-17.5-19.8-52l-54.3-86.2c-16.5-26.2-31.5-47.6-33.2-47.7-7.4-.2-115.2 165.6-115.3 177.2-.2 13.7 9.8 24 30.1 31.1 10.7 3.8-9 5-82.6 5.3-53 .2-96.5-.5-96.5-1.6zm695-4.6c10-3.1 23-11.4 29.1-18.4l11-12.8v-456.1l-13.6-13.6c-9.1-9.2-18.3-13.6-28-13.6-7.8 0-14.2-2.1-14.2-4.7 0-3 41-4.7 114-4.7 72.9 0 114 1.7 114 4.7 0 2.6-5.4 4.7-12 4.7-16.9 0-28.7 7.4-36.8 23.1-6 11.6-7 46.5-7 233.7 0 208.6.4 220.8 8.9 234.7 5.8 9.5 16 17 29 21.7 19.1 6.7 14 7.1-96.1 7-97.7 0-113.5-1-98.3-5.7z"/></svg>