<svg version="1.1" id="Capa_1" xmlns="http://www.w3.org/2000/svg" x="0" y="0" viewBox="0 0 968 196" xml:space="preserve"><style>.st0{fill:#01f603}</style><path class="st0" d="M300 149h2v1h-44v-1h2l4-2 2-5-6-54-34 65h-1l-39-64-5 53c-1 2 0 3 1 5l4 2h3v1h-32v-1h3c3 0 5-1 7-3 2-1 3-4 4-7l12-95h1l47 76 44-76h1l13 95c1 3 2 6 4 7 2 2 4 3 7 3zm126 0h1v1h-47v-1h1l5-2 1-4v-4l-8-18h-35l-7 18-1 4 2 4 4 2h2v1h-32v-1h1l7-2 6-7 34-78c5-9 7-16 8-19h1l44 97 6 7 7 2zm-79-34h30l-15-37-15 37zm154 34c3 0 4-1 5-3l1-3-1-3-20-33-22 32-1 4 1 3c1 2 3 3 5 3h2v1h-37v-1h2c6 0 11-3 15-9l29-41-27-43-7-6c-3-2-5-3-8-3h-2v-1h50v1h-2c-2 0-4 1-5 3l-1 3 1 3 19 29 18-28 1-4-1-3c-1-2-3-3-5-3h-2v-1h37v1h-3c-3 0-5 1-8 3-2 1-5 3-6 6l-26 38 30 46c2 3 4 5 7 6 3 2 5 3 8 3h2v1h-51v-1h2zm68 0c3 0 5-1 7-3s3-4 3-7V57c0-3-1-5-3-7s-4-3-7-3h-2v-1h46v1h-2a9 9 0 00-10 10v82c0 3 1 5 3 7s4 3 7 3h2v1h-46v-1h2zm201 0h2v1h-45v-1h3l4-2c1-2 2-3 1-5l-5-54-34 65h-2l-38-64-6 53 2 5 4 2h2v1h-31v-1h3c2 0 5-1 7-3 2-1 3-4 3-7l13-95h1l46 76 45-76h1l13 95c0 3 2 6 4 7 2 2 4 3 7 3zM884 47h-2l-6 2-2 5v58c0 13-4 22-12 30-7 7-18 10-31 10-16 0-28-3-36-10s-13-17-13-29V55c0-3-1-5-4-7l-3-1h-3v-1h43v1h-2l-6 2-2 5v57c0 11 2 19 8 25 5 7 12 10 21 10s16-3 21-9c6-6 8-14 8-24V54c0-2-1-5-4-6l-3-1h-3v-1h31v1zm9 89c0-7 1-13 4-18h1v2c0 7 3 13 8 18s11 8 20 8c7 0 12-2 16-5 3-3 5-7 5-12 0-3-1-5-3-8l-9-7-26-17c-9-7-14-15-14-24v-3c1-8 4-14 9-19 6-5 13-7 22-7l21 1h9l-2 22h-1c0-5-2-9-6-12s-9-5-15-5c-8 0-14 2-17 7a11 11 0 00-2 13l9 8 29 19c9 5 13 13 13 23s-3 18-10 24c-8 5-17 8-29 8l-19-2c-6-2-10-4-12-7l-1-7zM132 44c-1 1-6 21-1-8 1-8-3-14-9-19A79 79 0 0063 3C49 5 32 9 23 20c-4 4-6 11-5 16 5 29 0 9-1 8 0 0-9 85-7 94 2 7 38 30 50 38l6 18-2-15s-5-46-5-81L28 72l-2-6 40 22 3 38c0 2 6 6 6 6l6-6 3-38 39-22-2 6-31 26c0 20-1 49-3 63l-4 33 6-18c11-7 48-31 50-38 2-9-7-94-7-94zM66 7c-8 3-16 7-22 12-5 4-8 8-9 13-2 4-2 8-2 12v7h-2C5 17 64 8 69 6l-3 1z"/></svg>