<svg xmlns="http://www.w3.org/2000/svg" viewBox="0 0 511.9 511.9" style="fill: darkgray;background: white;"><path d="M509.4 159.4l-24.2-24.1-18-18.2a8.5 8.5 0 00-12.2 0 8.5 8.5 0 01-12-12 8.5 8.5 0 000-12l-24.2-24.2a8.5 8.5 0 00-12 0 8.8 8.8 0 01-12.1 0 8.5 8.5 0 010-12.1 8.5 8.5 0 000-12L352.5 2.4a8.5 8.5 0 00-12.1 0L2.5 340.4a8.5 8.5 0 000 12l42.2 42.3a8.5 8.5 0 0012.1 0 8.5 8.5 0 0112 12 8.5 8.5 0 000 12.1L93 443a8.5 8.5 0 0012 0 8.8 8.8 0 0112.1 0 8.5 8.5 0 010 12 8.5 8.5 0 000 12.1l18.1 18.1 24.2 24.1a8.5 8.5 0 0012 0l338-337.9a8.5 8.5 0 000-12zM134.2 460a25.6 25.6 0 00-34.1-34l-14.2-14.2a25.6 25.6 0 00-34.1-34.2l-31.2-31.2L346.4 20.6l31.2 31.2a25.6 25.6 0 0034.2 34.1l14.1 14.2a25.6 25.6 0 0034.1 34.1l7.1 7-325.8 326-7-7.2zm31.2 31.3l-12-12.1 12-12 12 12-12 12zm24.2-24.2l-12.1-12L455 177.4l12.1 12-277.5 277.6zm289.6-289.6l-12-12 12-12.2 12 12.1-12 12z"/><path d="M62.8 340.4a8.4 8.4 0 00-12 0 8.4 8.4 0 00-2.5 6c0 2.3.9 4.5 2.5 6a8.3 8.3 0 0012 0c.8-.7 1.5-1.7 1.9-2.7.4-1 .7-2.1.7-3.2 0-1.2-.3-2.3-.7-3.4-.4-1-1-2-1.9-2.7zM346.5 65.4a8.8 8.8 0 008.5-8.6c0-2.2-1-4.4-2.6-6a8.7 8.7 0 00-12 0 8.4 8.4 0 00-2.5 6c0 2.3.9 4.4 2.5 6a8.5 8.5 0 006 2.6zM129.2 322.3a17 17 0 00-24.1 0L87 340.4a17 17 0 000 24.1l48.2 48.3a17 17 0 0024.2 0l18-18a17 17 0 000-24.2l-48.2-48.3zm36.2 60.3l-18 18.1L99 352.5l18.1-18.1 48.3 48.2zM183.5 268a17 17 0 00-24.1 0L141.3 286a17 17 0 000 24.1l48.3 48.3a17 17 0 0024 0l18.2-18.1a17 17 0 000-24.1L183.5 268zm18.1 78.4l-48.3-48.2 18.1-18.1 48.3 48.2-18 18.1zM237.8 213.7a17.5 17.5 0 00-24.1 0l-18.1 18a17 17 0 000 24.2l48.3 48.3a17 17 0 0024 0l18.2-18.1a17 17 0 000-24.1l-48.3-48.3zM256 292L207.7 244l18-18.1L274 274l-18 18.1zM364.5 87a17 17 0 00-24.1 0l-90.5 90.5a17 17 0 000 24.1l48.3 48.3a17.1 17.1 0 0024.1 0l90.5-90.5a17 17 0 000-24.2L364.5 87zm36.2 60.3l-12 12-6-6a8.5 8.5 0 00-12.1 12.1l6 6-12 12.1-6.1-6a8.5 8.5 0 10-12 12l6 6-12.1 12.2-6-6a8.5 8.5 0 00-12.1 12l6 6-18 18.1-48.3-48.2L352.5 99l48.2 48.3z"/><path d="M322.3 153.3l-24.1 24.2a8.5 8.5 0 1012 12l24.2-24a8.5 8.5 0 00-12.1-12.2zM343.9 135.3a8.6 8.6 0 0014.6 6 8.6 8.6 0 002.5-6c0-1.2-.2-2.3-.6-3.4a8.6 8.6 0 00-14-2.7 8.7 8.7 0 00-2.5 6z"/></svg>