<svg xmlns="http://www.w3.org/2000/svg" xml:space="preserve" version="1.1" viewBox="0 0 5265 1371" id="svg724" clip-rule="evenodd" fill-rule="evenodd" image-rendering="optimizeQuality" shape-rendering="geometricPrecision" text-rendering="geometricPrecision" style="height: 43px;width: 150px;vertical-align: middle;"><defs id="defs372"></defs><g id="layer2" transform="translate(-2228 -1764)"><path id="path814-7" d="M4156 2395c0-347-432-631-964-631s-964 283-964 631v37c0 369 377 667 964 667 590 0 964-298 964-667v-37z" class="fil3" clip-rule="evenodd" fill="#3a4882" fill-rule="nonzero" stroke-width="1" image-rendering="optimizeQuality" shape-rendering="geometricPrecision" text-rendering="geometricPrecision"></path><path id="path816-6" d="M4119 2394c0 328-415 593-927 593s-927-266-927-593c0-328 415-593 927-593s927 266 927 593z" class="fil4" clip-rule="evenodd" fill="#2d9fd9" fill-rule="nonzero" stroke-width="1" image-rendering="optimizeQuality" shape-rendering="geometricPrecision" text-rendering="geometricPrecision"></path><path id="path818-4" d="M2884 2207c0 1-10 11-4 18 15 19 60 29 106 19 27-6 62-34 96-61 37-29 73-58 109-70 39-12 63-7 80-2 18 5 39 17 73 42 63 48 319 270 363 309 36-16 193-84 408-131a503 503 0 00-194-304c-147 62-327 94-502 8-1 0-96-45-190-43-139 3-200 64-264 127l-81 87z" class="fil5" clip-rule="evenodd" fill="#fefefe" fill-rule="nonzero" stroke-width="1" image-rendering="optimizeQuality" shape-rendering="geometricPrecision" text-rendering="geometricPrecision"></path><path id="path820-0" d="M3696 2488c-3-3-300-262-367-313-39-29-61-37-83-40-12-2-28 1-40 4-31 9-72 36-109 65-38 30-73 58-106 66-42 9-93-2-117-18-10-6-16-14-19-21-9-20 7-36 10-39l82-89 29-28c-26 3-51 10-75 17-30 8-58 16-87 16-12 0-77-11-89-14-74-20-139-40-236-85a528 528 0 00-217 315l55 15c264 59 346 119 361 132 16-18 39-29 65-29 29 0 55 15 71 37 15-12 36-22 63-22 12 0 25 2 38 7 30 10 45 30 53 48 10-5 22-8 37-8 14 0 29 3 44 10 49 21 56 69 52 105l10-1c58 0 105 47 104 105 0 18-5 35-12 49 16 9 56 29 91 24 28-4 39-13 42-19 3-4 5-8 3-11l-74-83s-12-12-8-16c4-5 12 2 17 6 38 32 84 79 84 79 1 1 4 7 21 10a76 76 0 0072-27l-1 1c19-24-2-49-2-49l-87-98s-12-11-8-16c4-4 12 2 17 7 27 23 66 62 104 98 7 5 40 26 83-3 26-17 32-38 31-54-2-21-18-36-18-36l-119-119s-13-11-8-16c4-5 12 2 17 6 38 32 140 125 140 125 1 1 37 26 80-2 16-10 26-25 26-43 1-30-20-48-20-48z" class="fil5" clip-rule="evenodd" fill="#fefefe" fill-rule="nonzero" stroke-width="1" image-rendering="optimizeQuality" shape-rendering="geometricPrecision" text-rendering="geometricPrecision"></path><path id="path822-6" d="M3121 2639c-18 0-39 11-41 9-1-1 1-8 3-13 2-4 26-77-33-102-45-19-73 2-82 12-3 3-4 2-4-1-1-13-7-49-46-61a90 90 0 00-101 36 65 65 0 10-64 74c17 0 33-7 45-18v2c-3 16-8 74 53 98 24 9 45 2 62-10 5-4 6-2 5 3-2 15 1 47 45 65 34 14 54 0 68-13 6-5 7-4 8 4 2 43 38 78 81 78 45 0 81-36 81-81s-36-81-81-81z" class="fil5" clip-rule="evenodd" fill="#fefefe" fill-rule="nonzero" stroke-width="1" image-rendering="optimizeQuality" shape-rendering="geometricPrecision" text-rendering="geometricPrecision"></path><path id="path824-4" d="M3121 2796c-41 0-74-32-75-72 0-3 0-13-8-13-3 0-6 2-9 5-9 8-20 17-37 17-8 0-16-2-24-5-43-17-44-47-42-59 0-3 1-6-2-9l-3-2h-3l-7 3c-12 9-24 13-37 13-7 0-14-1-20-4-57-22-52-76-49-92 0-3 0-6-2-7l-4-3-4 4a56 56 0 01-41 16 59 59 0 010-118c29 0 54 22 58 51l2 16 9-13a83 83 0 0194-33c35 11 41 42 42 55 1 8 6 8 7 8 3 0 5-2 7-4 7-7 21-18 43-18 10 0 21 2 32 7 55 24 30 94 30 95-5 12-5 17 0 20l2 1h2l11-3c8-3 19-7 30-7 42 0 76 34 76 76s-34 75-76 75zm587-339c-91-80-303-264-360-307-33-25-55-38-75-43-9-3-21-6-37-6-15 0-30 3-47 8-37 12-74 41-110 69l-2 1c-33 26-68 54-94 60-11 3-23 4-35 4-29 0-55-8-65-21-2-2-1-5 3-10l1-1 80-87c63-63 123-123 260-126h7c85 0 171 38 180 43a558 558 0 00515-6l-33-26a532 532 0 01-467-1c-4-2-98-46-196-46h-8c-115 3-180 44-224 79-42 1-79 11-112 20-29 8-54 15-79 15l-30-1c-28-1-170-36-283-78l-33 25c118 48 261 86 306 89l39 2c30 0 60-8 89-16l56-14-16 16-82 88c-6 7-20 24-11 45 4 9 11 17 22 24a169 169 0 00122 18c34-8 70-36 108-67 30-24 73-55 106-64 9-3 21-4 30-4h8c22 3 43 10 81 38 67 50 364 310 367 313 0 0 19 16 18 44-1 15-9 29-24 38-13 8-26 12-39 12-20 0-34-9-34-10l-140-126c-6-5-12-9-18-9-3 0-6 1-8 4-6 7 1 17 8 24l119 119s15 14 16 32c1 20-9 36-28 49-14 9-28 14-42 14-18 0-31-8-34-10l-17-17c-31-31-63-62-87-82-6-5-12-9-18-9-3 0-6 1-7 3-3 3-5 8 2 17l6 7 87 97c1 1 18 21 2 42l-3 4-8 8a70 70 0 01-42 13l-12-1c-9-2-14-4-17-7l-1-1c-5-5-48-50-85-80-5-4-11-9-17-9-3 0-6 1-8 4-7 8 4 20 8 24l74 82-3 5c-3 4-12 13-38 16l-10 1c-28 0-57-13-72-21a110 110 0 00-99-157h-4c2-28-2-80-56-104-16-7-31-10-46-10-12 0-23 2-34 6a91 91 0 00-54-46 109 109 0 00-102 13 93 93 0 00-139-8c-23-18-114-76-359-131l-56-15c-3 13-5 27-6 40l54 13c250 55 332 113 346 124a94 94 0 00104 128 111 111 0 00104 88l21-3c7 18 23 40 58 54 12 5 25 8 37 8 10 0 19-2 29-5a110 110 0 00181 35c18 10 55 28 93 28l14-1c38-5 55-20 63-31l4-6c9 3 19 5 30 5 21 0 40-7 60-22 20-14 34-34 36-52v-1l20 2c21 0 42-7 62-20 38-25 45-58 45-80l20 2c20 0 39-6 58-18 24-15 38-39 40-66 1-18-3-37-13-53 64-28 212-82 385-121l-5-40c-210 47-366 114-406 132z" class="fil3" clip-rule="evenodd" fill="#3a4882" fill-rule="nonzero" stroke-width="1" image-rendering="optimizeQuality" shape-rendering="geometricPrecision" text-rendering="geometricPrecision"></path><path id="path826-4" d="M7355 2243a87 87 0 01-73 34c-32 0-56-11-73-34-17-22-26-54-26-96 0-41 8-73 26-95 17-22 41-33 73-33s56 11 73 33 25 54 25 95-8 73-25 96zm86-250c-35-44-88-65-159-65s-124 22-158 65c-35 44-52 95-52 155s17 112 52 155 88 64 158 64c71 0 124-22 159-64 35-43 52-95 52-155 0-59-17-111-52-155z" class="fil3" clip-rule="evenodd" fill="#3a4882" fill-rule="nonzero" stroke-width="1" image-rendering="optimizeQuality" shape-rendering="geometricPrecision" text-rendering="geometricPrecision"></path><path id="path828-8" d="M6497 2192c-1 36-11 61-31 75s-42 21-65 21c-15 0-28-4-38-12s-16-22-16-40c0-21 8-36 26-46 10-6 27-11 50-15l25-5 29-7 21-10v40zm55-236c-35-18-76-27-121-27-70 0-119 18-148 55-18 23-28 53-31 89h104c3-16 8-29 15-38 11-13 29-19 55-19 23 0 41 3 53 10 12 6 18 18 18 35 0 14-8 24-23 31-9 4-23 7-43 9l-37 5c-42 5-74 14-96 27-40 23-59 60-59 110 0 39 12 70 37 91 24 21 56 30 93 32 236 11 233-124 236-152v-155c0-50-18-84-53-102z" class="fil3" clip-rule="evenodd" fill="#3a4882" fill-rule="nonzero" stroke-width="1" image-rendering="optimizeQuality" shape-rendering="geometricPrecision" text-rendering="geometricPrecision"></path><path id="path830-0" d="M6014 2022c27 0 47 8 60 25 9 12 14 26 16 42h116c-6-59-27-100-62-123s-79-35-134-35c-64 0-115 20-151 59s-55 94-55 165c0 63 16 114 49 153s85 59 154 59c70 0 123-24 159-71 22-29 35-60 38-93h-116c-2 22-9 39-20 53s-30 20-57 20c-38 0-63-17-77-51-7-18-11-43-11-73 0-32 4-57 11-76 14-36 40-54 79-54z" class="fil3" clip-rule="evenodd" fill="#3a4882" fill-rule="nonzero" stroke-width="1" image-rendering="optimizeQuality" shape-rendering="geometricPrecision" text-rendering="geometricPrecision"></path><path id="path832-1" d="M5774 1931c-239 0-225 212-225 212v215h109v-202c0-33 4-58 12-73 15-28 44-42 87-42h13l18 2v-110l-9-1h-5z" class="fil3" clip-rule="evenodd" fill="#3a4882" fill-rule="nonzero" stroke-width="1" image-rendering="optimizeQuality" shape-rendering="geometricPrecision" text-rendering="geometricPrecision"></path><path id="path834-5" d="M5229 2043c15-16 37-24 64-24 25 0 47 7 64 22s27 37 29 65h-186c4-27 13-48 29-64zm146 202c-5 7-9 12-15 16-15 13-36 16-61 16-23 0-41-4-58-14-27-17-42-45-44-86h300c0-36-1-63-4-82-5-32-16-61-33-85-19-28-43-48-71-61-29-13-61-19-97-19-61 0-110 19-147 57-38 38-57 93-57 164 0 76 21 131 63 165s90 51 145 51c66 0 118-20 155-60 20-21 32-42 38-63h-115z" class="fil3" clip-rule="evenodd" fill="#3a4882" fill-rule="nonzero" stroke-width="1" image-rendering="optimizeQuality" shape-rendering="geometricPrecision" text-rendering="geometricPrecision"></path><path id="path836-3" d="M5045 2358h-99v-250c0-23-8-77-73-77-44 0-75 31-75 77v250h-99v-250c0-23-7-77-72-77-44 0-75 31-75 77v250h-99v-247c0-103 68-181 174-181 53 0 95 22 123 58 29-35 73-58 123-58 108 0 172 75 172 181z" class="fil3" clip-rule="evenodd" fill="#3a4882" fill-rule="nonzero" stroke-width="1" image-rendering="optimizeQuality" shape-rendering="geometricPrecision" text-rendering="geometricPrecision"></path><path id="path838-6" d="M6909 2244c-16 23-39 34-70 34s-53-11-68-34-22-56-22-94c0-35 7-65 22-89s38-36 69-36c21 0 39 7 55 20 25 22 38 61 38 111 0 36-8 65-24 88zm130-443s-109-12-109 76v116c-12-19-28-35-47-46s-42-16-67-16c-54 0-97 20-130 61-32 40-49 99-49 169 0 61 16 111 49 150s97 56 155 56c200 0 198-171 198-171v-394z" class="fil3" clip-rule="evenodd" fill="#3a4882" fill-rule="nonzero" stroke-width="1" image-rendering="optimizeQuality" shape-rendering="geometricPrecision" text-rendering="geometricPrecision"></path><path id="path840-1" d="M5427 2753c0-41-8-72-24-94a80 80 0 00-69-33c-29 0-51 11-67 33-15 20-22 52-22 94 0 40 8 70 24 90 16 22 39 33 69 33 28 0 49-11 65-33s24-52 24-90zm-182 294c0 15-5 27-16 38a51 51 0 01-38 16h-54v-377c0-73 25-119 65-150 27-21 67-40 142-40 51 0 110 20 142 59 36 44 51 93 51 157 0 66-16 120-48 161-32 40-73 60-123 60-27 0-50-5-70-14-21-11-38-27-51-49v141z" class="fil4" clip-rule="evenodd" fill="#2d9fd9" fill-rule="nonzero" stroke-width="1" image-rendering="optimizeQuality" shape-rendering="geometricPrecision" text-rendering="geometricPrecision"></path><path id="path842-9" d="M6077 2753c0 72 21 112 63 120s73-2 92-29c9-11 16-30 20-54 4-25 4-49 1-73-4-24-12-46-26-65s-33-28-60-28c-36 0-60 13-72 39-13 26-19 56-19 90zm179 181v-27c-19 29-44 48-76 55s-63 5-95-8c-31-13-58-36-81-70-22-34-34-79-34-135 0-65 15-118 45-158s78-59 143-61 103 13 139 41c40 31 64 78 64 151v222c0 71-49 201-204 190-96-7-149-46-179-135h114c8 15 21 26 38 34s34 10 52 6c17-4 33-14 47-31s22-42 24-76z" class="fil4" clip-rule="evenodd" fill="#2d9fd9" fill-rule="nonzero" stroke-width="1" image-rendering="optimizeQuality" shape-rendering="geometricPrecision" text-rendering="geometricPrecision"></path><path id="path844-1" d="M5823 2797c-1 36-11 61-31 75s-42 20-65 20c-15 0-28-4-38-12s-16-22-16-40c0-21 9-36 26-46 10-6 27-11 50-15l25-5 29-7 21-10v40zm55-236c-35-18-76-27-121-27-70 0-119 18-148 55-18 23-28 53-31 89h104c3-16 8-29 15-38 11-13 29-19 55-19 23 0 41 3 53 10 12 6 18 18 18 35 0 14-8 24-23 31-9 4-23 7-43 9l-37 5c-42 5-74 14-96 27-40 23-59 60-59 110 0 39 12 70 37 91 24 21 56 30 93 32 236 11 233-124 236-152v-155c0-50-18-84-53-102z" class="fil4" clip-rule="evenodd" fill="#2d9fd9" fill-rule="nonzero" stroke-width="1" image-rendering="optimizeQuality" shape-rendering="geometricPrecision" text-rendering="geometricPrecision"></path><path id="path846-5" d="M6687 2845a87 87 0 01-73 34c-32 0-56-11-73-34-17-22-26-54-26-96 0-41 8-73 26-95 17-22 41-33 73-33s56 11 73 33 25 54 25 95-8 73-25 96zm86-250c-35-44-88-65-159-65s-124 22-158 65c-35 44-52 95-52 155s17 112 52 155 88 64 158 64c71 0 124-22 159-64 35-43 52-95 52-155 0-59-17-111-52-155z" class="fil4" clip-rule="evenodd" fill="#2d9fd9" fill-rule="nonzero" stroke-width="1" image-rendering="optimizeQuality" shape-rendering="geometricPrecision" text-rendering="geometricPrecision"></path></g></svg>