<svg xmlns="http://www.w3.org/2000/svg" viewBox="0 0 512 512" style="fill: darkgray;background: white;"><path d="M495 0H17A17 17 0 000 17v478a17 17 0 0017 17h478a17 17 0 0017-17V17a17 17 0 00-17-17zM17 495V17h478v478H17z"/><path d="M460.8 128a8.5 8.5 0 100-17h-25.6V93.8a17 17 0 00-17-17.1H401V51.2a8.5 8.5 0 00-17.1 0v25.6h-17V51.2a8.5 8.5 0 10-17.1 0v25.6h-17.1V51.2a8.5 8.5 0 10-17 0v25.6h-17.1V51.2a8.5 8.5 0 10-17.1 0v25.6h-17V51.2a8.5 8.5 0 10-17.1 0v25.6h-17.1V51.2a8.5 8.5 0 10-17 0v25.6h-17.1V51.2a8.5 8.5 0 10-17.1 0v25.6h-17V51.2a8.5 8.5 0 00-17.1 0v25.6H128V51.2a8.5 8.5 0 10-17 0v25.6H93.8a17 17 0 00-17.1 17V111H51.2a8.5 8.5 0 100 17.1h25.6v17H51.2a8.5 8.5 0 000 17.1h25.6v17.1H51.2a8.5 8.5 0 100 17h25.6v17.1H51.2a8.5 8.5 0 100 17.1h25.6v17H51.2a8.5 8.5 0 100 17.1h25.6v17.1H51.2a8.5 8.5 0 100 17h25.6v17.1H51.2a8.5 8.5 0 100 17.1h25.6v17H51.2a8.5 8.5 0 100 17.1h25.6V384H51.2a8.5 8.5 0 000 17h25.6v17.1a17 17 0 0017 17.1H111v25.6a8.5 8.5 0 1017.1 0v-25.6h17v25.6a8.5 8.5 0 0017.1 0v-25.6h17.1v25.6a8.5 8.5 0 1017 0v-25.6h17.1v25.6a8.5 8.5 0 1017.1 0v-25.6h17v25.6a8.5 8.5 0 1017.1 0v-25.6h17.1v25.6a8.5 8.5 0 1017 0v-25.6h17.1v25.6a8.5 8.5 0 1017.1 0v-25.6h17v25.6a8.5 8.5 0 1017.1 0v-25.6H384v25.6a8.5 8.5 0 0017 0v-25.6h17.1a17 17 0 0017.1-17V401h25.6a8.5 8.5 0 000-17.1h-25.6v-17h25.6a8.5 8.5 0 100-17.1h-25.6v-17.1h25.6a8.5 8.5 0 100-17h-25.6v-17.1h25.6a8.5 8.5 0 100-17.1h-25.6v-17h25.6a8.5 8.5 0 100-17.1h-25.6v-17.1h25.6a8.5 8.5 0 100-17h-25.6v-17.1h25.6a8.5 8.5 0 100-17.1h-25.6v-17h25.6a8.5 8.5 0 000-17.1h-25.6V128h25.6zm-42.7 290.1H94V94H418V418z"/><path d="M153.6 196.3a42.7 42.7 0 100-85.4 42.7 42.7 0 000 85.4zm0-68.3a25.6 25.6 0 110 51.2 25.6 25.6 0 010-51.2z"/><path d="M153.6 162.1a9 9 0 006-2.4l1-1.3c.4-.5.7-1 .9-1.6l.5-1.5.1-1.7a8.5 8.5 0 00-14.6-6 8 8 0 00-1.7 2.8 7 7 0 00-.7 3.2 9 9 0 002.4 6 8.8 8.8 0 006.1 2.5z"/></svg>