<svg version="1.1" id="OBJECTS" xmlns="http://www.w3.org/2000/svg" x="0" y="0" viewBox="0 0 500 500" xml:space="preserve"><style>.st2{fill:#999}</style><path d="M495.2 94.4H114.8l1-22.2H474c12 0 21.8 10.1 21.2 22.2z" fill="red"/><path d="M495.2 94.4l-14 321.2a22 22 0 01-22 21H98.6l16.2-342.2h380.4z"/><path d="M473.8 412.5l.6 7.3c.7 9.1-6.5 16.9-15.7 16.9h-360L9.8 412.5h464z" opacity=".5"/><path class="st2" d="M338.4 210.2h-72.2c-11.4 0-20.6 8.5-20.6 19v72.6c0 10.5 9.2 19 20.6 19h72.2c11.3 0 20.5-8.5 20.5-19v-72.5c0-10.6-9.2-19.1-20.5-19.1zm0 0"/><path class="st2" d="M402.4 273.6c4.8 0 8.7-3.6 8.7-8 0-4.5-3.9-8-8.7-8h-19.7v-18.2h19.7c4.8 0 8.7-3.6 8.7-8s-3.9-8-8.7-8h-19.8a40.3 40.3 0 00-35-35v-19.3c0-4.4-3.8-8-8.6-8s-8.6 3.6-8.6 8V188h-19.5v-18.8c0-4.4-3.9-8-8.6-8s-8.7 3.6-8.7 8V188h-19.5v-18.8c0-4.4-3.9-8-8.6-8s-8.7 3.6-8.7 8v19.3a40.3 40.3 0 00-34.8 35h-20c-4.7 0-8.6 3.6-8.6 8s3.9 8 8.7 8h19.7v18.1H202c-4.8 0-8.7 3.6-8.7 8 0 4.5 3.9 8 8.7 8h19.7v18.2H202c-4.8 0-8.7 3.6-8.7 8s3.9 8 8.7 8H222a40.3 40.3 0 0034.8 35v19.2c0 4.5 3.9 8 8.7 8s8.6-3.5 8.6-8v-18.7h19.5v18.7c0 4.5 3.9 8 8.7 8s8.6-3.5 8.6-8v-18.7h19.5v18.7c0 4.5 3.9 8 8.6 8s8.7-3.5 8.7-8v-19.2a40.3 40.3 0 0034.9-35h19.8c4.8 0 8.7-3.6 8.7-8s-3.9-8-8.7-8h-19.7v-18.1h19.7zM369 304.2c0 14.5-12.6 26.2-28.1 26.2h-77c-15.6 0-28.2-11.7-28.2-26.2V227c0-14.5 12.6-26.2 28.2-26.2h77c15.5 0 28.1 11.7 28.1 26.2v77.3zm0 0"/></svg>