<svg xmlns="http://www.w3.org/2000/svg" viewBox="0 0 512 512" style="fill: darkgray;background: white;"><path d="M486.4 0H25.6A25.6 25.6 0 000 25.6v341.3a25.6 25.6 0 0025.6 25.6h162.1v68.3H128a34.2 34.2 0 00-34.1 34.1v8.6a8.5 8.5 0 008.5 8.5h307.2a8.5 8.5 0 008.5-8.5v-8.6a34.2 34.2 0 00-34.1-34.1h-59.7v-68.3h162.1A25.6 25.6 0 00512 367V25.6A25.6 25.6 0 00486.4 0zM384 477.9a17 17 0 0117 17H111a17 17 0 0117-17h256zm-179.2-17.1v-68.3h102.4v68.3H204.8zm290.1-93.9c0 4.7-3.8 8.6-8.5 8.6H25.6a8.5 8.5 0 01-8.5-8.6v-42.6h477.8v42.6zm0-59.7H17.1v-256h477.8v256zm0-273H17.1v-8.6c0-4.7 3.8-8.5 8.5-8.5h460.8c4.7 0 8.5 3.8 8.5 8.5v8.5z"/><path d="M45.1 356a8.7 8.7 0 0012.2 0c.7-.9 1.3-1.9 1.8-2.9.9-2 .9-4.4 0-6.5-.5-1-1-2-1.8-2.8a9 9 0 00-12.2 0c-.7.8-1.3 1.8-1.8 2.8a8 8 0 000 6.5c.5 1 1 2 1.8 2.8zM85.3 358.4a8.6 8.6 0 100-17.1 8.6 8.6 0 000 17.1zM119.5 358.4c.5 0 1.1 0 1.7-.2.5 0 1-.2 1.5-.5.5-.2 1-.4 1.5-.8l1.2-1a8.7 8.7 0 002.6-6 8.9 8.9 0 00-3.8-7.1c-.5-.4-1-.6-1.5-.8l-1.5-.5c-2.8-.6-5.7.3-7.8 2.3-.7.8-1.4 1.8-1.8 2.8a8.5 8.5 0 001.8 9.3 8.5 8.5 0 006 2.5zM264.5 418.1h-17a8.5 8.5 0 100 17.1h17a8.5 8.5 0 100-17zM40.4 136.3c3 .8 6.2 0 8.3-2.3l25.6-25.6a8.5 8.5 0 00-12-12L36.5 122a8.5 8.5 0 003.8 14.3zM86 80l.8 1.6 1 1.3a9 9 0 007.8 2.3l1.5-.6c.6-.1 1-.4 1.5-.7l1.3-1 1-1.3c.4-.5.6-1 .8-1.6.3-.4.4-1 .5-1.5l.2-1.7a9 9 0 00-2.5-6l-1.3-1c-.4-.4-1-.7-1.5-.9l-1.5-.5c-2.8-.5-5.7.3-7.8 2.3a9 9 0 00-2.3 7.8L86 80zM43 172.9a8.5 8.5 0 0014.2 3.8l93.9-93.9a8.5 8.5 0 10-12-12l-94 93.8A8.5 8.5 0 0043 173z"/></svg>