<svg xmlns="http://www.w3.org/2000/svg" viewBox="0 0 512 512" style="fill: darkgray;background: white;"><path d="M495 17h-17.1V8.6c0-4.7-3.9-8.5-8.6-8.5h-34.1a8.5 8.5 0 00-8.5 8.5v8.6h-17.1V8.5c0-4.7-3.8-8.5-8.5-8.5H264.5a8.5 8.5 0 00-8.5 8.5v8.6h-17V8.5c0-4.7-3.9-8.5-8.6-8.5h-34.1a8.5 8.5 0 00-8.6 8.5v8.6h-17V8.5c0-4.7-3.9-8.5-8.6-8.5H128a8.5 8.5 0 00-8.5 8.5v8.6H17A17 17 0 000 34V495A17 17 0 0017 512h478a17 17 0 0017-17V34a17 17 0 00-17-17zm-51.3 0h17.1v25.6h-17V17.2zm-170.6 0h119.4v42.7H273.1V17.1zm-68.3 0h17v25.6h-17V17.2zm-68.3 0h17.1v42.7h-17V17.1zM495 315.8h-25.6a8.5 8.5 0 00-8.5 8.6v42.6H307.2V247.5h153.6V290c0 4.7 3.8 8.6 8.5 8.6H495v17zm0-34.1h-17v-34.1a17 17 0 00-17.1-17.1H307.2a17 17 0 00-17 17V367a17 17 0 0017 17.1h153.6a17 17 0 0017-17v-34.2H495v162.1H17.1V34.1h102.4v25.6a17 17 0 0017 17.1v17a8.5 8.5 0 1017.1 0v-17a17 17 0 0017-17V34h17.1v8.6a17 17 0 0017.1 17h17a17 17 0 0017.1-17V34H256v25.6a17 17 0 0017 17.1h119.5a17 17 0 0017.1-17V34h17v8.6a17 17 0 0017.1 17h17.1a17 17 0 0017-17V34H495v247.5z"/><path d="M93.9 68.3a8.6 8.6 0 10-3.3-16.5 8.5 8.5 0 00-5.3 8 8.5 8.5 0 008.6 8.5zM42.7 68.3a8.6 8.6 0 10-3.3-16.5 8.5 8.5 0 00-5.3 8 8.5 8.5 0 008.6 8.5zM51.2 307.2h17a17 17 0 0017.1-17V136.4a17 17 0 00-17-17H51.2a17 17 0 00-17 17v153.6a17 17 0 0017 17.1zm0-170.7h17v153.6h-17V136.5zM119.5 307.2h17a17 17 0 0017.1-17V136.4a17 17 0 00-17-17h-17.1a17 17 0 00-17.1 17v153.6a17 17 0 0017 17.1zm0-170.7h17v153.6h-17V136.5zM85.3 349.9a25.6 25.6 0 10-51.2 0 25.6 25.6 0 0051.2 0zm-25.6 8.5a8.5 8.5 0 110-17 8.5 8.5 0 010 17zM119.5 401H85.3a17 17 0 00-17 17.1v34.2a17 17 0 0017 17h34.2a17 17 0 0017-17V418a17 17 0 00-17-17zm-34.2 51.3V418h34.2v34.2H85.3zM153.6 341.3a17 17 0 00-17-17h-17.1a17 17 0 00-17.1 17v17.1a17 17 0 0017 17h17.1a17 17 0 0017.1-17v-17zm-34.1 17.1v-17h17v17h-17zM309.7 96.3a25.5 25.5 0 00-28.1 4.2 25.2 25.2 0 00-34.1 0 25.2 25.2 0 00-34.2 0 25.5 25.5 0 10-25.6 43v52.8a17 17 0 0017.1 17h85.3a17 17 0 0017.1-17v-52.8a25.5 25.5 0 002.5-47.2zM196.3 128a8.5 8.5 0 110-17 8.5 8.5 0 010 17zm25.6 68.3h-17.1v-52.8c3.2-1.1 6-2.9 8.5-5 2.5 2.1 5.4 3.9 8.6 5v52.8zm8.5-68.3a8.5 8.5 0 110-17 8.5 8.5 0 010 17zm25.6 68.3h-17v-52.8c3-1.1 6-2.9 8.5-5 2.4 2.1 5.3 3.9 8.5 5v52.8zm8.5-68.3a8.5 8.5 0 110-17 8.5 8.5 0 010 17zm25.6 68.3h-17v-52.8c3.1-1.1 6-2.9 8.5-5 2.5 2.1 5.4 3.9 8.5 5v52.8zm8.6-68.3a8.5 8.5 0 110-17 8.5 8.5 0 010 17zM460.8 163.7v-27.2c0-4.7-3.8-8.5-8.5-8.5H349.9a8.5 8.5 0 00-8.6 8.5v27.2a25.6 25.6 0 1025.6 43 25.2 25.2 0 0034.2 0 25.2 25.2 0 0034.1 0 25.5 25.5 0 1025.6-43zm-111 32.6a8.5 8.5 0 110-17.1 8.5 8.5 0 010 17zm34.2 0a8.5 8.5 0 110-17.1 8.5 8.5 0 010 17zm34.1 0a8.5 8.5 0 110-17.1 8.5 8.5 0 010 17zm-17-27.5a25.2 25.2 0 00-34.2 0c-2.4-2.2-5.3-4-8.5-5V145h85.3v18.6c-3.1 1.1-6 2.9-8.5 5a25.2 25.2 0 00-34.1 0zm51.2 27.5a8.5 8.5 0 110-17.1 8.5 8.5 0 010 17zM325 276.3c.1.6.4 1 .7 1.5l1 1.3a8.7 8.7 0 0012.2 0l1-1.3.8-1.5.5-1.5.1-1.7a8.5 8.5 0 10-16.4 3.2zM337.6 334.3c-.5-.4-1-.6-1.6-.8-.4-.3-1-.4-1.5-.5a8.2 8.2 0 00-5 .5c-1 .4-2 1-2.8 1.8a8.7 8.7 0 000 12 10 10 0 002.9 1.9 8.5 8.5 0 004.9.5l1.5-.5 1.6-.8 1.3-1a8.7 8.7 0 000-12.1l-1.3-1zM432 265.2c-1 .4-2 1-2.9 1.8a9 9 0 00-2.3 7.8l.5 1.5c.2.6.5 1 .8 1.5l1 1.3a10 10 0 002.9 1.8c1 .5 2 .7 3.2.7a9 9 0 006-2.5c.4-.4.8-.8 1-1.3.4-.4.7-1 .9-1.5l.5-1.5.1-1.7a9 9 0 00-2.4-6 8.7 8.7 0 00-9.3-1.9zM440 334.3c-.5-.4-1-.6-1.6-.8-.5-.3-1-.5-1.6-.5a8.5 8.5 0 103.2 15.4l1.3-1a8.7 8.7 0 000-12.1l-1.3-1zM384 281.6a8.5 8.5 0 00-8.5 8.5v34.2a8.5 8.5 0 1017 0V290c0-4.7-3.8-8.5-8.5-8.5zM349.9 298.7h-17.1a8.5 8.5 0 100 17h17a8.5 8.5 0 100-17zM435.2 298.7h-17a8.5 8.5 0 100 17h17a8.5 8.5 0 100-17zM187.7 384H256a17 17 0 0017-17V247.4a17 17 0 00-17-17.1h-68.3a17 17 0 00-17 17V367a17 17 0 0017 17.1zm0-136.5H256v119.4h-68.3V247.5z"/><path d="M226.6 266l-1.5-.8-1.5-.5c-2.8-.6-5.8.3-7.8 2.3a9 9 0 00-2.3 7.8c0 .5.3 1 .5 1.5.2.6.5 1 .8 1.5l1 1.3a9 9 0 007.8 2.3c.5 0 1-.2 1.5-.5.6-.2 1-.4 1.5-.8l1.3-1 1-1.3c.4-.4.6-1 .8-1.5.3-.5.4-1 .5-1.5l.2-1.7a9 9 0 00-2.5-6 14 14 0 00-1.3-1.1zM228 301.1l-1.4-1-1.5-.8-1.5-.5a8.2 8.2 0 00-5 .5 7.7 7.7 0 00-4.6 4.7 8.5 8.5 0 00-.5 4.9c0 .5.3 1 .5 1.5l.8 1.6 1 1.3a10 10 0 002.8 1.8 8.5 8.5 0 005 .5l1.5-.6c.6-.1 1-.4 1.5-.7l1.3-1 1-1.3c.4-.5.6-1 .8-1.6.3-.4.4-1 .5-1.5l.2-1.7c0-1.1-.2-2.2-.7-3.2-.4-1-1-2-1.8-2.9zM226.6 334.3c-.4-.4-1-.6-1.5-.8a8.2 8.2 0 00-6.5 0c-1 .4-2 1-2.8 1.8a8.7 8.7 0 000 12 10 10 0 002.8 1.9 8.5 8.5 0 005 .5l1.5-.5c.6-.2 1-.5 1.5-.8l1.3-1a8.7 8.7 0 000-12.1l-1.3-1zM153.6 418.1v34.2a17 17 0 0017 17h290.2a17 17 0 0017-17V418a17 17 0 00-17-17H170.7a17 17 0 00-17.1 17zm307.2 34.2h-17v-8.6a8.5 8.5 0 10-17.1 0v8.6h-17.1v-8.6a8.5 8.5 0 10-17 0v8.6h-17.1v-8.6a8.5 8.5 0 10-17.1 0v8.6h-17v-8.6a8.5 8.5 0 00-17.1 0v8.6h-17.1v-8.6a8.5 8.5 0 10-17 0v8.6H273v-8.6a8.5 8.5 0 00-17.1 0v8.6h-17v-8.6a8.5 8.5 0 10-17.1 0v8.6h-17.1v-8.6a8.5 8.5 0 10-17 0v8.6h-17.1V418h290.1v34.2zM46 461.5c-2.2-.9-4.5-.9-6.6 0-1 .4-2 1-2.8 1.8a8.5 8.5 0 006 14.6 9 9 0 006.1-2.5 10 10 0 001.8-2.8c.5-1 .7-2.2.7-3.3a9 9 0 00-2.5-6 8.9 8.9 0 00-2.8-1.8z"/></svg>