<svg version="1.1" id="OBJECTS" xmlns="http://www.w3.org/2000/svg" x="0" y="0" viewBox="0 0 500 500" xml:space="preserve"><style>.st2{fill:#999}</style><path d="M495.2 94.4H114.8l1-22.2H474c12 0 21.8 10.1 21.2 22.2z" fill="red"/><path d="M495.2 94.4l-14 321.2a22 22 0 01-22 21H98.6l16.2-342.2h380.4z"/><path d="M473.8 412.5l.6 7.3c.7 9.1-6.5 16.9-15.7 16.9h-360L9.8 412.5h464z" opacity=".5"/><path class="st2" d="M200 147.3v16.3h-8a4 4 0 00-4.1 4v24.5a4 4 0 004 4.1h8.2v4h-8.2a4 4 0 00-4 4.2v24.4a4 4 0 004 4.1h8.2v4.1H192a4 4 0 00-4 4v28.6a4 4 0 004 4.1h8.2v110.1c0 6.8 5.5 12.3 12.2 12.3h179.5c6.7 0 12.2-5.5 12.2-12.3V147.3c0-6.8-5.5-12.3-12.2-12.3H212.3c-6.7 0-12.2 5.5-12.2 12.3zm12.3 240.6a4 4 0 01-4-4.1v-106h12.2a4 4 0 004-4.1V163.6a4 4 0 00-4-4h-12.3v-12.3a4 4 0 014.1-4.1h179.4a4 4 0 014.1 4v236.6a4 4 0 01-4 4H212.3zm-4-220.2h8.1v102h-8.2v-102zM196 188v-16.3h4V188h-4zm0 36.7v-16.3h4v16.3h-4zm0 40.8v-20.4h4v20.4h-4zm0 0"/><path class="st2" d="M281.7 163.6h-4.1a4 4 0 00-4.1 4v4.1a4 4 0 100 8.2v4a4 4 0 100 8.2v4.1a4 4 0 100 8.2v4a4 4 0 004 4.1h4.2a4 4 0 108.1 0h4.1a4 4 0 108.2 0h4a4 4 0 108.2 0h4a4 4 0 004.2-4v-4.1a4 4 0 000-8.2v-4a4 4 0 000-8.2v-4.1a4 4 0 000-8.2v-4a4 4 0 00-4.1-4.1h-4.1a4 4 0 00-8.2 0h-4a4 4 0 00-8.2 0h-4a4 4 0 00-4.1-4.1 4 4 0 00-4.1 4zm32.6 12.2v28.5h-32.6v-32.6H314.3v4zm0 0M261.3 273.7V163.6a4 4 0 00-4.1-4h-20.4a4 4 0 00-4 4v110.1a4 4 0 004 4h20.4a4 4 0 004-4zm-8.2-75.4v8.1H241v-8.1H253zM241 190V182H253v8.1h-12.2zm12.2 24.5v8.1H241v-8.1H253zm0 16.3v8.1H241V231H253zm0 16.3v8.1H241v-8.1H253zm0-79.5v6.1H241v-6.1H253zm-12.2 102v-6.2H253v6.1h-12.2zm0 0M330.6 367.5v-12.2a4 4 0 00-4.1-4.1h-97.9a4 4 0 00-4 4v12.3a4 4 0 004 4h97.9a4 4 0 004-4zm-97.9-4v-4.2h89.7v4.1h-89.7zm0 0M330.6 343v-12.2a4 4 0 00-4.1-4h-97.9a4 4 0 00-4 4V343a4 4 0 004 4.1h97.9a4 4 0 004-4zm-97.9-4v-4.1h89.7v4h-89.7zm0 0M330.6 318.6v-12.3a4 4 0 00-4.1-4h-97.9a4 4 0 00-4 4v12.3a4 4 0 004 4h97.9a4 4 0 004-4zm-97.9-4.1v-4h89.7v4h-89.7zm0 0M359.1 159.5v114.2a4 4 0 004.1 4h12.2a4 4 0 004.1-4V159.5a4 4 0 00-4-4h-12.3a4 4 0 00-4 4zm12.3 4v106.1h-4.1v-106h4zm0 0M334.7 273.7a4 4 0 004 4H351a4 4 0 004-4V159.5a4 4 0 00-4-4h-12.2a4 4 0 00-4.1 4v114.2zm12.2-110.1v106h-4v-106h4zm0 0M220.5 379.6a4 4 0 00-8.2 0 4 4 0 004.1 4.1 4 4 0 004-4zm0 0M391.8 379.6a4 4 0 10-8.2 0 4 4 0 008.2 0zm0 0M391.8 151.2a4 4 0 10-8.2 0 4 4 0 008.2 0zm0 0M220.5 151.2a4 4 0 00-8.2 0 4 4 0 008.2 0zm0 0M379.5 343v-36.7a4 4 0 00-4-4h-36.8a4 4 0 00-4 4V343a4 4 0 004 4.1h36.8a4 4 0 004-4zm-36.7-4v-28.6h28.6V339h-28.6zm0 0M355 361.4a10.2 10.2 0 10-20.4 0 10.2 10.2 0 0020.5 0zm-12.2 0a2 2 0 014.1 0 2 2 0 01-4 0zm0 0M289.8 267.6a10.2 10.2 0 10-20.4 0 10.2 10.2 0 0020.4 0zm-12.2 0a2 2 0 114 0 2 2 0 01-4 0zm0 0M326.5 267.6a10.2 10.2 0 10-20.4 0 10.2 10.2 0 0020.4 0zm-12.2 0a2 2 0 114 0 2 2 0 01-4 0zm0 0M316.3 241a10.2 10.2 0 100-20.4 10.2 10.2 0 000 20.5zm0-12.2c1.1 0 2 1 2 2a2 2 0 11-2-2zm0 0M379.5 361.4a10.2 10.2 0 10-20.4 0 10.2 10.2 0 0020.4 0zm-12.2 0a2 2 0 014 0 2 2 0 01-4 0zm0 0M269.4 235a14.3 14.3 0 1028.6 0 14.3 14.3 0 00-28.6 0zm20.4 0a6.1 6.1 0 01-12.2 0 6.1 6.1 0 0112.2 0zm0 0M310.2 253.3h12.2a4 4 0 100-8.2h-12.2a4 4 0 100 8.2zm0 0M302 273.7v-12.2a4 4 0 10-8.1 0v12.2a4 4 0 108.2 0zm0 0M379.6 290a4 4 0 00-4.1-4H228.6a4 4 0 100 8h146.9a4 4 0 004-4zm0 0"/></svg>