<svg xmlns="http://www.w3.org/2000/svg" viewBox="0 0 512 512" style="fill: darkgray;background: white;"><path d="M512 34.5c0-2.3-.9-4.4-2.5-6l-26-26a8.5 8.5 0 00-12 0l-72 72-.5-.5a8.5 8.5 0 00-12 0l-30.4 30.3-5.4-5.5a82 82 0 00-123.6 8.8L198 147.1c-11.3 15-22.3 30.3-33.2 45.7a1142 1142 0 01-74.2 38c-6 2.6-12 4.8-18 6.7-8.4 2.6-16.6 5.8-24.4 9.7-33.4 18-43.6 71.4-46.4 93.5a192 192 0 00-.4 49c1.3 17.3 7 34 16.7 48.5 2.4 3 5 5.9 7.9 8.6l38.7 38.8c3 3.2 6.3 6.1 9.8 8.8 2.9 2 6 3.7 9 5.1 19 8.7 39.7 13 60.5 12.5 9.1 0 18.2-.6 27.3-1.8 22-2.8 75.4-13 93.5-46.5 3.9-7.8 7.1-16 9.7-24.3 1.9-6.1 4.1-12.2 6.7-18a1113.5 1113.5 0 0137.9-74c15.4-11 30.7-22.1 45.8-33.4l39.5-29.6a82 82 0 008.8-123.6l-5.5-5.5L438 125a8.5 8.5 0 000-12l-.5-.5 72-72a8.5 8.5 0 002.5-6zm-270.7 83.4a64.8 64.8 0 0130.5-22.3l7.4 7.4a9.9 9.9 0 010 13.9l-20 19.9-18.3-18.4.4-.5zm-29.7 39.5l19-25.2 16.6 16.7-20 19.9c-3.8 3.7-10 3.7-13.8 0l-5.8-5.8 4-5.6zM56.3 262.3c7-3.5 14.2-6.3 21.7-8.6l5.7-2-7 13.3a242.3 242.3 0 01-57 71.2c3.2-19.8 12.5-61 36.6-74zm202 171.7a145 145 0 01-8.5 21.7c-13 24-54.2 33.4-74.1 36.6 20-23.4 44.1-42.7 71.3-57l13.2-7-2 5.7zm26-58c-5 9.8-9.6 18.9-13.6 27.5L239 420.2a259 259 0 00-87 74.5c-21 1.5-42-2-61-10.6a47 47 0 01-6.7-3.7c-2.7-2-5.2-4.4-7.6-6.9L38 434.7a73.8 73.8 0 01-6.3-6.9 85.7 85.7 0 01-13.4-40.3c-1-9.1-1.4-18.3-1-27.5 31-23.1 56.4-52.8 74.4-87l16.8-31.7a777.6 777.6 0 0035.2-17.6 1956.9 1956.9 0 00-83.5 134.1 69 69 0 0094 94c45.5-25.8 90.3-53.6 133.9-83a868 868 0 00-3.7 7.1zm70.3-75.6l-5.6 4-5.8-5.8a9.9 9.9 0 010-13.9l20-20 16.6 16.8-25.2 18.9zm39.5-29.7l-.5.4-18.4-18.4 20-20c3.8-3.6 10-3.6 13.8 0l7.4 7.4a64.8 64.8 0 01-22.3 30.6zm25.9-50.9a27.6 27.6 0 00-37 1l-51.9 51.8a27 27 0 000 38l4 4a1942.7 1942.7 0 01-189.3 122.3A51.9 51.9 0 0175 366.2c37-65.4 78-128.6 122.3-189.2l4 3.9a27 27 0 0038 0l51.9-52a26.9 26.9 0 00.8-37h1.1c17.2 0 33.7 6.8 45.9 19l11.5 11.5 13.5 13.5-40 39.8-.8-.9a17 17 0 00-24.2 0l-26.8 26.9a17 17 0 000 24.1l.9 1-84.9 84.8a8.5 8.5 0 1012 12l85-84.8.9 1a17 17 0 0024 0l27-27a17 17 0 000-24l-1-1 40-39.9 13.4 13.5 11.5 11.5a64.8 64.8 0 0118.9 47zm-94.9-19l-26.9 26.9-13.9-14 27-26.8 13.8 13.9zm70.5-57.5l-26.9-26.9L393 92.1l13.4 13.5 13 13 .5.4-24.3 24.3zm29.8-42.8l-7-7-6.9-7 66-65.9 13.9 13.9-66 66z"/></svg>