<svg version="1.1" id="OBJECTS" xmlns="http://www.w3.org/2000/svg" x="0" y="0" viewBox="0 0 500 500" xml:space="preserve"><style>.st2{fill:#999}</style><path d="M495.2 94.4H114.8l1-22.2H474c12 0 21.8 10.1 21.2 22.2z" fill="red"/><path d="M495.2 94.4l-14 321.2a22 22 0 01-22 21H98.6l16.2-342.2h380.4z"/><path d="M473.8 412.5l.6 7.3c.7 9.1-6.5 16.9-15.7 16.9h-360L9.8 412.5h464z" opacity=".5"/><path class="st2" d="M203.3 318l188.1 2c2 0 3.8-1.7 3.8-3.7l1.4-138.3c0-2-1.6-3.7-3.7-3.7l-188.1-2c-2.1 0-3.8 1.7-3.8 3.7l-.6 61.7a3.7 3.7 0 007.4 0l.6-57.8 180.7 1.8-1.4 130.8-180.6-1.9.6-57.9a3.7 3.7 0 00-7.5 0l-.6 61.6c0 2 1.6 3.7 3.7 3.7zm0 0"/><path class="st2" d="M424.1 352l-10.3-16a18.7 18.7 0 00-8.6-7c3-3.4 5-7.8 5-12.6l1.4-138.2a18.7 18.7 0 00-18.5-19l-188.2-1.8a18.7 18.7 0 00-18.9 18.5L184.6 314c0 4.8 1.7 9.3 4.7 12.6a18.8 18.8 0 00-8.7 7l-10.7 15.6c-.4.6-.6 1.3-.7 2a18.7 18.7 0 0018.6 19l218 2.2c10.4.1 18.8-8.2 19-18.5 0-.7-.2-1.5-.7-2zM193.5 176c0-6.2 5.2-11.2 11.3-11.2l188.2 2c6.2 0 11.2 5.1 11 11.3l-1.3 138.2c0 6.2-5.2 11.2-11.4 11.1l-188.1-1.9c-6.2 0-11.2-5.1-11.1-11.3l1.4-138.3zm-6.7 161.9c2-3.2 5.6-5 9.4-5l202 2.1c3.8 0 7.3 2 9.3 5.1l6.6 10-234-2.3 6.7-10zm131 18.8l-7.5 7.4-26.8-.3-7.4-7.6 41.8.4zm-140.5-1.5l88.2 1 7.4 7.5-85-.9c-5 0-9-3.2-10.6-7.6zM406 365l-85-.8 7.6-7.5 88 1A11.2 11.2 0 01406 365zm0 0"/></svg>