<svg xmlns="http://www.w3.org/2000/svg" viewBox="-112 0 512 512" style="fill: darkgray;background: white;"><path d="M143.8 408.8a7.5 7.5 0 100 15 7.5 7.5 0 000-15zm0 0M219.5 302.3a143.3 143.3 0 00-151.5 0 7.5 7.5 0 008 12.7 128.3 128.3 0 01135.6 0 7.5 7.5 0 0010.3-2.4 7.5 7.5 0 00-2.4-10.3zm0 0"/><path d="M197.2 335.6a103.4 103.4 0 00-106.8 0 7.5 7.5 0 107.7 12.8 88.4 88.4 0 0191.3 0 7.5 7.5 0 107.8-12.8zm0 0M174.7 369a62.6 62.6 0 00-61.8 0 7.5 7.5 0 107.3 13 47.8 47.8 0 0147.1 0 7.5 7.5 0 0010.3-2.9c2-3.6.7-8.2-3-10.2zm0 0"/><path d="M264.5 208.4h-9V23.5c0-13-10.6-23.5-23.6-23.5H55.6c-13 0-23.5 10.6-23.5 23.5v185h-9c-12.7 0-23.1 10.3-23.1 23v257.4C0 501.6 10.4 512 23 512h241.5c12.7 0 23-10.4 23-23V231.4c0-12.7-10.3-23-23-23zm0 288.6H23a8 8 0 01-8.1-8v-41.1h8.5a7.5 7.5 0 100-15H15v-25.1h8.5a7.5 7.5 0 100-15H15v-25h8.5a7.5 7.5 0 100-15H15v-25.2h8.5a7.5 7.5 0 100-15H15v-25h8.5a7.5 7.5 0 100-15H15v-41.1a8 8 0 018-8H200a7.5 7.5 0 100-15h-48.6v-48.7a7.5 7.5 0 00-15 0v48.6H47V23.5c0-4.7 3.8-8.5 8.5-8.5h80.7v56.6a7.5 7.5 0 0015 0V15h80.6c4.8 0 8.6 3.8 8.6 8.5v185H232a7.5 7.5 0 100 15h32.5a8 8 0 018 8v41H264a7.5 7.5 0 000 15h8.6v25.1H264a7.5 7.5 0 000 15h8.6v25.1H264a7.5 7.5 0 100 15h8.6v25H264a7.5 7.5 0 000 15h8.6V433H264a7.5 7.5 0 000 15h8.6v41a8 8 0 01-8.1 8.1zm0 0"/><path d="M119.7 88.2h-40c-8.6 0-15.6 7-15.6 15.5v24c0 8.6 7 15.6 15.5 15.6h40.1c8.6 0 15.5-7 15.5-15.6v-24c0-8.6-7-15.5-15.5-15.5zm.5 39.5c0 .3-.2.6-.5.6h-40a.5.5 0 01-.6-.6v-24c0-.3.3-.5.5-.5h40.1c.3 0 .5.2.5.5zm0 0M207.9 88.2h-40c-8.6 0-15.6 7-15.6 15.5v24c0 8.6 7 15.6 15.5 15.6H208c8.6 0 15.5-7 15.5-15.6v-24c0-8.6-7-15.5-15.5-15.5zm.5 39.5c0 .3-.2.6-.5.6h-40a.5.5 0 01-.6-.6v-24c0-.3.2-.5.5-.5H208c.3 0 .5.2.5.5zm0 0"/></svg>