<?xml version="1.0" encoding="utf-8"?>
<!-- Generator: Adobe Illustrator 23.0.6, SVG Export Plug-In . SVG Version: 6.00 Build 0)  -->
<svg version="1.1" id="OBJECTS" xmlns="http://www.w3.org/2000/svg" xmlns:xlink="http://www.w3.org/1999/xlink" x="0px" y="0px"
	 viewBox="0 0 500 500" style="enable-background:new 0 0 500 500;" xml:space="preserve">
<style type="text/css">
	.st0{fill:#FF0000;}
	.st1{opacity:0.52;}
	.st2{fill:#999999;}
</style>
<path class="st0" d="M495.22,94.41L495.22,94.41l-380.46,0l1.02-22.19h358.2C486.09,72.22,495.76,82.31,495.22,94.41z"/>
<path d="M495.22,94.41l-14.06,321.21c-0.52,11.77-10.21,21.05-21.99,21.05H98.62l16.15-342.26H495.22z"/>
<path class="st1" d="M473.82,412.52l0.55,7.29c0.69,9.1-6.51,16.87-15.64,16.87H98.62L9.93,412.52H473.82z"/>
<path class="st2" d="M197.42,359.2c-2.2-0.69-4.03-2.24-5.09-4.29l-21.82-42.23c-1.81-3.57-0.97-7.91,2.04-10.55
	c2.77-2.57,3.49-6.67,1.76-10.02c-1.74-3.36-5.49-5.14-9.19-4.37c-3.89,0.93-7.93-0.9-9.79-4.44l-2.21-4.28
	c-2.19-4.26-0.53-9.5,3.73-11.71l223.88-115.71c4.27-2.2,9.5-0.53,11.71,3.73l2.22,4.29c1.81,3.57,0.96,7.91-2.05,10.55
	c-2.76,2.57-3.47,6.67-1.74,10.02c1.73,3.35,5.49,5.14,9.18,4.37c3.9-0.92,7.92,0.9,9.79,4.44l21.82,42.23
	c2.2,4.27,0.53,9.5-3.74,11.71L204.04,358.65C202,359.71,199.62,359.91,197.42,359.2L197.42,359.2z M172.16,279.62
	c4.32,1.38,7.91,4.41,9.99,8.44c3.55,6.89,2.07,15.3-3.61,20.57l21.64,42.23l223.69-115.78l-21.89-42.04
	c-7.59,1.75-15.41-1.88-18.98-8.81c-3.55-6.89-2.07-15.3,3.61-20.57l-2.03-4.29L160.9,275.17l2.28,4.09
	C166.15,278.57,169.25,278.7,172.16,279.62L172.16,279.62z M172.16,279.62"/>
<path class="st2" d="M214.82,374.26c-2.2-0.69-4.03-2.24-5.08-4.29l-7.84-15.18c-0.76-1.4-0.7-3.11,0.16-4.46
	c0.85-1.35,2.37-2.13,3.96-2.05c1.59,0.08,3.02,1.02,3.73,2.45l7.85,15.18l49.13-25.56l-7.9-14.99c-1.08-2.16-0.22-4.78,1.93-5.89
	c2.14-1.11,4.78-0.29,5.92,1.84l7.84,15.18c2.2,4.26,0.53,9.5-3.73,11.71l-49.33,25.5C219.39,374.77,217.01,374.97,214.82,374.26
	L214.82,374.26z M214.82,374.26"/>
<path class="st2" d="M298.3,331.11c-2.2-0.69-4.03-2.24-5.08-4.29l-7.85-15.18c-1.06-2.16-0.2-4.77,1.93-5.88
	c2.13-1.11,4.76-0.3,5.91,1.82l7.85,15.18l125.03-64.78L418.18,243c-1.08-2.16-0.23-4.79,1.92-5.9c2.15-1.11,4.79-0.29,5.92,1.85
	l7.84,15.18c2.2,4.26,0.53,9.5-3.73,11.71l-125.22,64.72C302.88,331.62,300.49,331.82,298.3,331.11L298.3,331.11z M298.3,331.11"/>
<path class="st2" d="M233.25,366.14c-1.12-0.35-2.05-1.14-2.58-2.18l-9.81-18.97c-1.07-2.16-0.22-4.78,1.93-5.89
	c2.14-1.11,4.78-0.29,5.92,1.84l9.81,18.97c0.82,1.59,0.6,3.51-0.55,4.88C236.81,366.15,234.95,366.68,233.25,366.14L233.25,366.14z
	 M233.25,366.14"/>
<path class="st2" d="M252.23,356.34c-1.12-0.36-2.05-1.14-2.58-2.18l-9.81-18.98c-1.12-2.17-0.27-4.83,1.9-5.95
	c2.17-1.12,4.83-0.27,5.95,1.9l9.81,18.97c0.82,1.59,0.6,3.51-0.55,4.88C255.79,356.34,253.93,356.88,252.23,356.34L252.23,356.34z
	 M252.23,356.34"/>
<path class="st2" d="M316.74,322.99c-1.12-0.36-2.05-1.14-2.58-2.18l-9.81-18.97c-1.07-2.16-0.21-4.77,1.93-5.88
	c2.14-1.11,4.77-0.29,5.91,1.83l9.81,18.97c0.82,1.59,0.6,3.51-0.55,4.88C320.3,323,318.43,323.53,316.74,322.99L316.74,322.99z
	 M316.74,322.99"/>
<path class="st2" d="M335.71,313.19c-1.12-0.35-2.05-1.14-2.58-2.18l-9.81-18.97c-1.07-2.16-0.22-4.78,1.93-5.89
	c2.14-1.11,4.78-0.29,5.92,1.84l9.81,18.97c0.82,1.59,0.6,3.51-0.55,4.88C339.27,313.19,337.41,313.73,335.71,313.19L335.71,313.19z
	 M335.71,313.19"/>
<path class="st2" d="M354.68,303.38c-1.12-0.36-2.05-1.14-2.58-2.18l-9.81-18.97c-1.08-2.16-0.23-4.79,1.92-5.9
	c2.15-1.11,4.79-0.29,5.92,1.84l9.81,18.97c0.82,1.59,0.6,3.51-0.55,4.88C358.25,303.39,356.38,303.92,354.68,303.38L354.68,303.38z
	 M354.68,303.38"/>
<path class="st2" d="M373.65,293.57c-1.12-0.35-2.05-1.14-2.58-2.18l-9.8-18.97c-0.75-1.4-0.69-3.11,0.16-4.45
	c0.85-1.35,2.37-2.13,3.96-2.05c1.59,0.08,3.01,1.02,3.73,2.44l9.8,18.97c0.82,1.59,0.6,3.51-0.55,4.88
	C377.21,293.58,375.35,294.12,373.65,293.57L373.65,293.57z M373.65,293.57"/>
<path class="st2" d="M392.63,283.77c-1.12-0.36-2.05-1.14-2.58-2.18l-9.81-18.98c-0.76-1.4-0.7-3.11,0.15-4.46
	c0.85-1.35,2.37-2.13,3.96-2.05c1.59,0.09,3.02,1.02,3.73,2.45l9.81,18.97c0.82,1.59,0.6,3.51-0.55,4.88
	C396.19,283.77,394.33,284.31,392.63,283.77L392.63,283.77z M392.63,283.77"/>
<path class="st2" d="M411.6,273.96c-1.12-0.36-2.05-1.14-2.58-2.18l-9.81-18.97c-1.08-2.16-0.23-4.79,1.92-5.9
	c2.15-1.11,4.79-0.29,5.93,1.85l9.81,18.98c0.82,1.58,0.6,3.51-0.55,4.88C415.16,273.97,413.3,274.5,411.6,273.96L411.6,273.96z
	 M411.6,273.96"/>
<path class="st2" d="M214.19,326.45c-2.23-0.7-4.09-2.28-5.16-4.36l-19.48-37.69c-2.24-4.33-0.54-9.66,3.79-11.9l26.3-13.59
	c4.33-2.24,9.66-0.54,11.9,3.79l19.48,37.69c2.23,4.33,0.54,9.66-3.79,11.9l-26.31,13.6C218.85,326.96,216.42,327.16,214.19,326.45
	L214.19,326.45z M223.7,266.75l-26.3,13.59l19.48,37.69l26.31-13.6L223.7,266.75z M223.7,266.75"/>
<path class="st2" d="M263.53,300.95c-2.23-0.71-4.09-2.27-5.17-4.35l-19.48-37.69c-2.24-4.33-0.54-9.66,3.79-11.9l26.3-13.6
	c4.33-2.23,9.66-0.54,11.9,3.79l19.48,37.69c1.08,2.08,1.28,4.5,0.57,6.74s-2.28,4.09-4.36,5.17l-26.31,13.6
	C268.18,301.46,265.76,301.66,263.53,300.95L263.53,300.95z M273.03,241.25l-26.31,13.6l19.48,37.69l26.3-13.6l0.01,0L273.03,241.25
	z M273.03,241.25"/>
<path class="st2" d="M312.86,275.45c-2.23-0.71-4.09-2.28-5.17-4.36l-19.48-37.69c-2.23-4.33-0.53-9.65,3.79-11.9l26.31-13.6
	c2.08-1.08,4.5-1.29,6.73-0.57l0.01,0c2.23,0.71,4.1,2.28,5.17,4.36l19.48,37.69c1.08,2.08,1.28,4.5,0.57,6.74
	c-0.71,2.23-2.28,4.09-4.36,5.17l-26.3,13.59C317.51,275.97,315.09,276.17,312.86,275.45L312.86,275.45z M322.36,215.76l-26.31,13.6
	l19.48,37.69l26.31-13.6L322.36,215.76z M322.36,215.76"/>
<path class="st2" d="M362.18,249.96c-2.23-0.71-4.09-2.27-5.17-4.35l-19.48-37.69c-2.23-4.33-0.54-9.66,3.79-11.9l26.31-13.59
	c2.08-1.08,4.51-1.29,6.74-0.57l0.01,0c2.23,0.71,4.09,2.28,5.16,4.36l19.48,37.69c1.08,2.08,1.28,4.5,0.57,6.74
	c-0.71,2.23-2.28,4.09-4.36,5.17l-26.3,13.6C366.84,250.47,364.42,250.67,362.18,249.96L362.18,249.96z M371.69,190.26l-26.31,13.59
	l19.48,37.69l26.31-13.59l0,0L371.69,190.26z M371.69,190.26"/>
</svg>
