<svg xmlns="http://www.w3.org/2000/svg" viewBox="0 0 512 512"><path d="M309.9 148.5H119.6a15 15 0 000 30H310a15 15 0 000-30zM309.9 206.5H119.6a15 15 0 000 30H310a15 15 0 000-30zM309.9 266.8H119.6a15 15 0 000 30H310a15 15 0 000-30zM196.1 326.7h-76.5a15 15 0 000 30h76.5a15 15 0 000-30z"/><path d="M385 318V42.4C385 19 366 0 342.8 0H144c-4 0-7.9 1.6-10.8 4.5L48.9 88.7a15.2 15.2 0 00-4.5 10.9v301.1c0 23.4 19 42.4 42.4 42.4h190a97.7 97.7 0 10108.3-125zM129 51.2v33.3H95.6L129 51.2zM272.5 413H86.8c-6.8 0-12.3-5.5-12.3-12.3V114.6H144a15 15 0 0015-15v-.4-69.1h183.7c6.8 0 12.3 5.5 12.3 12.3V318a97.7 97.7 0 00-82.5 95zm97.5 69a67.6 67.6 0 11.2-135.2 67.6 67.6 0 01-.2 135.1z"/><path d="M370 361.3a15 15 0 00-15 15v38.1a15 15 0 0030 0v-38a15 15 0 00-15-15zM385 452.7a14 14 0 00-1-4.2 16.2 16.2 0 00-3.3-5 14.8 14.8 0 00-9.2-4.2 14.6 14.6 0 00-9.8 2.4 13 13 0 00-3.3 3 17 17 0 00-2.3 3.8 14.3 14.3 0 00-1 7.2 14.3 14.3 0 001.7 5.6 14 14 0 003.7 4.5 13.1 13.1 0 003.8 2.3 16 16 0 007.2 1 14.1 14.1 0 005.6-1.6 14.6 14.6 0 007.3-9 11.2 11.2 0 00.6-2.8 14.3 14.3 0 000-3z"/></svg>