<svg xmlns="http://www.w3.org/2000/svg" viewBox="0 0 512 512"><path d="M191 399.6c-4-4-9.3-6.3-15-6.3a21.3 21.3 0 000 42.6 21.2 21.2 0 0021.3-21.3c0-5.6-2.2-11-6.2-15zm-10.3 19.8c-1.2 1.2-3 2-4.7 2-1.8 0-3.5-.8-4.8-2a6.7 6.7 0 014.8-11.5c1.8 0 3.5.7 4.7 2a6.7 6.7 0 010 9.5zM414.4 393.7a21.2 21.2 0 00-21.3 21.3 21.2 21.2 0 0021.3 21.3 21.2 21.2 0 0021.3-21.2c0-11.8-9.5-21.4-21.3-21.4zm4.8 26c-1.3 1.4-3 2-4.8 2-1.8 0-3.5-.6-4.8-2a6.7 6.7 0 010-9.4 6.7 6.7 0 119.5 9.5z"/><path d="M448.7 359.3c9.3 0 17.4-6.3 19.8-15.4L511.3 177a20.3 20.3 0 00-19.7-25.5h-52.5a7.3 7.3 0 000 14.5h52.5a5.8 5.8 0 015.6 7.4l-42.9 167c-.6 2.5-3 4.3-5.6 4.3l-273.6-.5-45.3-178.8 257.5.5a7.3 7.3 0 000-14.6l-261.2-.4-14.7-58.3a22 22 0 00-13.2-15L30 50.6a22 22 0 00-16.2 40.7l57.8 23 68.1 269a48 48 0 1080.4 50l150.1.3a47.7 47.7 0 0044.1 29.4h.1a47.6 47.6 0 0044.2-29.3h16.1a21.8 21.8 0 0022-21.8c0-12-9.8-22-21.9-22h-19.6a48 48 0 00-81.6-.1l-156.8-.3a47.8 47.8 0 00-36-22.6l-2-8 269.8.4zm26 45.2a7.3 7.3 0 010 14.7h-12.5v-1.5-.2l.1-2.3v-.2a48 48 0 00-.1-4.2l-.1-.7a47.7 47.7 0 00-.5-3.5v-.3l-.4-1.8h13.6zm-92.3 1v-.2a35.1 35.1 0 012-4.8 33.2 33.2 0 0130-18.8 33.3 33.3 0 0130 18.6 33.4 33.4 0 013 10.2l.1.6a33.7 33.7 0 01.2 1.8v4.7c-.2 2.3-.6 4.6-1.3 6.8v.1a33.2 33.2 0 01-32 23.9 33.4 33.4 0 01-32-42.9zm-14.7-1.2a47.8 47.8 0 00-1 14.7l-143-.3c.5-4.9.1-9.8-1-14.6l145 .2zM84.9 107.1a7.3 7.3 0 00-4.4-5L19.2 77.8a7.3 7.3 0 01-4.1-9.6 7.3 7.3 0 019.5-4l68.2 27c2.2.9 3.9 2.7 4.4 5L166 367.7l-1.4.3-4.3 1.3-.5.2a47.6 47.6 0 00-3.3 1.3l-1 .4-.8.4-2.1 1.2-.4.2-67.3-266zm114.7 284a33.2 33.2 0 018.3 14v.1a33.4 33.4 0 01-32 42.8 33.4 33.4 0 01-23.5-57l.4-.4c6-5.9 14-9.2 22.4-9.3h.8c9 0 17.3 3.4 23.6 9.7z"/><path d="M211.3 314.5l-12.7-50.3a7.3 7.3 0 10-14.1 3.6l12.7 50.3a7.3 7.3 0 0014.1-3.6zM185.7 213.5l-5.5-21.9a7.3 7.3 0 10-14.1 3.6l5.5 21.8a7.3 7.3 0 0014.1-3.5zM278.5 315.8l-10.2-122.9a7.3 7.3 0 10-14.6 1.2l10.3 123a7.3 7.3 0 1014.5-1.3zM349.5 186.4c-4-.3-7.5 2.7-7.9 6.7L331 315.9a7.3 7.3 0 1014.6 1.3L356 194.3c.4-4-2.6-7.5-6.6-7.9zM438.5 186.8a7.3 7.3 0 00-8.8 5.2L398 314.8a7.3 7.3 0 1014.1 3.7l31.6-122.8c1-4-1.4-8-5.3-9z"/></svg>