<svg xmlns="http://www.w3.org/2000/svg" viewBox="0 0 512 512" style="fill: darkgray;background: white;"><path d="M207 43.7C-1.4 71.2 23 67.9 9.2 70c-5.1.8-9 5.2-9 10.5v163.2c0 5.9 4.9 10.6 10.7 10.6 65 0 130.7-1.7 197.3-1.8 5.9 0 10.7-4.8 10.7-10.6V54.2c0-6.4-5.7-11.4-12-10.5zm-3 194c-63.8 0-126.4 1.6-188.6 1.7V84.3c8.8-1.4-13 1.5 188.6-25.1v178.4zM208 259.5c-57.7 1.5-198 0-197 0C5.2 259.5.4 264.2.4 270v163.1c0 5.3 4 9.9 9.2 10.6 1 .1 196.1 26.5 198.7 26.5 5.9 0 10.7-4.8 10.7-10.6V270.2c0-6.1-5-10.8-11-10.7zm-4 195.2c-64.8-8.5-127.7-17-188.6-25.3V274.5c62 .1 124.7 1.5 188.6 0v180.2zM499.5.1L376.9 17.7a7.5 7.5 0 102.2 14.8c38.6-5.7 76.9-11 117.5-16.9v220.2c-84 .1-170 1.7-254 1.8V53.5c14.9-2.3 38.6-6.4 101.6-15.9a7.5 7.5 0 10-2.2-14.8c-63.1 9.5-85.5 13.4-105.3 16.4-5.2.8-9 5.3-9 10.5V242c0 5.8 4.7 10.6 10.5 10.6 82.5 0 176-1.8 262.8-1.8 5.8 0 10.6-4.8 10.6-10.6V10.6c0-6.4-5.7-11.4-12.1-10.5zM504.1 385.7c4.2 0 7.5-3.4 7.5-7.5V272c0-5.9-4.8-10.6-10.6-10.6H238.2c-5.8 0-10.6 4.7-10.6 10.6v192.3c0 5.2 4 9.7 9.2 10.5 86.5 12.3 175.8 23.1 262.5 37.2 6.4 1 12.3-4 12.3-10.5v-88.2a7.5 7.5 0 00-15 0v83c-84-13.4-170.2-24-254-35.8V276.2h254v102c0 4.1 3.4 7.5 7.5 7.5z"/></svg>