<svg xmlns="http://www.w3.org/2000/svg" width="1200" height="1200"><circle cx="600" cy="600" r="550" fill="#1ED760"/><g fill="#FFF"><path d="M287.5 460.9c0-20 11.6-36.2 33.7-41.3 37.4-8.6 75-17.9 113-21.8 112.3-11.5 223.7-5.1 331.9 28.6 42.5 13.2 83 33.3 123.7 52.1a39.8 39.8 0 0 1 21.9 44.3c-3.9 18.8-18 33.2-37.2 34.5a52 52 0 0 1-27.4-6.1c-75.8-42.4-157.9-61.8-243.4-69.3-88.5-7.7-176.2-4-262.5 19.7a41.6 41.6 0 0 1-53.7-40.7z"/><path d="M810 691.5c-2.8-1-10.7-3-17.4-6.8-72.8-42.1-151.8-61.7-235.1-68-64.8-5-128 1.9-190.6 18.6-24.2 6.5-42.7-3-48.9-23.7-5.8-20 6-38.6 30-45 166.5-43.8 326.3-27.8 478.3 55.2 21.8 11.9 29 27.6 22.8 45.6-5.3 15.7-17.2 24.2-39 24.1zM513.7 685.7c93.2-.5 173.8 16.7 248.8 57.3 6.1 3.3 12.2 6.7 18 10.5 15.9 10.4 20.4 25.5 12.3 39.7-8.5 14.8-24.6 18-41.8 9.9-28-13.2-55.5-28-84.7-37.7-83-27.8-168.1-26-253.4-11.7-13.7 2.3-27.2 5.6-41 7.9-18.2 3-32.7-5.7-36-21-3.5-17.2 5.5-31 24.2-35.3 53.3-12.3 107.1-20 153.6-19.6z"/></g><path d="M911.7 522.8c-3.9 18.8-18 33.2-37.3 34.5-9 .6-19.4-1.7-27.3-6.1-75.8-42.3-157.9-61.8-243.4-69.3l-3.7-.3V395l55.9 6.3c37 5.5 73.8 13.8 110.2 25 42.5 13.3 83 33.4 123.7 52.2 3.7 1.8 7 3.9 9.7 6.4l2.8 2.8c8.7 9.6 11.9 23 9.4 35.1z" opacity=".1"/><path d="M902.3 487.7c8.7 9.6 11.9 23 9.4 35.1-3.9 18.8-18 33.2-37.3 34.5-9 .6-19.4-1.7-27.3-6.1-75.8-42.3-157.9-61.8-243.4-69.3l-3.7-.3c-7.6-.6-15.2-1.2-22.8-1.6l-63 63c28.9-.5 57.4 1 85.8 4.5 77.2 9.6 152.6 34 226.3 74.3 21.8 11.9 29 27.6 22.8 45.6-5.3 15.7-17.2 24.2-39 24.2-2.9-1.1-10.8-3-17.5-7-60.3-34.8-124.9-54.2-192.6-63.5a733 733 0 0 0-42.6-4.5c-40.9-3.1-81.2-1.5-121.1 4.4l-92.4 92.3c4-3.7 9.5-6.5 16.2-8 53.3-12.3 107.1-20 153.6-19.6A618 618 0 0 1 600 691a466.3 466.3 0 0 1 180.5 62.5c15.9 10.4 20.4 25.5 12.2 39.7-8.4 14.8-24.5 18-41.8 10-28-13.3-55.4-28-84.6-37.8-22-7.4-44.1-12.7-66.3-16.2-61.8-9.8-124.4-6-187.1 4.5-13.7 2.3-27.2 5.6-40.9 7.9-10 1.7-18.9-.2-25.4-4.7L600 1010.3l125.4 125.3a550.7 550.7 0 0 0 411-413.8l-234-234.1z" opacity=".2"/><path d="M849.1 667.4c-5.3 15.7-17.2 24.2-39 24.1-2.9-1-10.8-3-17.5-6.8-60.3-35-124.9-54.3-192.6-63.6v-73.6c77.2 9.6 152.6 34 226.3 74.3 21.8 11.9 29 27.6 22.8 45.6zM792.7 793.2c-8.4 14.8-24.5 18-41.8 9.9-27.9-13.2-55.4-28-84.6-37.7-22-7.4-44-12.7-66.3-16.2V691a466.3 466.3 0 0 1 180.5 62.5c15.9 10.4 20.4 25.5 12.2 39.7z" opacity=".1"/></svg>