<svg xmlns="http://www.w3.org/2000/svg" viewBox="0 0 512 512" style="fill: darkgray;background: white;"><path d="M504.5 253.5l-32.7-32.7a25.4 25.4 0 00-18-7.5h-114c-2.2 0-4.4-.9-6-2.5l-15.6-15.6a25.4 25.4 0 00-18-7.5h-10v-17a17 17 0 00-8.6-14.7V8.5c0-4.7-3.8-8.5-8.5-8.5h-34.2a8.5 8.5 0 00-8.5 8.5V156a17 17 0 00-8.5 14.7v17h-10c-6.8 0-13.3 2.7-18.1 7.5l-15.6 15.6a8.5 8.5 0 01-6 2.5h-114c-6.7 0-13.2 2.7-18 7.5L7.5 253.5A25.5 25.5 0 000 271.6v182.1c0 6.8 2.7 13.3 7.5 18.1l32.7 32.7a25.5 25.5 0 0018 7.5h37c6.9 0 13.4-2.7 18.3-7.5l1-1h283l1 1a25.5 25.5 0 0018.2 7.5h37c6.8 0 13.3-2.7 18.1-7.5l32.7-32.7a25.5 25.5 0 007.5-18V271.6c0-6.9-2.7-13.4-7.5-18.2zM247.5 17h17v136.5h-17V17.1zm-8.6 153.6h34.2v17h-34.2v-17zM131.5 486.4l14.6-14.6a8.5 8.5 0 016-2.5h207.7c2.3 0 4.5 1 6.1 2.6l14.6 14.5h-249zM495 453.7c0 2.3-.9 4.5-2.5 6l-32.6 32.7a8.5 8.5 0 01-6 2.5h-37.1c-2.3 0-4.5-.9-6-2.5L407 489 378 459.8a25.6 25.6 0 00-18.2-7.5H152.1c-6.8 0-13.3 2.6-18 7.5l-29.2 29.1-3.5 3.5a8.7 8.7 0 01-6.1 2.5h-37c-2.3 0-4.5-.9-6-2.5l-32.7-32.6a8.5 8.5 0 01-2.5-6V271.5c0-2.3.9-4.4 2.5-6l32.6-32.7a8.5 8.5 0 016-2.5h114c6.7 0 13.2-2.7 18-7.5l15.6-15.6a8.5 8.5 0 016-2.5h88.3c2.3 0 4.5.9 6 2.5l15.7 15.6a25.4 25.4 0 0018 7.5h114c2.2 0 4.4.9 6 2.5l32.6 32.6a8.7 8.7 0 012.5 6.2v182z"/><path d="M68.3 298.7h17a17 17 0 0017.1-17.1v-17a17 17 0 00-17-17.1H68.2a17 17 0 00-17.1 17v17.1a17 17 0 0017 17zm0-34.2h17v17.1h-17v-17zM170.7 247.5h-17.1a17 17 0 00-17 17v17.1a17 17 0 0017 17h17a17 17 0 0017.1-17v-17a17 17 0 00-17-17.1zm-17.1 34.1v-17h17v17h-17zM221.9 298.7h17a17 17 0 0017.1-17.1v-17a17 17 0 00-17-17.1h-17.1a17 17 0 00-17.1 17v17.1a17 17 0 0017 17zm0-34.2h17v17.1h-17v-17zM307.2 247.5h-17a17 17 0 00-17.1 17v17.1a17 17 0 0017 17h17.1a17 17 0 0017-17v-17a17 17 0 00-17-17.1zm-17 34.1v-17h17v17h-17zM375.5 247.5h-17.1a17 17 0 00-17 17v17.1a17 17 0 0017 17h17a17 17 0 0017.1-17v-17a17 17 0 00-17-17.1zm-17.1 34.1v-17h17v17h-17zM443.7 247.5h-17a17 17 0 00-17.1 17v17.1a17 17 0 0017 17h17.1a17 17 0 0017.1-17v-17a17 17 0 00-17-17.1zm-17 34.1v-17h17v17h-17zM170.7 315.7h-17.1a17 17 0 00-17 17.1v17a17 17 0 0017 17.1h17a17 17 0 0017.1-17v-17.1a17 17 0 00-17-17zM153.6 350v-17.1h17v17h-17zM102.4 315.7H68.3a17 17 0 00-17.1 17.1v17a17 17 0 0017 17.1h34.2a17 17 0 0017-17v-17.1a17 17 0 00-17-17zM68.3 350v-17.1h34.1v17H68.3zM221.9 367h17a17 17 0 0017.1-17.1v-17.1a17 17 0 00-17-17h-17.1a17 17 0 00-17.1 17v17a17 17 0 0017 17.1zm0-34.2h17v17h-17v-17zM307.2 315.7h-17a17 17 0 00-17.1 17.1v17a17 17 0 0017 17.1h17.1a17 17 0 0017-17v-17.1a17 17 0 00-17-17zm-17 34.2v-17.1h17v17h-17zM375.5 315.7h-17.1a17 17 0 00-17 17.1v17a17 17 0 0017 17.1h17a17 17 0 0017.1-17v-17.1a17 17 0 00-17-17zM358.4 350v-17.1h17v17h-17zM443.7 315.7h-17a17 17 0 00-17.1 17.1v17a17 17 0 0017 17.1h17.1a17 17 0 0017.1-17v-17.1a17 17 0 00-17-17zm-17 34.2v-17.1h17v17h-17zM170.7 384h-17.1a17 17 0 00-17 17v17.1a17 17 0 0017 17.1h17a17 17 0 0017.1-17V401a17 17 0 00-17-17.1zm-17.1 34.1v-17h17v17h-17zM102.4 384H68.3a17 17 0 00-17.1 17v17.1a17 17 0 0017 17.1h34.2a17 17 0 0017-17V401a17 17 0 00-17-17.1zm-34.1 34.1v-17h34.1v17H68.3zM307.2 384h-85.3a17 17 0 00-17.1 17v17.1a17 17 0 0017 17.1h85.4a17 17 0 0017-17V401a17 17 0 00-17-17.1zm0 34.1h-85.3v-17h85.3v17zM375.5 384h-17.1a17 17 0 00-17 17v17.1a17 17 0 0017 17.1h17a17 17 0 0017.1-17V401a17 17 0 00-17-17.1zm-17.1 34.1v-17h17v17h-17zM443.7 384h-17a17 17 0 00-17.1 17v17.1a17 17 0 0017 17.1h17.1a17 17 0 0017.1-17V401a17 17 0 00-17-17.1zm-17 34.1v-17h17v17h-17z"/></svg>