<svg xmlns="http://www.w3.org/2000/svg" viewBox="0 0 480.1 480.1"><path d="M402 424.8v47.3a8 8 0 01-16 0v-47.3a66.5 66.5 0 00-66.5-66.6 49.1 49.1 0 01-42.3-23.7 8 8 0 1113.7-8.3c6 10 16.8 16 28.6 16 45.6 0 82.5 37 82.5 82.6zm-139.6-80.2a8 8 0 01-6 9.5c-21.1 4.6-42.6 0-59.6-11.6-16.9 18-39.2 15.7-36.2 15.7A66.5 66.5 0 0094 424.8v47.3a8 8 0 01-16 0v-47.3c0-45.6 37-82.6 82.6-82.6A33.4 33.4 0 00194 309v-2.1a107.2 107.2 0 01-60.9-92.7 32.6 32.6 0 01-25-31.6V141c-.5-20.2 2.5-71 39.6-106.8C193.5-10 266.9-7.1 320.8 18.8a8 8 0 011.7 13.4 108 108 0 0166.1 47.5c.8 1.2 2.2 3.2 1.8 6.3a8 8 0 01-2.2 5 52.2 52.2 0 00-15.2 37v54.5a8 8 0 01-16 0V128c0-16 5.5-31.3 15.6-43.5a92.4 92.4 0 00-66.4-39l-14-1.5c-8.2-.9-9.9-12.2-2.2-15.3l6.4-2.7C213-3 124 29.3 124 141v41.5c0 6.4 3.7 11.9 9 14.7v-51.9a56 56 0 0156-56h102a56 56 0 0156 56v65.5c0 69.6-68 122.4-137.1 102a49 49 0 01-4.2 16.4 60.6 60.6 0 0047.2 9.3 8 8 0 019.5 6.1zM240 301.2c50.2 0 91-40.8 91-91v-65c0-22-18-39.9-40-39.9H189c-22 0-40 18-40 40v64.9c0 50.2 40.9 91 91 91zM321 439h-24a8 8 0 000 16h24a8 8 0 000-16z"/></svg>