<svg xmlns="http://www.w3.org/2000/svg" viewBox="0 0 512 512"><path d="M489.2 107.5a20.3 20.3 0 00-33.3-6.6l-74 74-44.8-44.8 74-74a20.5 20.5 0 00-6.6-33.3 156 156 0 00-208.3 190.4l-164 164A72 72 0 0011 428.5c0 19.4 7.5 37.6 21.2 51.2a72 72 0 00102.5.1l163.9-163.9a156.1 156.1 0 00190.6-208.4zM105.9 450.9a31.8 31.8 0 01-44.8 0c-6-6-17.1-27.6 0-44.8l153.6-153.6a155.3 155.3 0 0044.8 44.8L105.9 450.9zm320.5-202.6A114.4 114.4 0 01345 282a115.1 115.1 0 01-81.4-196.4c21.7-21.7 52.7-37 93.3-33.1l-63.2 63.2c-11.2 13.5-3.8 25 0 28.9l73.6 73.6c8 8 20.9 8 28.9 0l63.2-63.2c3.7 33.9-8 68.3-33 93.3z"/></svg>